<svg width="27" height="27" viewBox="0 0 27 27" fill="none" xmlns="http://www.w3.org/2000/svg">
<path d="M7.18548 22.2942L7.57882 22.5306C9.23791 23.5268 11.1307 24.0523 13.0589 24.0521H13.0631C15.4498 24.0517 17.7688 23.2473 19.6555 21.7651C21.5421 20.2829 22.8895 18.2071 23.4859 15.864C24.0822 13.5209 23.8936 11.0432 22.9498 8.82059C22.006 6.59795 20.3604 4.75631 18.2718 3.58517C16.1832 2.41402 13.7699 1.97978 11.4114 2.35069C9.05283 2.7216 6.88272 3.87665 5.24216 5.63425C3.60161 7.39186 2.58364 9.65237 2.34826 12.0605C2.11288 14.4686 2.67345 16.8877 3.94185 18.9376L4.19806 19.3505L3.11012 23.3775L7.18548 22.2942ZM0.00012207 26.4969L1.83785 19.6933C0.414113 17.1886 -0.154811 14.2775 0.219286 11.4116C0.593384 8.54563 1.88961 5.88487 3.90698 3.84183C5.92435 1.79879 8.55017 0.487614 11.3773 0.111597C14.2045 -0.26442 17.075 0.315726 19.5438 1.76209C22.0127 3.20845 23.9419 5.44022 25.0324 8.11138C26.123 10.7825 26.3138 13.7439 25.5755 16.5362C24.8371 19.3285 23.2107 21.7959 20.9485 23.5557C18.6863 25.3155 15.9147 26.2695 13.0633 26.2697H13.0578C10.8951 26.2697 8.76685 25.7201 6.86756 24.6713L0.00012207 26.4969Z" fill="white"/>
<path d="M0.555411 13.1363C0.552747 15.3606 1.12857 17.5463 2.22481 19.473L0.450562 26.0411L7.07993 24.2786C8.91364 25.2906 10.9681 25.8209 13.0558 25.8212H13.0612C15.5345 25.8212 17.9523 25.0777 20.0088 23.6847C22.0653 22.2916 23.6683 20.3116 24.615 17.995C25.5617 15.6784 25.8097 13.1292 25.3275 10.6697C24.8454 8.21016 23.6548 5.95083 21.9063 4.17733C20.1578 2.40382 17.9299 1.19578 15.5042 0.705945C13.0786 0.216109 10.5642 0.466474 8.27889 1.42538C5.9936 2.3843 4.04005 4.00869 2.66524 6.09319C1.29043 8.17769 0.556104 10.6287 0.5551 13.1363L0.555411 13.1363Z" fill="url(#paint0_linear_149_100)"/>
<path d="M0.10881 13.1325C0.10605 15.4365 0.702449 17.7006 1.83788 19.6964L0 26.4996L6.86722 24.674C8.76657 25.7226 10.8948 26.2722 13.0575 26.2724H13.063C15.625 26.2724 18.1295 25.5023 20.2598 24.0594C22.3901 22.6164 24.0506 20.5654 25.0314 18.1657C26.0121 15.766 26.269 13.1254 25.7697 10.5777C25.2703 8.02993 24.0371 5.68952 22.2259 3.85235C20.4147 2.01518 18.1069 0.763749 15.5943 0.256277C13.0817 -0.251195 10.477 0.00808218 8.10975 1.00133C5.74246 1.99457 3.71879 3.67718 2.29461 5.83642C0.870432 7.99565 0.109698 10.5346 0.108591 13.1321L0.10881 13.1325ZM4.19808 19.3534L3.94174 18.9406C2.6728 16.8904 2.11183 14.4708 2.347 12.0622C2.58218 9.6536 3.60017 7.39251 5.24094 5.6344C6.8817 3.8763 9.05221 2.72087 11.4112 2.34976C13.7703 1.97865 16.1841 2.4129 18.2731 3.58425C20.3622 4.7556 22.0081 6.59762 22.9521 8.82074C23.8961 11.0439 24.0847 13.522 23.4882 15.8656C22.8916 18.2092 21.5439 20.2854 19.6567 21.7678C17.7695 23.2501 15.45 24.0546 13.0627 24.0547H13.0585C11.1304 24.0548 9.23763 23.5294 7.57848 22.5334L7.18514 22.297L3.10984 23.3803L4.19808 19.3534Z" fill="url(#paint1_linear_149_100)"/>
<path d="M9.82538 7.64305C9.58287 7.09653 9.32771 7.08559 9.09706 7.07597C8.90829 7.06784 8.6924 7.06837 8.47676 7.06837C8.31275 7.07271 8.1514 7.11142 8.00286 7.18208C7.85432 7.25273 7.72182 7.35379 7.61369 7.4789C7.3169 7.80732 6.48071 8.60118 6.48071 10.2157C6.48071 11.8304 7.64072 13.3906 7.80233 13.6098C7.96422 13.8285 10.0416 17.2478 13.3313 18.5632C16.0655 19.6563 16.622 19.4389 17.2154 19.3841C17.8088 19.3295 19.1305 18.5905 19.4001 17.8242C19.6699 17.058 19.6699 16.4012 19.589 16.264C19.5081 16.1273 19.2922 16.0451 18.9685 15.8811C18.6448 15.717 17.0535 14.923 16.7569 14.8135C16.4601 14.7041 16.2443 14.6495 16.0284 14.978C15.8126 15.3062 15.1927 16.0451 15.0038 16.264C14.815 16.4833 14.6261 16.5107 14.3025 16.3466C13.9787 16.1819 12.9362 15.8357 11.6995 14.7179C10.9918 14.0547 10.385 13.2888 9.89883 12.4453C9.71006 12.1171 9.87867 11.9394 10.041 11.7757C10.1864 11.6287 10.3648 11.3926 10.5266 11.201C10.6595 11.0351 10.7684 10.8508 10.8499 10.6537C10.893 10.5632 10.913 10.4632 10.9084 10.3629C10.9037 10.2625 10.8743 10.1649 10.823 10.0789C10.742 9.91474 10.113 8.29189 9.8252 7.64296" fill="white"/>
<defs>
<linearGradient id="paint0_linear_149_100" x1="13.0087" y1="26.0408" x2="13.0087" y2="0.461409" gradientUnits="userSpaceOnUse">
<stop stop-color="#20B038"/>
<stop offset="1" stop-color="#60D66A"/>
</linearGradient>
<linearGradient id="paint1_linear_149_100" x1="13.0086" y1="26.4995" x2="13.0086" y2="0.00312013" gradientUnits="userSpaceOnUse">
<stop stop-color="#F9F9F9"/>
<stop offset="1" stop-color="white"/>
</linearGradient>
</defs>
</svg>
