<svg width="60" height="60" viewBox="0 0 60 60" fill="none" xmlns="http://www.w3.org/2000/svg">
<circle cx="30" cy="30" r="30" fill="#F95F00"/>
<path d="M21.02 42V37.784L29.928 29.454C30.5627 28.8647 31.0273 28.3433 31.322 27.89C31.6393 27.4367 31.8433 27.0287 31.934 26.666C32.0473 26.2807 32.104 25.9293 32.104 25.612C32.104 24.8413 31.8433 24.2407 31.322 23.81C30.8233 23.3793 30.064 23.164 29.044 23.164C28.1827 23.164 27.378 23.3567 26.63 23.742C25.882 24.1273 25.27 24.7053 24.794 25.476L19.796 22.688C20.68 21.192 21.9607 19.9907 23.638 19.084C25.3153 18.1773 27.3213 17.724 29.656 17.724C31.492 17.724 33.1013 18.0187 34.484 18.608C35.8667 19.1973 36.9433 20.036 37.714 21.124C38.5073 22.212 38.904 23.4927 38.904 24.966C38.904 25.7367 38.802 26.5073 38.598 27.278C38.394 28.026 37.9973 28.8307 37.408 29.692C36.8413 30.5307 35.9913 31.4713 34.858 32.514L27.786 39.042L26.664 36.662H39.55V42H21.02Z" fill="white"/>
</svg>
