<svg width="104" height="81" viewBox="0 0 104 81" fill="none" xmlns="http://www.w3.org/2000/svg">
<path d="M26.1569 24.056C26.1364 50.5675 25.9385 40.7376 26.1569 51.7208C26.1569 51.7208 29.7805 51.7208 37.0346 51.7208C37.0346 51.7208 37.0346 42.5014 37.0346 24.056C36.748 20.1009 35.6629 16.7497 33.7795 14.009C29.3097 4.95245 20.0288 -0.535742 0.928037 1.33662C0.78473 17.2924 0.78473 34.0826 0.928037 51.714C1.57633 51.714 5.22043 51.714 11.8603 51.714C11.8603 51.714 11.8603 38.4175 11.8603 11.8178C19.2168 12.0416 26.1637 15.8339 26.1569 24.056Z" fill="white"/>
<path d="M77.1129 0.970215C69.7633 0.970215 62.0929 5.04735 57.3638 11.1122C53.0236 5.16946 46.568 1.7368 37.0347 1.06519C37.0347 1.66896 37.0347 5.29157 37.0347 11.933C45.5512 12.7132 50.7239 17.5162 52.546 26.3421C52.1843 34.476 52.1843 42.9288 52.546 51.7139C59.725 51.7139 63.3145 51.7139 63.3145 51.7139C63.3145 50.3232 63.3145 48.9868 63.3145 47.7046C69.3879 51.2526 77.2289 52.4398 84.5171 51.0559V39.0551C82.5654 40.0456 80.3543 40.6019 78.0137 40.6019C70.0908 40.6019 63.6693 34.2182 63.6693 26.3421C63.6693 18.4659 70.0908 12.0823 78.0137 12.0823C86.6053 12.0823 93.2247 19.5107 92.2625 27.9566V51.6122C92.283 51.7411 92.2625 49.8891 92.283 51.7411C103.174 51.6393 92.283 51.7411 103.174 51.6393C102.553 21.4848 102.553 31.4572 102.553 21.4848C99.537 7.59132 88.516 0.970215 77.1129 0.970215Z" fill="white"/>
<path d="M77.959 30.6836C79.8171 30.6836 81.3233 29.1862 81.3233 27.3391C81.3233 25.492 79.8171 23.9946 77.959 23.9946C76.101 23.9946 74.5947 25.492 74.5947 27.3391C74.5947 29.1862 76.101 30.6836 77.959 30.6836Z" fill="white"/>
<path d="M33.8545 66.2246C32.3464 66.2246 31.0566 66.7605 29.9853 67.8256C28.9139 68.8907 28.3748 70.1729 28.3748 71.6721C28.3748 73.1713 28.9139 74.4467 29.9853 75.4982C31.0566 76.5497 32.3464 77.0789 33.8545 77.0789C34.9942 77.0789 36.0451 76.7397 37.0073 76.0681C37.9695 75.3965 38.6383 74.5349 39.0136 73.497H36.2021C35.8608 73.8972 35.506 74.1754 35.1307 74.3382C34.7622 74.501 34.264 74.5824 33.6362 74.5824C33.1175 74.5824 32.633 74.4399 32.1758 74.155C31.7254 73.8701 31.3637 73.4563 31.1044 72.9136H39.1979C39.2456 72.6558 39.2797 72.4455 39.307 72.2759C39.3275 72.1063 39.3412 71.9028 39.3412 71.6721C39.3412 70.1593 38.8021 68.8771 37.7238 67.8188C36.6524 66.7538 35.3627 66.2246 33.8545 66.2246ZM31.0771 70.4781C31.3501 69.8947 31.7391 69.447 32.2509 69.1349C32.7627 68.8228 33.3018 68.6668 33.8682 68.6668C34.4482 68.6668 34.9805 68.8228 35.4787 69.1349C35.97 69.447 36.359 69.8947 36.6252 70.4781H31.0771Z" fill="white"/>
<path d="M25.7475 66.6928C24.9696 66.3943 24.3077 66.2451 23.7481 66.2451C23.1612 66.2451 22.588 66.3604 22.042 66.5843C21.4961 66.8149 21.0116 67.1745 20.6021 67.6629C20.0016 66.9845 19.4693 66.5775 19.0053 66.4418C18.5412 66.3061 18.1659 66.2383 17.8861 66.2383C17.463 66.2383 17.0263 66.3265 16.5759 66.5096C16.1255 66.6928 15.7229 66.9438 15.3544 67.2762V66.4825H12.9523V76.7737H15.4772V71.7061V71.2516C15.4772 70.6885 15.5318 70.2272 15.6342 69.8609C15.7433 69.4946 15.9549 69.2164 16.2756 69.0197C16.5964 68.823 16.9239 68.7212 17.2583 68.7212C17.4494 68.7212 17.62 68.7415 17.7701 68.7823C17.9202 68.823 18.1113 68.9111 18.3297 69.0468C18.5481 69.1825 18.7323 69.4335 18.8893 69.8134C19.0394 70.1865 19.1213 70.7564 19.1213 71.5162V71.8825V76.7805H21.6326V71.6586V71.2923C21.6326 70.7767 21.6872 70.3222 21.7895 69.9287C21.8987 69.5353 22.1103 69.2368 22.4447 69.0333C22.7722 68.8297 23.1203 68.728 23.4888 68.728C23.7958 68.728 24.1029 68.8162 24.4168 68.9993C24.7307 69.1825 24.9423 69.4742 25.0583 69.8812C25.1743 70.2883 25.2357 70.8242 25.2357 71.489V72.1742V76.7873H27.747V71.5162C27.747 70.2611 27.6105 69.2232 27.3307 68.3888C27.051 67.5544 26.5255 66.9913 25.7475 66.6928Z" fill="white"/>
<path d="M42.4599 67.3304V66.4892H40.2147V76.7804H42.7397V71.7399C42.7397 70.8241 42.8761 70.1186 43.1491 69.603C43.4221 69.0942 44.0294 68.7889 44.9848 68.7007V66.2246C44.5481 66.2246 44.1045 66.3264 43.6609 66.5299C43.2105 66.7402 42.8147 67.0048 42.4599 67.3304Z" fill="white"/>
<path d="M52.2184 74.2703C51.7748 74.5146 51.2971 74.6367 50.7785 74.6367C49.9528 74.6367 49.2431 74.3382 48.6494 73.748C48.0557 73.1578 47.7554 72.4455 47.7554 71.6246C47.7554 70.7902 48.0488 70.0847 48.6289 69.5216C49.2089 68.9517 49.9255 68.6668 50.7785 68.6668C51.8158 68.6668 52.6074 69.0399 53.1465 69.793H55.9376C55.5622 68.7618 54.8866 67.9138 53.9244 67.2354C52.9554 66.5638 51.9113 66.2246 50.7785 66.2246C49.2567 66.2246 47.967 66.747 46.9024 67.7985C45.8378 68.8432 45.3055 70.1186 45.3055 71.6178C45.3055 73.1306 45.8446 74.4196 46.916 75.4847C47.9874 76.5497 49.2772 77.0857 50.7853 77.0857C51.9727 77.0857 53.0578 76.7193 54.0268 75.9867C54.9958 75.254 55.6578 74.3382 56.0126 73.2392H53.3103C53.0236 73.6869 52.662 74.0329 52.2184 74.2703Z" fill="white"/>
<path d="M87.3355 66.2246C86.8305 66.2246 86.3323 66.3332 85.8546 66.5435C85.3701 66.7538 84.9266 67.0319 84.5103 67.3711V66.496H81.9854V80.0367H84.5103V76.0816C84.8788 76.4073 85.3019 76.6583 85.7796 76.8279C86.2641 76.9975 86.7827 77.0857 87.3355 77.0857C88.8436 77.0857 90.1266 76.5497 91.1843 75.4847C92.242 74.4196 92.7743 73.1442 92.7743 71.6585C92.7743 70.1457 92.242 68.8636 91.1843 67.812C90.1266 66.7538 88.8436 66.2246 87.3355 66.2246ZM89.3486 73.7073C88.7822 74.2703 88.0998 74.5485 87.3014 74.5485C86.4893 74.5485 85.8 74.2703 85.2336 73.7073C84.6672 73.1442 84.3874 72.4658 84.3874 71.6721C84.3874 70.8648 84.6672 70.1864 85.2336 69.6369C85.8 69.0874 86.4893 68.8093 87.3014 68.8093C88.0998 68.8093 88.7822 69.0874 89.3486 69.6505C89.915 70.2136 90.1948 70.8852 90.1948 71.6721C90.1948 72.4658 89.915 73.1442 89.3486 73.7073Z" fill="white"/>
<path d="M75.6048 66.2246C75.0998 66.2246 74.6016 66.3332 74.1239 66.5435C73.6394 66.7538 73.1958 67.0319 72.7796 67.3711V66.496H70.2546V80.0367H72.7796V76.0816C73.1481 76.4073 73.5712 76.6583 74.0489 76.8279C74.5334 76.9975 75.052 77.0857 75.6048 77.0857C77.1129 77.0857 78.3958 76.5497 79.4536 75.4847C80.5113 74.4196 81.0436 73.1442 81.0436 71.6585C81.0436 70.1457 80.5113 68.8636 79.4536 67.812C78.3958 66.7538 77.1129 66.2246 75.6048 66.2246ZM77.6179 73.7073C77.0515 74.2703 76.3691 74.5485 75.5706 74.5485C74.7586 74.5485 74.0693 74.2703 73.5029 73.7073C72.9365 73.1442 72.6567 72.4658 72.6567 71.6721C72.6567 70.8648 72.9365 70.1864 73.5029 69.6369C74.0693 69.0874 74.7586 68.8093 75.5706 68.8093C76.3691 68.8093 77.0515 69.0874 77.6179 69.6505C78.1843 70.2136 78.4641 70.8852 78.4641 71.6721C78.4641 72.4658 78.1843 73.1442 77.6179 73.7073Z" fill="white"/>
<path d="M61.854 62.8735L56.2173 76.7806H59.0766L60.7349 72.6899H65.1364L66.8152 76.7806H69.6267L63.8876 62.8735H61.854ZM61.6084 70.3019L62.864 66.9303L64.1879 70.3019H61.6084Z" fill="white"/>
</svg>
