<svg width="90" height="90" viewBox="0 0 90 90" fill="none" xmlns="http://www.w3.org/2000/svg">
<path fill-rule="evenodd" clip-rule="evenodd" d="M89.9984 44.9983C89.9984 69.8502 69.8525 89.9967 45.0006 89.9967C20.1487 89.9967 0.00170898 69.8502 0.00170898 44.9983C0.00170898 20.1465 20.1487 0 45.0006 0C69.8525 0 89.9984 20.1465 89.9984 44.9983Z" fill="#2072B4"/>
<path fill-rule="evenodd" clip-rule="evenodd" d="M61.3719 3.07245C69.2589 7.48057 74.7181 15.9092 78.0978 24.031C81.8698 33.0967 84.1989 43.8723 81.0199 53.4685C78.3667 61.4785 72.5708 68.1553 65.2653 72.3212C57.104 76.9752 47.814 78.2069 38.5287 77.9417C28.2233 77.647 18.7962 74.6556 10.8083 67.9998C7.4465 65.1974 4.53437 61.9318 2.02197 58.3615C7.71334 76.6879 24.8037 89.9957 45.0022 89.9957C69.8541 89.9957 90 69.8493 90 44.9974C89.9984 25.9225 78.1288 9.62107 61.3719 3.07245Z" fill="#1D56A3"/>
<path fill-rule="evenodd" clip-rule="evenodd" d="M18.9832 8.2564C20.2748 8.58207 21.557 8.94189 22.8613 9.22291C23.9644 9.46138 24.6409 10.8387 26.0077 10.3717C26.3413 10.2582 26.9007 10.513 26.9175 9.92573C26.9348 9.34792 26.4516 9.27334 25.9788 9.2455C25.2912 9.2061 24.5154 9.55068 24.465 8.22278C24.4324 7.38602 23.2568 8.21858 22.5818 7.74426C23.6539 6.6937 24.6409 5.7876 26.2509 5.9683C26.8812 6.03921 27.3398 6.17841 27.7437 6.69948C28.7743 8.03684 29.7324 8.13138 31.0493 7.10289C31.3519 6.86704 31.6697 6.43054 32.0169 6.88858C32.3383 7.31195 31.8257 7.54412 31.5788 7.81464C31.0577 8.38509 30.4452 8.71812 29.641 8.6367C28.9403 8.56579 28.6651 8.89934 28.7481 9.59796C28.8263 10.2745 29.2487 10.275 29.7949 10.2913C31.0882 10.3281 32.1366 9.49658 33.4004 9.36894C34.0465 9.30328 34.3459 8.62042 33.6352 8.10827C33.3122 7.87505 33.0727 7.72167 33.2576 7.32614C33.4204 6.97945 33.7508 6.85969 34.1111 6.85339C34.9411 6.84341 35.7705 6.85024 36.5768 6.85024C36.8058 7.37551 36.3851 7.51996 36.1718 7.71484C35.7547 8.09567 35.3645 8.42081 35.6991 9.07215C35.9958 9.64996 36.5064 9.80282 37.0485 9.72665C37.7986 9.62159 37.5281 8.95292 37.4955 8.53952C37.4241 7.6371 38.0034 7.29147 38.6627 7.08556C40.2185 6.59915 41.8143 6.21413 43.335 7.16435C44.4291 7.84721 46.2566 7.72062 46.1904 9.75922C46.1731 10.2514 47.7846 10.0292 46.9547 11.1344C46.4767 11.771 45.7896 11.4805 45.1887 11.5803C45.0941 11.5956 44.9492 11.6087 44.9198 11.6686C43.6649 14.2052 42.0927 11.8724 40.4943 12.2049C41.0259 11.2904 41.7613 11.1885 42.3107 10.8155C42.6169 10.6096 43.1512 10.5235 43.0461 10.0318C42.9521 9.5885 42.5445 9.26388 42.0953 9.22659C41.1225 9.14517 40.1088 9.06533 39.2168 9.53807C38.4678 9.93518 37.9682 10.67 36.9923 10.8455C36.6577 10.9059 36.3851 12.0085 35.8099 12.4707C35.406 12.7953 35.0362 12.8279 34.9237 12.3131C34.6963 11.2694 34.0875 11.635 33.4777 11.8083C31.8966 12.2559 30.5955 13.2534 29.2072 14.056C28.2412 14.6133 28.8752 15.4569 29.2865 16.0841C29.5785 16.5285 30.1033 16.7843 30.658 16.8615C31.8335 17.0238 32.9135 17.2449 32.5537 18.8717C32.4896 19.1622 32.6362 19.4495 33.018 19.4852C33.4183 19.5215 33.7067 19.3277 33.8138 18.9741C34.1815 17.7445 35.095 17.1971 36.2632 16.945C37.1005 16.7638 36.9082 16.0856 36.9224 15.5268C36.987 12.8373 38.4562 12.0321 40.8562 13.3642C41.2801 13.5995 41.3815 13.9184 41.2654 14.3386C40.9098 15.6365 41.6788 15.4994 42.4735 15.2678C42.7971 15.1727 43.0928 14.9778 43.3917 14.8098C44.0935 14.4158 44.4087 14.649 44.3278 15.4133C44.2169 16.4512 44.5904 17.133 45.5107 17.7009C46.4425 18.2787 46.3543 19.2063 45.3573 19.7237C44.3467 20.249 44.4643 20.5857 45.3678 21.0521C45.8442 21.2974 46.7819 21.5722 46.2403 22.2293C45.6699 22.9211 44.7863 22.202 44.0646 22.0134C43.5047 21.8679 43.2541 21.4745 43.6838 20.9103C43.9175 20.602 44.249 20.26 43.8156 19.906C43.4658 19.6208 43.2231 20.011 42.9263 20.1492C42.1941 20.4917 41.4792 20.6356 40.778 19.9601C40.1592 19.3634 39.3629 19.2909 38.9211 20.1108C38.3528 21.164 39.7931 20.8604 39.9533 21.3347C36.7465 22.5686 34.4216 24.988 31.9018 27.1301C31.7899 27.2247 31.625 27.3239 31.6008 27.4453C31.1344 29.7407 28.9461 30.3994 27.4958 31.7494C26.8534 32.3472 26.6632 32.9896 26.7011 33.8311C26.7184 34.2077 27.3062 34.9294 26.4484 34.9835C25.9305 35.0161 25.1063 34.6899 25.1589 34.0233C25.2797 32.4732 24.2696 32.7054 23.3908 32.7626C21.8549 32.8677 20.3295 32.5525 18.7783 33.2307C16.954 34.0307 16.1913 35.4652 15.5326 37.1372C15.1003 38.235 15.4591 39.15 16.257 39.7299C17.006 40.2746 18.0109 40.2993 18.8834 39.7504C19.5037 39.3612 20.0915 38.922 20.7129 38.5318C21.0086 38.3458 21.2629 37.8626 21.7078 38.2744C22.0303 38.5727 21.8801 38.9614 21.722 39.2283C20.9414 40.5415 21.214 41.2401 22.8093 41.2811C23.2889 41.2937 23.4664 41.6036 23.5042 42.0569C23.5368 42.4451 23.6471 42.8264 23.6954 43.2125C23.988 45.5715 23.9943 45.52 26.222 45.9108C27.282 46.0978 27.842 45.5652 28.4586 44.8908C30.0345 43.1631 31.3256 43.1321 32.9692 44.7925C33.8228 45.6545 34.9127 45.5558 35.6665 45.0615C36.7244 44.3655 37.3637 44.7516 37.7839 45.5432C38.5833 47.0475 39.511 47.9594 41.4172 47.7614C42.5203 47.6474 42.6957 48.9359 43.0608 49.7485C43.3518 50.3957 42.7719 51.3664 43.5036 51.7971C44.592 52.4343 45.7823 52.9312 47.0902 52.9758C47.4328 52.9934 47.7761 52.9934 48.1187 52.9758C49.4403 52.8839 50.6773 52.9086 51.243 54.4623C51.3397 54.725 51.7315 54.9813 52.031 55.058C53.5616 55.4478 53.3237 56.6391 52.6298 57.2395C50.6148 58.9818 50.7808 61.3204 50.5098 63.5586C50.3175 65.1438 49.2276 66.1807 47.6207 66.1849C45.5196 66.1886 44.9523 66.8321 45.5159 68.856C45.8442 70.0331 45.6772 70.9082 44.81 71.7634C44.1886 72.3764 43.533 73.0571 43.199 73.8393C42.3181 75.9026 40.5626 76.6059 38.6217 77.0576C37.8269 77.2425 37.3983 77.5068 38.2393 78.1008C39.0146 78.6487 38.6963 79.0416 38.2556 79.5023C37.5407 80.2503 37.8443 80.7876 38.6758 81.0009C39.5861 81.2341 39.8083 81.6838 39.4054 82.468C38.8612 83.5238 39.3193 84.1909 40.1487 84.8286C40.5295 85.1217 41.1856 85.4358 40.8578 86.0998C40.5952 86.6319 40.062 86.2048 39.6565 86.2647C37.5759 86.5725 36.5185 84.9715 35.5026 83.7308C34.2735 82.2269 33.0564 80.5339 33.6641 78.28C33.8317 77.6628 33.9452 76.8727 33.3779 76.3254C32.3073 75.2906 32.0536 74.0483 32.5899 72.7383C33.0627 71.5858 31.9013 70.9466 31.9407 69.948C31.9969 68.5298 31.9491 67.1089 31.9512 65.6896C31.9549 63.1961 31.2111 62.0395 28.8699 61.2652C28.0647 60.9994 27.7017 60.6617 27.5126 59.8107C27.2421 58.5873 26.1579 57.821 25.3973 56.8891C23.7075 54.8206 23.9502 51.6589 26.1569 50.2276C27.4701 49.3777 26.5519 48.3802 26.626 47.4699C26.7 46.5596 25.7939 46.715 25.3128 46.7345C23.4801 46.8122 22.2725 45.8541 21.3312 44.4716C20.7917 43.6795 20.0821 43.316 19.1928 43.0948C18.4048 42.8984 17.3716 43.0392 17.1878 41.7916C17.1353 41.4355 16.5653 41.4239 16.2859 41.5416C14.9254 42.1194 13.7052 41.3725 12.4472 41.155C11.4791 40.9869 10.4895 38.9536 10.8288 37.9876C11.0032 37.4933 10.9013 37.1844 10.6245 36.7931C9.55972 35.2882 8.30536 33.8694 8.1961 31.8865C8.17929 31.5713 8.04114 31.2714 7.68028 31.3019C7.20753 31.3428 7.27844 31.7541 7.24167 32.0898C7.10353 33.3552 7.72335 34.3238 8.38363 35.3197C8.755 35.8796 9.55814 36.7148 8.77758 37.2312C7.91455 37.8074 7.40819 36.8745 6.90392 36.1575C5.98259 34.8443 5.65744 33.4387 5.80714 31.8713C5.86913 31.2304 5.8749 30.588 5.07701 30.3049C4.05167 29.9409 3.56684 29.2711 3.94872 28.146C4.06848 27.793 3.96447 27.564 3.52429 27.6948C6.04247 21.237 10.043 15.8272 15.1923 11.241C16.3904 10.1689 17.6012 9.10052 18.9832 8.2564Z" fill="#98CA8A"/>
<path fill-rule="evenodd" clip-rule="evenodd" d="M79.848 72.9841C78.9892 73.108 78.5101 72.8029 78.6399 71.8726C78.8164 70.6067 78.3772 69.5614 77.5084 68.6805C76.6296 67.7875 76.8918 66.6703 76.8907 65.6176C76.8907 64.8097 76.8529 64.0854 76.1474 63.5123C75.1841 62.7317 75.1289 61.6533 75.7955 60.7588C77.1544 58.934 76.8986 57.3445 75.6269 55.598C74.4114 53.9255 73.4207 52.1096 74.2086 49.8761C74.383 49.3855 74.2654 48.9185 73.5599 48.8382C72.4537 48.7137 71.4 48.5382 70.4382 47.796C69.9098 47.3884 68.9538 47.4572 68.314 47.8008C66.5407 48.7531 64.5782 48.1837 62.7524 48.6265C62.6189 48.6596 62.4235 48.6549 62.3227 48.5797C60.6523 47.3459 59.4473 45.6645 58.1835 44.0666C57.4544 43.1447 57.9377 41.8867 57.8878 40.7794C57.8678 40.3492 58.308 40.1349 58.4656 39.805C58.714 39.2797 59.3386 38.7213 58.2245 38.2003C57.4592 37.8415 57.2974 36.9969 58.2119 36.355C59.0124 35.794 59.7509 35.1374 60.5824 34.6289C61.8079 33.8788 62.6678 33.1056 62.5559 31.4085C62.4624 30.0007 64.0944 29.5358 64.978 29.5915C67.5455 29.7533 69.7874 28.458 72.274 28.3555C74.0553 28.2825 74.165 28.1953 74.3074 29.9177C74.3599 30.5507 74.5968 30.8732 75.2193 31.0439C76.4841 31.3922 77.812 31.5492 78.9666 32.2615C79.3259 32.4821 79.6495 32.4548 79.8837 31.9364C80.3565 30.8911 81.6886 30.3905 82.5574 31.1731C84.232 32.6833 86.1461 32.4432 88.0838 32.3986C92.0476 47.2886 89.3455 60.8271 79.848 72.9841Z" fill="#98CA8A"/>
<path fill-rule="evenodd" clip-rule="evenodd" d="M86.9009 28.5751C84.1222 28.6361 83.9593 28.5457 83.3946 26.0396C83.2371 25.3315 82.9482 25.4303 82.4906 25.6766C82.165 25.8521 82.052 26.1552 81.8819 26.4577C81.614 26.9357 81.8682 27.9458 81.2105 27.8618C80.483 27.7688 79.7571 26.9604 79.7545 26.2003C79.7487 24.7438 78.809 24.0467 77.8829 23.273C77.697 23.118 77.5152 22.9021 77.3014 22.8449C76.7352 22.6957 75.9609 22.4956 75.6468 22.9589C75.2865 23.491 75.6726 24.2032 76.1595 24.6292C76.5934 25.0095 77.1407 25.2659 77.6507 25.5522C78.0978 25.8038 78.4865 26.0102 78.2328 26.672C78.0226 27.2309 78.2359 27.98 77.396 28.2106C76.7483 28.3876 76.253 28.2768 75.9462 27.6354C76.2215 27.2961 76.6065 27.5062 76.9075 27.3869C77.4611 27.1669 77.5903 26.8974 77.0651 26.4546C76.0019 25.5564 74.5437 25.1414 73.8231 23.8151C73.7858 23.7463 73.5515 23.7184 73.4464 23.7625C71.4787 24.5741 69.4843 25.269 68.5745 27.5498C68.0177 28.9486 64.2042 28.9917 63.6017 27.6354C63.1946 26.7172 63.0418 25.5522 63.6647 24.6681C64.19 23.9227 65.1933 23.9175 66.07 23.948C66.5023 23.9627 66.9262 24.1281 67.358 24.1938C67.7209 24.2489 68.024 24.1638 68.1832 23.7646C68.326 23.4059 68.2567 23.1784 68.003 22.8596C67.0691 21.6866 67.4383 20.8037 68.9301 20.6886C69.6996 20.6298 70.2958 20.3509 70.5989 19.6964C71.318 18.1489 72.5424 17.8017 74.0909 18.0228C74.487 18.079 75.089 18.3033 75.2466 17.7676C75.371 17.3405 75.2781 16.7627 75.08 16.3493C74.7911 15.7463 74.2953 16.2579 73.9381 16.3619C73.4916 16.4917 73.1848 16.5305 73.0136 16.0299C72.8329 15.5047 72.5109 15.2168 71.9683 14.9473C71.0344 14.482 71.3905 13.3542 72.6049 12.7669C73.4401 12.3619 74.6157 12.3436 74.6262 10.9962C79.1877 15.262 83.0107 20.0772 85.6418 25.7801C86.072 26.7057 86.4827 27.6417 86.9009 28.5751Z" fill="#98CA8A"/>
<path fill-rule="evenodd" clip-rule="evenodd" d="M67.8007 20.0908C67.4026 20.0026 66.7502 20.3435 66.5432 19.7825C66.362 19.2851 66.7119 18.8669 67.1526 18.4472C68.117 17.5275 66.922 17.3074 66.4744 16.8851C66.1624 16.5904 65.6723 16.4165 65.8761 15.8513C65.9392 15.6642 66.0522 15.4978 66.2031 15.3703C66.3539 15.2428 66.5368 15.159 66.7318 15.128C67.2492 15.0314 67.6773 15.0256 67.8302 15.72C68.0928 16.9344 68.5603 18.0507 69.7296 18.7052C70.1992 18.9678 69.9686 19.2352 69.7422 19.5256C69.2411 20.167 68.5298 20.0583 67.8007 20.0908Z" fill="#98CA8A"/>
<path fill-rule="evenodd" clip-rule="evenodd" d="M64.1039 19.4963C63.9773 19.4742 63.8171 19.4837 63.6962 19.4185C63.3811 19.2494 63.3643 18.9195 63.4725 18.6579C63.816 17.8348 64.2525 17.0779 65.2857 16.9975C65.6981 16.9655 66.0799 17.0653 66.2438 17.4823C66.4434 17.9919 66.1157 18.2944 65.7354 18.5576C65.2222 18.91 64.7888 19.4007 64.1039 19.4963Z" fill="#98CA8A"/>
<path fill-rule="evenodd" clip-rule="evenodd" d="M42.1326 22.6159C42.1121 23.1023 41.6336 23.2751 41.3972 23.6139C41.1608 23.9527 40.7222 24.0052 40.3429 23.8119C40.2006 23.7405 40.0278 23.5004 40.0493 23.3712C40.1381 22.8885 40.5867 23.0503 40.8856 23.0277C41.341 22.9925 41.4986 22.1284 42.1326 22.6159Z" fill="#98CA8A"/>
<path fill-rule="evenodd" clip-rule="evenodd" d="M38.5318 24.1444C38.2376 24.0992 38.1047 23.9049 38.1914 23.6412C38.2439 23.4836 38.4141 23.2651 38.5496 23.2509C38.8175 23.222 38.9578 23.4494 38.9741 23.7126C38.994 24.0167 38.8133 24.136 38.5318 24.1444Z" fill="#98CA8A"/>
<path fill-rule="evenodd" clip-rule="evenodd" d="M40.1543 84.8323C39.3249 84.1946 38.8668 83.5275 39.411 82.4717C39.8139 81.689 39.5917 81.2378 38.6814 81.0046C37.8489 80.7913 37.5453 80.2539 38.2612 79.5059C38.7019 79.0453 39.0202 78.6524 38.2449 78.1045C38.1646 78.0486 38.0879 77.9875 38.0154 77.9217C36.5919 77.8681 35.1862 77.7612 33.7985 77.6008C33.7773 77.8317 33.7351 78.0603 33.6724 78.2836C33.0631 80.5376 34.2801 82.2306 35.5109 83.7344C36.5267 84.9751 37.5841 86.5762 39.6647 86.2684C40.0703 86.209 40.6039 86.6361 40.8661 86.1034C41.1912 85.4374 40.5351 85.1233 40.1543 84.8323Z" fill="#83BB7C"/>
<path fill-rule="evenodd" clip-rule="evenodd" d="M88.087 32.3986C86.1493 32.4433 84.2352 32.6833 82.5606 31.1731C81.9791 30.6479 81.1949 30.7004 80.5924 31.1064C82.6898 38.412 83.4042 46.2722 81.0199 53.4701C79.8496 57.002 78.0668 60.2745 75.8145 63.1877C75.9152 63.3063 76.0269 63.4151 76.148 63.5128C76.8534 64.0859 76.8902 64.8103 76.8913 65.6182C76.8913 66.6687 76.6286 67.7886 77.509 68.681C78.3778 69.563 78.8169 70.6072 78.6404 71.8731C78.5102 72.8034 79.2261 73.3024 80.0844 73.179C89.5819 61.0204 92.0476 47.2886 88.087 32.3986Z" fill="#83BB7C"/>
<path fill-rule="evenodd" clip-rule="evenodd" d="M85.6438 25.7775C83.0127 20.0745 79.1898 15.2593 74.6283 10.9936C74.6177 12.3409 73.4422 12.3593 72.607 12.7643C72.4274 12.8511 72.2574 12.9568 72.1001 13.0794C72.8355 14.11 73.5299 15.1676 74.1833 16.2521C74.4985 16.0882 74.8541 15.8718 75.0821 16.3467C75.2801 16.7606 75.3731 17.3384 75.2486 17.7649C75.2303 17.8282 75.2005 17.8877 75.1609 17.9403C76.1064 19.6438 76.9542 21.382 77.7069 23.1138C77.7657 23.1663 77.824 23.2225 77.8829 23.2714C78.81 24.0472 79.7487 24.7421 79.7544 26.1987C79.7544 26.9588 80.483 27.7672 81.2105 27.8602C81.8681 27.9442 81.6139 26.9341 81.8818 26.4561C82.052 26.1536 82.1649 25.8505 82.4906 25.675C82.9481 25.4287 83.2349 25.3299 83.3946 26.038C83.9587 28.5441 84.1221 28.6344 86.9008 28.5735C86.4827 27.6417 86.0719 26.7056 85.6438 25.7775Z" fill="#83BB7C"/>
<path d="M8.55119 23.1947C9.17732 21.3163 10.2568 19.5488 11.415 17.9551C12.7933 16.0688 14.39 14.3524 16.1719 12.8415C17.0054 12.1308 17.8974 11.4915 18.8382 10.9306C19.2059 10.7131 19.5778 10.4998 19.9576 10.3002C20.3148 10.1138 20.798 10.4699 20.4955 10.8507C20.3678 11.0645 20.1577 11.2568 19.9943 11.4427C19.6266 11.8456 19.2495 12.2416 18.8913 12.6508C18.1146 13.5428 17.3392 14.4357 16.5653 15.3297C15.1093 17.0106 13.7346 18.7661 12.2549 20.4281C11.5416 21.2291 10.8193 22.0181 10.0671 22.7829C9.78979 23.065 9.50457 23.3428 9.20254 23.5981C8.9005 23.8534 8.42565 23.5934 8.55119 23.1947Z" fill="#C6E0BB"/>
<path d="M5.57808 28.053C5.4851 28.053 5.71255 27.0135 5.74564 26.9205C5.92634 26.4173 6.22364 25.953 6.56455 25.5438C6.8109 25.247 8.17662 23.8907 8.26067 25.0337C8.32265 25.8705 7.78792 26.8722 7.28838 27.5025C7.00683 27.8571 6.66908 28.2048 6.26146 28.4123C6.19405 28.4466 6.11941 28.4641 6.04381 28.4636C5.9682 28.463 5.89383 28.4443 5.82693 28.4091C5.76004 28.3738 5.70258 28.3231 5.65937 28.261C5.61616 28.199 5.58846 28.1275 5.5786 28.0525L5.57808 28.053Z" fill="#C6E0BB"/>
</svg>
