<svg width="60" height="60" viewBox="0 0 60 60" fill="none" xmlns="http://www.w3.org/2000/svg">
<circle cx="30" cy="30" r="30" fill="#F95F00"/>
<path d="M29.112 43.476C27.4573 43.476 25.8027 43.272 24.148 42.864C22.516 42.456 21.088 41.878 19.864 41.13L22.312 36.064C23.264 36.6987 24.318 37.186 25.474 37.526C26.6527 37.866 27.7973 38.036 28.908 38.036C30.064 38.036 30.982 37.8207 31.662 37.39C32.342 36.9593 32.682 36.3473 32.682 35.554C32.682 34.8513 32.3987 34.296 31.832 33.888C31.2653 33.4573 30.336 33.242 29.044 33.242H26.222V28.992L32.614 22.09L33.26 24.402H21.088V19.2H38.292V23.416L31.9 30.318L28.602 28.448H30.438C33.4073 28.448 35.6513 29.1167 37.17 30.454C38.7113 31.7687 39.482 33.4687 39.482 35.554C39.482 36.914 39.108 38.1947 38.36 39.396C37.6347 40.5973 36.5127 41.5833 34.994 42.354C33.4753 43.102 31.5147 43.476 29.112 43.476Z" fill="white"/>
</svg>
