<svg width="32" height="32" viewBox="0 0 32 32" fill="none" xmlns="http://www.w3.org/2000/svg">
<path d="M31.9 9.4C31.8 7.7 31.55 6.55 31.15 5.5C30.75 4.45 30.2 3.55 29.3 2.65C28.4 1.75 27.55 1.25 26.5 0.85C25.5 0.45 24.3 0.2 22.6 0.1C20.9 0 20.35 0 16 0C11.65 0 11.1 0 9.4 0.1C7.7 0.2 6.55 0.45 5.5 0.85C4.45 1.25 3.55 1.8 2.7 2.7C1.85 3.6 1.25 4.45 0.85 5.5C0.45 6.5 0.2 7.7 0.1 9.4C0 11.1 0 11.65 0 16C0 20.35 0 20.9 0.1 22.6C0.2 24.3 0.45 25.45 0.85 26.5C1.25 27.55 1.8 28.45 2.7 29.35C3.6 30.25 4.5 30.8 5.55 31.2C6.55 31.6 7.75 31.85 9.45 31.95C11.1 32 11.65 32 16 32C20.35 32 20.9 32 22.6 31.9C24.3 31.8 25.45 31.55 26.5 31.15C27.55 30.75 28.45 30.2 29.35 29.3C30.25 28.4 30.8 27.5 31.2 26.45C31.6 25.45 31.85 24.25 31.95 22.55C32 20.9 32 20.35 32 16C32 11.65 32 11.1 31.9 9.4ZM29 22.45C28.95 24 28.65 24.85 28.45 25.4C28.15 26.15 27.8 26.7 27.25 27.25C26.7 27.8 26.15 28.15 25.4 28.45C24.85 28.65 24 28.95 22.45 29C20.75 29.1 20.25 29.1 16 29.1C11.75 29.1 11.2 29.1 9.55 29C8 28.95 7.15 28.65 6.6 28.45C5.85 28.15 5.3 27.8 4.75 27.25C4.2 26.7 3.85 26.15 3.55 25.4C3.35 24.85 3.05 24 3 22.45C2.9 20.8 2.9 20.3 2.9 16C2.9 11.7 2.9 11.2 3 9.55C3.05 8 3.35 7.15 3.55 6.6C3.85 5.85 4.2 5.3 4.75 4.75C5.3 4.2 5.85 3.85 6.6 3.55C7.15 3.35 8 3.05 9.55 3C11.25 2.9 11.75 2.9 16 2.9C20.25 2.9 20.8 2.9 22.45 3C24 3.05 24.85 3.35 25.4 3.55C26.15 3.85 26.7 4.2 27.25 4.75C27.8 5.3 28.15 5.85 28.45 6.6C28.65 7.15 28.95 8 29 9.55C29.1 11.25 29.1 11.75 29.1 16C29.1 20.25 29.1 20.8 29 22.45Z" fill="white"/>
<path d="M16 7.7998C11.45 7.7998 7.79999 11.4998 7.79999 15.9998C7.79999 20.5498 11.5 24.1998 16 24.1998C20.5 24.1998 24.2 20.5498 24.2 15.9998C24.2 11.4498 20.55 7.7998 16 7.7998ZM16 21.3498C13.05 21.3498 10.65 18.9498 10.65 15.9998C10.65 13.0498 13.05 10.6498 16 10.6498C18.95 10.6498 21.35 13.0498 21.35 15.9998C21.35 18.9498 18.95 21.3498 16 21.3498Z" fill="white"/>
<path d="M24.55 9.3498C25.5994 9.3498 26.45 8.49915 26.45 7.4498C26.45 6.40046 25.5994 5.5498 24.55 5.5498C23.5007 5.5498 22.65 6.40046 22.65 7.4498C22.65 8.49915 23.5007 9.3498 24.55 9.3498Z" fill="white"/>
</svg>
