<svg width="26" height="24" viewBox="0 0 26 24" fill="none" xmlns="http://www.w3.org/2000/svg">
<path d="M9.77813 21.6761C9.00217 21.6761 9.13681 21.3647 8.86753 20.5843L6.58923 12.6452L20.6948 3.31409L22.3424 3.77182L20.9747 7.74138L9.77813 21.6761Z" fill="#C8DAEA"/>
<path d="M9.77832 21.6763C10.3771 21.6763 10.6393 21.3874 10.9724 21.0422C11.4862 20.5094 18.1439 13.6584 18.1439 13.6584L14.0656 12.6116L10.2815 15.1441L9.77832 21.4624V21.6763Z" fill="#A7C2D1"/>
<path d="M10.1857 15.2342L19.8198 22.7756C20.9182 23.4172 21.7119 23.087 21.9882 21.695L25.9106 2.12489C26.311 0.421504 25.2976 -0.351398 24.2453 0.151363L1.2143 9.5575C-0.358891 10.2253 -0.348261 11.1521 0.9273 11.5685L6.8374 13.5233L20.5178 4.38356C21.1627 3.96709 21.7579 4.19221 21.269 4.64995L10.1857 15.2342Z" fill="url(#paint0_linear_149_91)"/>
<defs>
<linearGradient id="paint0_linear_149_91" x1="17.1505" y1="10.0746" x2="22.5515" y2="18.2354" gradientUnits="userSpaceOnUse">
<stop stop-color="#EFF7FC"/>
<stop offset="1" stop-color="white"/>
</linearGradient>
</defs>
</svg>
