<svg width="32" height="32" viewBox="0 0 32 32" fill="none" xmlns="http://www.w3.org/2000/svg">
<path d="M31.9 9.4C31.8 7.7 31.55 6.55 31.15 5.5C30.75 4.45 30.2 3.55 29.3 2.65C28.4 1.75 27.55 1.25 26.5 0.85C25.5 0.45 24.3 0.2 22.6 0.1C20.9 0 20.35 0 16 0C11.65 0 11.1 0 9.4 0.1C7.7 0.2 6.55 0.45 5.5 0.85C4.45 1.25 3.55 1.8 2.7 2.7C1.85 3.6 1.25 4.45 0.85 5.5C0.45 6.5 0.2 7.7 0.1 9.4C0 11.1 0 11.65 0 16C0 20.35 0 20.9 0.1 22.6C0.2 24.3 0.45 25.45 0.85 26.5C1.25 27.55 1.8 28.45 2.7 29.35C3.6 30.25 4.5 30.8 5.55 31.2C6.55 31.6 7.75 31.85 9.45 31.95C11.1 32 11.65 32 16 32C20.35 32 20.9 32 22.6 31.9C24.3 31.8 25.45 31.55 26.5 31.15C27.55 30.75 28.45 30.2 29.35 29.3C30.25 28.4 30.8 27.5 31.2 26.45C31.6 25.45 31.85 24.25 31.95 22.55C32 20.9 32 20.35 32 16C32 11.65 32 11.1 31.9 9.4ZM29 22.45C28.95 24 28.65 24.85 28.45 25.4C28.15 26.15 27.8 26.7 27.25 27.25C26.7 27.8 26.15 28.15 25.4 28.45C24.85 28.65 24 28.95 22.45 29C20.75 29.1 20.25 29.1 16 29.1C11.75 29.1 11.2 29.1 9.55 29C8 28.95 7.15 28.65 6.6 28.45C5.85 28.15 5.3 27.8 4.75 27.25C4.2 26.7 3.85 26.15 3.55 25.4C3.35 24.85 3.05 24 3 22.45C2.9 20.8 2.9 20.3 2.9 16C2.9 11.7 2.9 11.2 3 9.55C3.05 8 3.35 7.15 3.55 6.6C3.85 5.85 4.2 5.3 4.75 4.75C5.3 4.2 5.85 3.85 6.6 3.55C7.15 3.35 8 3.05 9.55 3C11.25 2.9 11.75 2.9 16 2.9C20.25 2.9 20.8 2.9 22.45 3C24 3.05 24.85 3.35 25.4 3.55C26.15 3.85 26.7 4.2 27.25 4.75C27.8 5.3 28.15 5.85 28.45 6.6C28.65 7.15 28.95 8 29 9.55C29.1 11.25 29.1 11.75 29.1 16C29.1 20.25 29.1 20.8 29 22.45Z" fill="white"/>
<path d="M13.1748 23.0201C12.6054 23.0201 12.7042 22.8043 12.5066 22.2636L10.8349 16.7622L21.185 10.2964L22.3939 10.6136L21.3903 13.3642L13.1748 23.0201Z" fill="#C8DAEA"/>
<path d="M13.1749 23.0205C13.6143 23.0205 13.8067 22.8203 14.0511 22.5811C14.4281 22.212 19.3132 17.4646 19.3132 17.4646L16.3208 16.7393L13.5441 18.4942L13.1749 22.8723V23.0205Z" fill="#A7C2D1"/>
<path d="M13.4739 18.5563L20.5429 23.7821C21.3488 24.2266 21.9312 23.9978 22.134 23.0333L25.012 9.47241C25.3058 8.29208 24.5623 7.7565 23.7901 8.10489L6.891 14.6227C5.73666 15.0855 5.74446 15.7277 6.68041 16.0163L11.017 17.3708L21.055 11.0375C21.5282 10.7489 21.965 10.9049 21.6062 11.2221L13.4739 18.5563Z" fill="url(#paint0_linear_150_1988)"/>
<defs>
<linearGradient id="paint0_linear_150_1988" x1="18.5843" y1="14.9811" x2="22.239" y2="20.8287" gradientUnits="userSpaceOnUse">
<stop stop-color="#EFF7FC"/>
<stop offset="1" stop-color="white"/>
</linearGradient>
</defs>
</svg>
