<svg width="90" height="91" viewBox="0 0 90 91" fill="none" xmlns="http://www.w3.org/2000/svg">
<circle cx="45" cy="45" r="45" fill="#114AD6"/>
<path d="M82.7174 73.8087H70.3142V89.8106H82.7174V73.8087Z" fill="#FFA305"/>
<path d="M82.7174 89.8106V73.8087H90L89.8868 89.8106H82.7174Z" fill="#CE730F"/>
<path d="M76.7999 73.8087H74.9468V77.4511H76.7999V73.8087Z" fill="#FFC766"/>
<path d="M64.5901 89.8106V73.8087H70.3142L70.2251 89.8106H64.5901Z" fill="#CE730F"/>
<path d="M70.9945 61.3256H61.805V73.8077H70.9945V61.3256Z" fill="#DE7F04"/>
<path d="M62.8777 73.8088V61.3256H55.638L55.7347 73.8088H62.8777Z" fill="#FFA305"/>
<path d="M67.3796 61.3256H65.9343V64.1661H67.3796V61.3256Z" fill="#FFC766"/>
<path d="M86.2928 61.3256H77.1033V73.8077H86.2928V61.3256Z" fill="#FF9810"/>
<path d="M77.1022 73.8088V61.3256H70.9352L71.0319 73.8088H77.1022Z" fill="#FF9810"/>
<path d="M86.2917 61.3256H80.7797V73.8077H86.2917V61.3256Z" fill="#DE7F04"/>
<path d="M64.8913 73.8087H52.043V89.8106H64.8913V73.8087Z" fill="#FF9810"/>
<path d="M59.3936 73.8087H57.5405V77.4511H59.3936V73.8087Z" fill="#FFC766"/>
<path d="M76.5164 61.3256H75.0699V64.1661H76.5164V61.3256Z" fill="#FFC766"/>
<path d="M77.8199 49.051H68.6304V61.5331H77.8199V49.051Z" fill="#CE730F"/>
<path d="M69.7042 61.5331V49.051H62.4634L62.5601 61.5331H69.7042Z" fill="#FF9810"/>
<path d="M74.206 49.051H72.7596V51.8916H74.206V49.051Z" fill="#FFC766"/>
<path d="M61.6094 4.42384C60.9368 0.41923 54.795 -1.3887 54.9181 1.22104L26.7814 1.3867C24.8327 1.39774 23.2522 3.15928 23.25 5.32283L23.1918 79.6854C23.1918 81.9274 24.7975 83.7596 26.7847 83.7773L55.5116 84.0247C55.6897 84.4002 56.0238 84.7425 56.5492 85.0286C59.8465 85.0993 61.4248 83.4647 62.0018 81.617C62.1964 81.0987 62.2933 80.5486 62.2875 79.9946C62.1677 79.0327 61.8171 5.36591 61.6094 4.42384Z" fill="#4D4D4D"/>
<path d="M56.2381 85.0461L23.2654 84.8319C21.2079 84.8186 19.5427 82.9367 19.5471 80.6351L19.6702 4.1598C19.6702 1.93551 21.3123 0.129782 23.3302 0.123155L55.6644 0.0127135C57.6988 0.00608701 59.3617 1.8107 59.3793 4.04494L59.9651 80.8726C59.9805 83.1907 58.3121 85.0605 56.2381 85.0461Z" fill="#4D4D4D"/>
<path d="M56.6931 84.4939C56.5551 84.5128 56.4159 84.5216 56.2766 84.5204L23.3115 84.2697C21.5442 84.2565 20.0989 82.6065 20.1011 80.5931L20.211 4.20175C20.211 2.26018 21.6398 0.676449 23.3709 0.667614L55.7028 0.526245C55.7534 0.526245 55.804 0.526245 55.8545 0.526245C56.2631 0.547859 56.6633 0.651654 57.0312 0.831497C57.3992 1.01134 57.7275 1.26357 57.9966 1.57323C58.5849 2.24446 58.909 3.10851 58.9078 4.00295L59.4859 80.909C59.5046 82.7357 58.3055 84.273 56.6931 84.4939Z" fill="#0D0D0D"/>
<path d="M57.779 4.39282L58.2418 81.0305L21.198 80.8074L21.2936 4.39282H57.779Z" fill="white"/>
<path d="M56.3754 59.2647L22.7971 59.2283V58.76L56.3754 58.7976V59.2647Z" fill="#04F2F5"/>
<path d="M56.3754 72.3807L22.7971 72.3454V71.876L56.3754 71.9135V72.3807Z" fill="#04F2F5"/>
<path d="M56.3754 45.8482L22.7971 45.8029V45.4164L56.3754 45.4628V45.8482Z" fill="#04F2F5"/>
<path d="M33.4748 43.7477L24.0566 43.7002V33.5385L33.4748 33.597V43.7477Z" fill="#04F2F5"/>
<path d="M44.436 43.8018L35.0432 43.7554V33.6069L44.436 33.6644V43.8018Z" fill="#04F2F5"/>
<path d="M55.1259 43.8558L45.755 43.8083V33.6731L55.1259 33.7305V43.8558Z" fill="#04F2F5"/>
<path d="M33.4748 57.375L24.0566 57.3419V47.1802L33.4748 47.2232V57.375Z" fill="#04F2F5"/>
<path d="M44.436 57.4115L35.0432 57.3794V47.231L44.436 47.274V57.4115Z" fill="#04F2F5"/>
<path d="M55.1259 57.4479L45.755 57.4159V47.2795L55.1259 47.3226V57.4479Z" fill="#04F2F5"/>
<path d="M33.4748 70.7639L24.0566 70.7462V60.5845L33.4748 60.6132V70.7639Z" fill="#04F2F5"/>
<path d="M44.436 70.7837L35.0432 70.7671V60.6176L44.436 60.6463V70.7837Z" fill="#04F2F5"/>
<path d="M55.1259 70.8037L45.755 70.786V60.6508L55.1259 60.6784V70.8037Z" fill="#04F2F5"/>
<path d="M31.347 41.2329L31.137 41.1655C31.137 41.149 31.5052 39.467 31.5338 38.8264C31.569 38.0533 31.3459 37.373 30.8875 36.8528C30.6098 36.5499 30.2717 36.3092 29.8952 36.1463C29.5188 35.9834 29.1124 35.902 28.7025 35.9074C27.8562 35.9074 27.1199 36.2067 26.6286 36.7634C26.1768 37.2758 25.9603 37.9782 26.0032 38.7955C26.0361 39.4416 26.3428 41.0662 26.3461 41.0827L26.1263 41.1291C26.1142 41.0618 25.8141 39.4725 25.7801 38.8098C25.7339 37.9263 25.9713 37.1632 26.4648 36.601C26.9979 35.9969 27.7914 35.6667 28.6981 35.6722C29.1382 35.6674 29.5743 35.7557 29.9782 35.9313C30.3821 36.1069 30.7447 36.366 31.0425 36.6916C31.5415 37.2614 31.7855 38.0036 31.7481 38.8407C31.7217 39.5078 31.3645 41.1656 31.347 41.2329Z" fill="#03ABB0"/>
<path d="M26.145 40.0324L26.4319 41.678C26.4425 41.7605 26.4838 41.836 26.5473 41.8894C26.6108 41.9428 26.692 41.9702 26.7748 41.9662L26.3725 39.6304C26.293 39.6589 26.2263 39.7152 26.1845 39.789C26.1428 39.8627 26.1288 39.9491 26.145 40.0324V40.0324Z" fill="#03ABB0"/>
<path d="M26.8121 41.9607L27.4276 41.8404L27.0209 39.5012L26.4054 39.6216L26.3713 39.6304L26.7736 41.9663C26.7866 41.9656 26.7994 41.9637 26.8121 41.9607Z" fill="#03ABB0"/>
<path d="M27.5904 42.07C27.5442 42.0777 27.497 42.076 27.4516 42.065C27.4061 42.054 27.3633 42.034 27.3257 42.0061C27.2881 41.9782 27.2564 41.9429 27.2326 41.9025C27.2088 41.8621 27.1933 41.8173 27.187 41.7707L26.8199 39.658C26.8005 39.5638 26.8184 39.4657 26.87 39.3846C26.9215 39.3035 27.0025 39.2459 27.0958 39.224V39.224C27.142 39.2163 27.1892 39.218 27.2347 39.2289C27.2803 39.2399 27.3231 39.26 27.3608 39.2879C27.3985 39.3158 27.4303 39.3509 27.4542 39.3914C27.4782 39.4318 27.4938 39.4767 27.5002 39.5233L27.8673 41.636C27.8864 41.7303 27.8682 41.8284 27.8165 41.9095C27.7648 41.9905 27.6836 42.0481 27.5904 42.07V42.07Z" fill="white"/>
<path d="M31.357 40.0843L31.0273 41.7166C31.0138 41.7982 30.9704 41.8717 30.9058 41.9228C30.8411 41.9739 30.7598 41.9988 30.6777 41.9927L31.1339 39.6735C31.2139 39.7036 31.2806 39.7617 31.3215 39.8372C31.3625 39.9126 31.3751 40.0003 31.357 40.0843V40.0843Z" fill="#03ABB0"/>
<path d="M30.6447 41.9861L30.0325 41.8414L30.4941 39.5221L31.1052 39.6668C31.1168 39.6689 31.1283 39.6722 31.1392 39.6767L30.6831 41.996L30.6447 41.9861Z" fill="#03ABB0"/>
<path d="M29.8644 42.0656C29.9101 42.0752 29.9573 42.0753 30.003 42.066C30.0488 42.0567 30.0922 42.0382 30.1306 42.0116C30.169 41.9849 30.2017 41.9507 30.2266 41.911C30.2515 41.8713 30.2681 41.827 30.2754 41.7807L30.6909 39.6823C30.711 39.5886 30.6947 39.4908 30.6455 39.4087C30.5963 39.3266 30.5178 39.2665 30.426 39.2405V39.2405C30.3803 39.231 30.3332 39.2309 30.2874 39.2402C30.2416 39.2494 30.1982 39.268 30.1598 39.2946C30.1214 39.3212 30.0887 39.3554 30.0638 39.3951C30.0389 39.4348 30.0223 39.4792 30.015 39.5255L29.5984 41.6239C29.5784 41.7177 29.5948 41.8157 29.6442 41.8978C29.6936 41.9799 29.7724 42.0399 29.8644 42.0656Z" fill="white"/>
<path d="M40.9278 37.2305L40.7069 37.6557L36.6743 37.6325V41.3588L42.8072 41.3908V37.712L42.5654 37.2404L40.9278 37.2305Z" fill="white"/>
<path d="M40.4497 37.8424L39.0352 37.8335V37.2195L40.4497 37.2283V37.8424Z" fill="white"/>
<path d="M38.5637 37.8313L37.1492 37.8235V37.2084L38.5637 37.2172V37.8313Z" fill="white"/>
<path d="M42.8072 40.6696L36.6743 40.6365V38.4862L42.8072 38.5204V40.6696Z" fill="#03ABB0"/>
<path d="M42.3808 39.5929C42.3808 40.4311 41.7521 41.1081 40.9751 41.1037C40.198 41.0993 39.5693 40.4168 39.5693 39.5774C39.5693 38.738 40.1991 38.0632 40.9751 38.0676C41.751 38.0721 42.3808 38.7546 42.3808 39.5929Z" fill="#03ABB0"/>
<path d="M42.0654 39.5917C42.0654 40.2411 41.5774 40.7657 40.9751 40.7624C40.3728 40.759 39.8859 40.2289 39.8859 39.5795C39.8859 38.9301 40.3739 38.4044 40.9751 38.4077C41.5763 38.411 42.0654 38.9412 42.0654 39.5917Z" fill="white"/>
<path d="M41.497 39.5884C41.4994 39.6596 41.4877 39.7306 41.4628 39.7973C41.4378 39.864 41.4 39.9251 41.3515 39.9771C41.303 40.0291 41.2448 40.071 41.1802 40.1004C41.1156 40.1298 41.0458 40.1461 40.975 40.1483C40.8319 40.1409 40.6974 40.0777 40.6001 39.972C40.5028 39.8664 40.4504 39.7268 40.454 39.5829C40.4513 39.5116 40.4627 39.4406 40.4875 39.3737C40.5123 39.3069 40.55 39.2457 40.5984 39.1936C40.6468 39.1414 40.705 39.0994 40.7696 39.0699C40.8342 39.0405 40.904 39.0241 40.975 39.0219C41.1184 39.029 41.2534 39.0923 41.3509 39.1982C41.4485 39.3041 41.5009 39.4441 41.497 39.5884V39.5884Z" fill="#4489C8"/>
<path d="M32.4098 68.6456C32.3614 67.6229 30.1973 66.979 30.1973 66.979C30.1973 66.979 28.219 64.6752 27.387 63.5211C25.9768 64.102 25.6405 64.8221 25.8482 66.0767C26.5363 65.4594 27.709 66.5936 29.1334 68.6379L32.4098 68.6456Z" fill="#03ABB0"/>
<path d="M25.8538 66.0767L26.3242 68.7417H26.5517C26.6143 67.5423 26.7561 66.1838 27.5068 66.6179C27.5068 65.5488 25.8538 65.5444 25.8538 66.0767Z" fill="#03ABB0"/>
<path d="M29.4038 48.7794C29.3613 48.6452 29.3337 48.5067 29.3214 48.3663H29.2115C29.2067 48.4781 29.1908 48.5891 29.1642 48.6977C29.0906 48.9892 28.8828 49.209 28.6366 49.2223C28.3915 49.2068 28.1838 48.9848 28.1102 48.6922C28.0826 48.5837 28.0663 48.4727 28.0618 48.3608H27.9519C27.9397 48.5008 27.9121 48.639 27.8695 48.7728C27.7654 49.0826 27.5934 49.3649 27.3661 49.5989L27.5343 51.2654H28.5861H28.6773H29.7291L29.8962 49.6011C29.6738 49.367 29.5057 49.0864 29.4038 48.7794V48.7794Z" fill="white"/>
<path d="M31.0909 55.6389C30.6238 56.1447 26.7792 56.1823 26.1967 55.6212C26.4593 54.0463 26.8034 52.5233 27.5463 51.2654L29.7445 51.2742C30.404 52.3654 30.7843 53.9381 31.0909 55.6389Z" fill="white"/>
<path d="M28.8323 51.6686C27.9431 51.6686 27.5222 51.2633 27.5046 51.2456C27.4986 51.2387 27.4952 51.2299 27.4952 51.2207C27.4952 51.2116 27.4986 51.2027 27.5046 51.1959C27.5075 51.1926 27.511 51.19 27.515 51.1881C27.519 51.1863 27.5233 51.1854 27.5277 51.1854C27.532 51.1854 27.5364 51.1863 27.5403 51.1881C27.5443 51.19 27.5479 51.1926 27.5508 51.1959C27.5508 51.1959 27.9728 51.5968 28.8345 51.6001C29.6039 51.6001 29.7138 51.2688 29.7138 51.2688C29.7146 51.2644 29.7164 51.2603 29.719 51.2566C29.7216 51.253 29.7249 51.25 29.7288 51.2478C29.7327 51.2456 29.7369 51.2442 29.7414 51.2439C29.7458 51.2435 29.7502 51.2441 29.7544 51.2456C29.7627 51.2488 29.7695 51.255 29.7736 51.2629C29.7776 51.2709 29.7786 51.28 29.7764 51.2887C29.7764 51.3041 29.6665 51.6763 28.8389 51.673L28.8323 51.6686Z" fill="#4489C8"/>
<path d="M28.7421 52.308C28.7277 52.307 28.7137 52.3026 28.7012 52.2951C28.6888 52.2876 28.6783 52.2773 28.6707 52.2649C28.5102 52.0528 28.9103 51.6531 28.9565 51.6078L29.029 51.5382L29.0114 51.6409C28.9861 51.7878 28.8938 52.2693 28.7608 52.3036L28.7421 52.308ZM28.9257 51.7403C28.8015 51.8806 28.6377 52.1092 28.7212 52.2207C28.7278 52.2296 28.7377 52.2395 28.7443 52.2373C28.7993 52.2218 28.8751 51.9855 28.9257 51.7403V51.7403Z" fill="#4489C8"/>
<path d="M28.9443 51.7193V51.6332C28.9443 51.6122 28.9575 51.1141 29.1378 50.9473C29.1595 50.9263 29.1858 50.9106 29.2146 50.9014C29.2434 50.8922 29.2739 50.8898 29.3037 50.8943C29.3283 50.8947 29.352 50.9028 29.3717 50.9175C29.3914 50.9321 29.4061 50.9526 29.4136 50.9761C29.4697 51.1572 29.0839 51.5769 29.0015 51.6597L28.9443 51.7193ZM29.2741 50.9628C29.2391 50.9628 29.2055 50.9767 29.1806 51.0015C29.0652 51.1119 29.0268 51.3935 29.0147 51.5426C29.1795 51.3593 29.3785 51.0942 29.3444 50.997C29.3444 50.997 29.3367 50.9705 29.2917 50.9639L29.2741 50.9628Z" fill="#4489C8"/>
<path d="M29.6016 52.2362C29.5953 52.2361 29.5892 52.2341 29.5839 52.2306C29.5786 52.2271 29.5745 52.2221 29.572 52.2163C29.5142 52.0881 29.4311 51.9731 29.3277 51.8782C29.2244 51.7833 29.103 51.7104 28.9708 51.6641C28.9621 51.6613 28.9549 51.6552 28.9506 51.6472C28.9463 51.6392 28.9453 51.6298 28.9477 51.621C28.9483 51.6166 28.9498 51.6123 28.9523 51.6085C28.9547 51.6047 28.9579 51.6015 28.9616 51.5991C28.9654 51.5967 28.9696 51.5951 28.9741 51.5945C28.9785 51.5939 28.983 51.5943 28.9873 51.5956C29.1288 51.6434 29.2589 51.7201 29.3696 51.8208C29.4802 51.9215 29.569 52.0441 29.6302 52.1809C29.6342 52.1892 29.635 52.1987 29.6324 52.2075C29.6297 52.2163 29.6238 52.2238 29.6159 52.2284L29.6016 52.2362Z" fill="#4489C8"/>
<path d="M38.657 49.8749C38.657 49.8749 39.3165 50.1101 40.2859 49.8473C40.9058 50.6557 39.8144 51.0423 39.1329 50.8667C38.4515 50.6911 38.657 49.8749 38.657 49.8749Z" fill="white"/>
<path d="M40.286 49.8473C40.2649 49.9561 40.2223 50.0596 40.1608 50.1516C40.0993 50.2436 40.02 50.3222 39.9277 50.3829C39.4639 50.6723 38.8648 50.3631 38.6571 49.8749C38.3437 49.9145 38.0356 49.9886 37.7383 50.0958V55.6687L41.3862 55.6819V50.1024C41.033 49.9664 40.6627 49.8805 40.286 49.8473V49.8473Z" fill="#03ABB0"/>
<path d="M37.7382 50.0914L36.1665 51.398L37.2007 52.8613L38.7395 51.6288L37.7382 50.0914Z" fill="#03ABB0"/>
<path d="M41.3981 50.1068L42.9698 51.4266L41.9378 52.88L40.3979 51.6353L41.3981 50.1068Z" fill="#03ABB0"/>
<path d="M46.9519 54.7775H46.8794V55.1088C46.8794 55.1088 50.8064 55.4103 52.3518 55.1287C53.8971 54.8471 54.0004 54.2982 54.0004 54.2982V53.9569H53.9476L46.9519 54.7775Z" fill="#03ABB0"/>
<path d="M53.9411 54.1226C53.5366 54.688 52.31 54.8581 50.7735 54.8791C50.1415 54.889 49.4546 54.8725 48.7556 54.8493C48.1588 54.8272 47.5466 54.8018 46.952 54.7819C46.8926 54.307 47.0487 53.4246 47.1718 52.9386C47.1962 52.8294 47.2292 52.7223 47.2707 52.6183L47.2938 52.6095C47.4993 52.9088 48.0005 53.0899 48.2984 53.0844C48.7842 53.0745 49.3315 52.7155 49.1776 52.2826C49.1539 52.2308 49.134 52.1773 49.1183 52.1225C48.993 51.6917 49.3381 51.6895 49.847 52.0264C50.5576 52.5108 51.3654 52.8324 52.2133 52.9685C52.3485 52.9916 52.476 53.0104 52.5969 53.0259C53.5124 53.1474 54.0235 53.1518 53.9411 54.1226Z" fill="white"/>
<path d="M53.8905 54.1226C53.485 54.688 52.2584 54.857 50.7219 54.8791C50.6779 54.6405 50.6394 54.0132 51.4297 53.8608C51.6647 53.8116 51.8863 53.7114 52.0788 53.5671C52.2713 53.4229 52.4301 53.2382 52.5441 53.0259C53.4586 53.1463 53.9719 53.1518 53.8905 54.1226Z" fill="#03ABB0"/>
<path d="M48.7038 54.8449C48.107 54.8228 47.4948 54.7973 46.9002 54.7775C46.8409 54.3026 46.9969 53.4201 47.12 52.9342C47.6289 53.1286 48.5335 53.6322 48.7038 54.8449Z" fill="#03ABB0"/>
<path d="M52.2111 52.964C52.0946 53.1595 51.9154 53.1651 51.7428 53.1651C50.1898 53.0546 49.4029 52.392 49.116 52.1181C48.9907 51.6874 49.3358 51.6851 49.8447 52.022C50.5553 52.5063 51.3631 52.828 52.2111 52.964V52.964Z" fill="#03ABB0"/>
<path d="M50.3668 54.9365C49.57 54.9365 48.7731 54.8857 48.1214 54.847C47.7195 54.8105 47.3157 54.798 46.9124 54.8095H46.8827L46.875 54.7454H46.9047C47.3121 54.7332 47.7199 54.7458 48.1258 54.783C49.9492 54.8934 53.341 55.0944 53.9246 53.9425L53.9389 53.9138L53.9916 53.9447L53.9773 53.9734C53.574 54.7664 51.9737 54.942 50.3668 54.9365Z" fill="#D4E7F7"/>
<path d="M51.5132 42.1142L49.5392 42.1043V35.6147L51.5132 35.6269V42.1142Z" fill="#03ABB0"/>
<path d="M52.1935 38.7767C52.1935 39.8193 51.412 40.6542 50.4481 40.6542C49.4842 40.6542 48.7028 39.8005 48.7028 38.7579C48.7028 37.7153 49.4842 36.8749 50.4481 36.8804C51.412 36.8859 52.1935 37.7352 52.1935 38.7767Z" fill="white"/>
<path d="M51.8472 38.7711C51.8472 39.6093 51.2186 40.2863 50.4426 40.2819C49.6666 40.2775 49.0369 39.5939 49.0369 38.7545C49.0369 37.9152 49.6666 37.2393 50.4426 37.2437C51.2186 37.2481 51.8472 37.9362 51.8472 38.7711Z" fill="#03ABB0"/>
<path d="M49.0193 37.923L48.7961 37.7518L49.0621 37.3442L49.2852 37.5154L49.0193 37.923Z" fill="white"/>
<path d="M48.8754 39.2482L48.605 39.2858L48.5435 38.7888L48.8149 38.7512L48.8754 39.2482Z" fill="white"/>
<path d="M51.8539 37.9296L52.0792 37.7639L51.8187 37.3486L51.5934 37.5143L51.8539 37.9296Z" fill="white"/>
<path d="M52.0022 39.2869L52.2726 39.3278L52.3341 38.833L52.0637 38.7921L52.0022 39.2869Z" fill="white"/>
<path d="M50.4459 38.8495L49.76 38.463C49.7443 38.4533 49.7328 38.4381 49.7277 38.4203C49.7226 38.4025 49.7244 38.3835 49.7326 38.3669C49.7362 38.359 49.7414 38.3518 49.7478 38.346C49.7543 38.3401 49.7619 38.3357 49.7701 38.3329C49.7784 38.3301 49.7871 38.329 49.7957 38.3297C49.8044 38.3305 49.8128 38.333 49.8205 38.3371L50.4393 38.6861L51.3109 38.0864C51.3181 38.0814 51.3263 38.0781 51.3349 38.0765C51.3435 38.075 51.3523 38.0753 51.3608 38.0774C51.3693 38.0794 51.3772 38.0833 51.3842 38.0886C51.3911 38.094 51.3968 38.1007 51.401 38.1084C51.4106 38.1243 51.4139 38.1433 51.4102 38.1615C51.4065 38.1797 51.3962 38.1958 51.3812 38.2067L50.4459 38.8495Z" fill="white"/>
<path d="M36.3666 67.2651C36.8011 67.3935 37.2468 67.4797 37.6976 67.5224C38.6464 67.6275 39.6015 67.6615 40.5553 67.624C41.4554 67.5854 42.2039 67.4738 42.4886 67.2794C42.4886 67.2794 43.0887 63.4328 39.5507 63.3378H39.4298C35.749 63.3289 36.3666 67.2651 36.3666 67.2651Z" fill="#03ABB0"/>
<path d="M37.6943 67.5257C38.643 67.6308 39.5982 67.6648 40.5519 67.6273C41.052 64.1329 39.6243 63.3786 39.5473 63.3411H39.4297C37.5591 64.4587 37.6503 66.968 37.6943 67.5257Z" fill="white"/>
<path d="M42.0994 67.4286C42.0994 67.4286 41.0992 69.2232 36.4545 68.808C34.4651 68.6302 36.3632 67.2684 36.3632 67.2684C37.6151 67.5964 40.0254 67.7488 42.0994 67.4286Z" fill="#03ABB0"/>
<path d="M49.327 64.4168L51.4669 64.4223C52.6847 64.4223 53.7025 65.4858 53.6948 66.8023C53.6948 67.3269 53.5365 67.7963 53.1617 68.037L47.5201 68.0249C47.1629 67.8449 47.0255 67.2198 47.1211 66.4721C47.2717 65.2881 48.2213 64.4145 49.327 64.4168Z" fill="#03ABB0"/>
<path d="M49.6512 64.4797V64.4587C49.663 64.2486 49.7529 64.0505 49.9032 63.9039C50.0534 63.7572 50.253 63.6726 50.4624 63.6668C50.672 63.6742 50.8713 63.7599 51.0214 63.9072C51.1714 64.0545 51.2613 64.2527 51.2735 64.4631V64.483H51.5494V64.4377C51.5032 63.8391 51.0262 63.3687 50.4646 63.3676C49.9029 63.3665 49.4259 63.8336 49.3787 64.4322V64.4775L49.6512 64.4797Z" fill="#03ABB0"/>
<path d="M50.2052 68.0304L49.6754 68.0282V65.7906L50.2052 65.7918V68.0304Z" fill="white"/>
<path d="M51.2527 68.0326L50.724 68.0315V65.7928L51.2527 65.7951V68.0326Z" fill="white"/>
<path d="M56.3754 32.2882L22.7971 32.2517V31.7823L56.3754 31.821V32.2882Z" fill="#04F2F5"/>
<path d="M33.4748 30.6703L24.0566 30.6537V20.4908L33.4748 20.5196V30.6703Z" fill="#04F2F5"/>
<path d="M44.436 30.6901L35.0432 30.6735V20.525L44.436 20.5526V30.6901Z" fill="#04F2F5"/>
<path d="M55.1259 30.71L45.755 30.6935V20.5571L55.1259 20.5858V30.71Z" fill="#04F2F5"/>
<path d="M32.4098 28.552C32.3614 27.5293 30.1973 26.8854 30.1973 26.8854C30.1973 26.8854 28.219 24.5816 27.387 23.4275C25.9768 24.0084 25.6405 24.7285 25.8482 25.9831C26.5363 25.3668 27.709 26.5 29.1334 28.5453L32.4098 28.552Z" fill="#03ABB0"/>
<path d="M25.8538 25.9831L26.3242 28.6481H26.5517C26.6143 27.4487 26.7561 26.0891 27.5068 26.5243C27.5068 25.4552 25.8538 25.4508 25.8538 25.9831Z" fill="#03ABB0"/>
<path d="M36.3666 27.1748C36.8013 27.3022 37.2469 27.3883 37.6976 27.4321C38.6464 27.5363 39.6016 27.5699 40.5553 27.5326C41.4554 27.4951 42.2039 27.3824 42.4886 27.188C42.4886 27.188 43.0887 23.3413 39.5507 23.2464H39.4298C35.749 23.2353 36.3666 27.1748 36.3666 27.1748Z" fill="#03ABB0"/>
<path d="M37.6942 27.4332C38.6429 27.5374 39.5981 27.5709 40.5518 27.5337C41.0519 24.0393 39.6242 23.285 39.5472 23.2474H39.4263C37.559 24.3651 37.6502 26.8744 37.6942 27.4332Z" fill="white"/>
<path d="M42.0994 27.3349C42.0994 27.3349 41.0992 29.1307 36.4545 28.7143C34.4651 28.5365 36.3632 27.1759 36.3632 27.1759C37.6151 27.5061 40.0254 27.6552 42.0994 27.3349Z" fill="#03ABB0"/>
<path d="M49.327 24.3242H51.4669C52.6847 24.3242 53.7025 25.3867 53.6948 26.7031C53.6948 27.2288 53.5365 27.6971 53.1617 27.9379L47.5201 27.9257C47.1629 27.7457 47.0255 27.1217 47.1211 26.3796C47.2717 25.1945 48.2213 24.3209 49.327 24.3242Z" fill="#03ABB0"/>
<path d="M49.6512 24.3861V24.3662C49.663 24.1559 49.7529 23.9578 49.9031 23.8109C50.0533 23.6641 50.2529 23.5792 50.4624 23.5732C50.672 23.5806 50.8713 23.6663 51.0214 23.8136C51.1714 23.9608 51.2613 24.1591 51.2735 24.3695V24.3905H51.5494V24.3452C51.5337 24.0631 51.4138 23.797 51.2131 23.5991C51.0125 23.4012 50.7455 23.2856 50.4646 23.275C49.9018 23.275 49.4259 23.7411 49.3787 24.3397V24.385L49.6512 24.3861Z" fill="#03ABB0"/>
<path d="M50.2052 27.9368L49.6754 27.9357V25.697L50.2052 25.6981V27.9368Z" fill="white"/>
<path d="M51.2527 27.939L50.724 27.9379V25.7003L51.2527 25.7014V27.939Z" fill="white"/>
<path d="M32.49 20.429L36.583 20.3959L49.7369 4.12122L45.6252 4.15545L32.49 20.429Z" fill="#F13005"/>
<path d="M36.583 20.3958L40.6727 20.3616L53.8475 4.08801L49.7369 4.12115L36.583 20.3958Z" fill="#F1E3E0"/>
<path d="M40.6729 20.3616L44.7659 20.3285L57.9561 4.05383L53.8477 4.08807L40.6729 20.3616Z" fill="#F13005"/>
<path d="M28.4004 20.4621L32.4901 20.429L45.6253 4.1554L41.518 4.18963L28.4004 20.4621Z" fill="#F1E3E0"/>
<path d="M20.2188 20.5295L24.3085 20.4964L37.4074 4.22278L33.299 4.25702L20.2188 20.5295Z" fill="#F1E3E0"/>
<path d="M8.34631 20.6266L12.0371 20.5968L25.08 4.32434L21.3771 4.35526L8.34631 20.6266Z" fill="#F13005"/>
<path d="M12.0371 20.5969L16.1257 20.5626L29.1884 4.29126L25.08 4.32439L12.0371 20.5969Z" fill="#F1E3E0"/>
<path d="M24.3083 20.4964L28.4003 20.4622L41.5179 4.1897L37.4073 4.22283L24.3083 20.4964Z" fill="#F13005"/>
<path d="M16.1257 20.5627L20.2187 20.5296L33.299 4.25708L29.1884 4.29132L16.1257 20.5627Z" fill="#F13005"/>
<path d="M40.6729 20.3627V22.8399C40.6729 25.464 44.7582 25.4309 44.7626 22.8057V20.3285L40.6729 20.3627Z" fill="#D62B04"/>
<path d="M36.5864 20.3959V22.8731C36.5864 25.4983 40.6717 25.4641 40.6739 22.84V20.3628L36.5864 20.3959Z" fill="#F1C5BC"/>
<path d="M32.49 20.429V22.9062C32.49 25.5314 36.5808 25.4983 36.5797 22.8731V20.3959L32.49 20.429Z" fill="#D62B04"/>
<path d="M28.4004 20.4632L28.407 22.9404C28.4147 25.5645 32.4989 25.5314 32.4945 22.9062V20.429L28.4004 20.4632Z" fill="#F1C5BC"/>
<path d="M24.3083 20.4964L24.3171 22.9736C24.3281 25.5988 28.4145 25.5645 28.4069 22.9405L28.4003 20.4633L24.3083 20.4964Z" fill="#D62B04"/>
<path d="M20.2188 20.5306L20.2308 23.0067C20.244 25.6319 24.3283 25.5987 24.3173 22.9735L24.3085 20.4963L20.2188 20.5306Z" fill="#F1C5BC"/>
<path d="M16.1257 20.5638L16.1411 23.041C16.1576 25.6651 20.244 25.6319 20.2308 23.0067L20.2187 20.5306L16.1257 20.5638Z" fill="#D62B04"/>
<path d="M12.0359 20.5969L12.0546 23.0741C12.0733 25.6993 16.1575 25.665 16.141 23.0409L16.1256 20.5637L12.0359 20.5969Z" fill="#F1C5BC"/>
<path d="M8.34631 20.6277L8.36719 23.1049C8.38807 25.729 12.0733 25.6992 12.0546 23.074L12.036 20.5968L8.34631 20.6277Z" fill="#D62B04"/>
<path d="M44.7658 20.3285L44.4448 20.3727L57.9735 20.2523L57.956 4.05383L44.7658 20.3285Z" fill="#F1E3E0"/>
<path d="M26.5 83.9816V86.9922H47.2091V90.0028H64.7824V86.9922V83.9816H26.5Z" fill="#0D0D0D"/>
<path d="M53.4805 83.9816H9.78723V86.9922H53.4805V83.9816Z" fill="#4D4D4D"/>
<path d="M51.1219 86.9922H1V90.0028H51.1219V86.9922Z" fill="#666666"/>
<path d="M25.8548 55.5582C24.8975 58.3789 25.4877 64.3593 24.1216 68.3032C22.0025 74.4216 23.0555 77.1186 22.0883 81.8378L24.3194 82.0068C26.3923 72.7429 31.0338 59.6258 31.6064 56.6417C32.179 53.6575 26.7539 53.2522 25.8548 55.5582Z" fill="#014A91"/>
<path d="M29.3719 59.003C29.4642 60.1008 30.9535 66.4214 30.0962 69.4386C28.7443 74.2042 29.4499 82.5271 29.4499 82.5271L31.247 82.5149C32.9967 74.784 35.3839 63.519 35.1938 56.4065C34.93 53.4147 28.8125 52.3688 29.3719 59.003Z" fill="#014A91"/>
<path d="M30.4259 60.1427C33.0585 60.1427 35.1927 58.514 35.1927 56.5048C35.1927 54.4956 33.0585 52.8668 30.4259 52.8668C27.7933 52.8668 25.6592 54.4956 25.6592 56.5048C25.6592 58.514 27.7933 60.1427 30.4259 60.1427Z" fill="#014A91"/>
<path d="M31.9537 86.3869C31.765 86.3006 31.5684 86.233 31.3668 86.1848L30.981 84.4708L32.989 75.1197L29.162 74.7563L29.1719 83.8291L28.8894 84.8772C28.8894 84.8772 30.1962 86.832 30.4952 86.832C30.7941 86.832 31.9504 86.8552 32.1339 86.8552C32.1361 86.7392 32.1185 86.4819 31.9537 86.3869Z" fill="#A64B30"/>
<path d="M28.8894 84.8773L29.162 86.9492H29.2851L30.1962 84.7944L28.8894 84.8773Z" fill="#A64B30"/>
<path d="M24.5722 86.387C24.3878 86.3004 24.1952 86.2327 23.9974 86.1849L23.716 84.4708L26.2758 74.6979L22.7301 74.3047L21.9465 83.8292L21.564 84.7955C21.564 84.7955 22.7873 86.8321 23.0862 86.8321C23.3852 86.8321 24.5403 86.8553 24.7239 86.8553C24.7326 86.7393 24.7315 86.482 24.5722 86.387Z" fill="#A64B30"/>
<path d="M21.564 84.7944L21.7464 86.9492H21.8695L22.9114 84.7944H21.564Z" fill="#A64B30"/>
<path d="M27.6981 51.9136C26.5012 53.3494 25.9275 54.7995 25.7065 56.1745C25.7065 56.1745 27.2607 57.3695 30.0524 57.3805C31.4592 57.3805 34.4487 57.0249 35.1774 56.201C34.9723 54.5871 34.5897 53.001 34.0366 51.4719C33.3156 49.4342 28.7532 49.2376 27.6981 51.9136Z" fill="#014A91"/>
<path d="M29.3576 56.994C29.5403 56.3175 29.653 55.624 29.6939 54.9243L26.8231 54.6747C26.7208 55.3352 26.6518 56.0006 26.6165 56.6682L27.8408 57.5959L29.3576 56.994Z" fill="#0D64B8"/>
<path d="M33.577 57.1729C33.7241 56.4876 33.8 55.7888 33.8034 55.0878L30.9238 54.9917C30.8562 55.657 30.8228 56.3253 30.8237 56.994L32.0954 57.8543L33.577 57.1729Z" fill="#0D64B8"/>
<path d="M28.5004 42.9105C28.5004 42.9105 26.0242 41.0794 21.1069 49.2631C20.4815 50.3023 18.3591 55.2788 18.3591 55.2788L19.6352 56.1171L23.4501 50.6845C23.4501 50.6845 31.091 44.2579 28.5004 42.9105Z" fill="#F7A58E"/>
<path d="M17.3676 59.0019C17.3615 59.0003 17.3558 58.9973 17.3511 58.993C17.3446 58.9864 17.341 58.9775 17.341 58.9682C17.341 58.9589 17.3446 58.9499 17.3511 58.9433C17.3654 58.929 18.7151 57.5076 18.6524 56.6992C18.649 56.6271 18.6298 56.5566 18.5962 56.4929C18.5626 56.4291 18.5154 56.3736 18.4579 56.3303C17.6523 55.7151 15.5937 57.8599 15.5728 57.8765C15.5662 57.883 15.5573 57.8867 15.5481 57.8867C15.5388 57.8867 15.5299 57.883 15.5233 57.8765C15.5168 57.8699 15.5132 57.8609 15.5132 57.8516C15.5132 57.8423 15.5168 57.8334 15.5233 57.8268C15.6102 57.7362 17.6468 55.6179 18.5008 56.2684C18.5661 56.3176 18.6198 56.3808 18.6578 56.4533C18.6958 56.5259 18.7173 56.6062 18.7206 56.6881C18.7854 57.5308 17.4577 58.9268 17.4017 58.9864C17.3979 58.9918 17.3927 58.996 17.3867 58.9987C17.3807 59.0015 17.3741 59.0025 17.3676 59.0019Z" fill="#103558"/>
<path d="M16.6709 58.5182C16.6623 58.5163 16.6548 58.5111 16.65 58.5038C16.6473 58.5001 16.6454 58.4958 16.6444 58.4913C16.6433 58.4868 16.6432 58.4822 16.6441 58.4776C16.6449 58.4731 16.6466 58.4688 16.6491 58.4649C16.6517 58.4611 16.6549 58.4578 16.6588 58.4552C16.6752 58.4431 18.3832 57.2337 18.3975 56.4982C18.4009 56.4336 18.3877 56.3692 18.3593 56.3112C18.3308 56.2532 18.2879 56.2035 18.2349 56.1669C17.4259 55.5495 14.8958 57.3817 14.8705 57.3961C14.8668 57.3988 14.8625 57.4009 14.858 57.402C14.8535 57.4031 14.8488 57.4033 14.8442 57.4026C14.8396 57.4019 14.8352 57.4002 14.8312 57.3978C14.8273 57.3953 14.8238 57.3921 14.8211 57.3883C14.8158 57.3808 14.8137 57.3716 14.8151 57.3625C14.8166 57.3534 14.8215 57.3452 14.8288 57.3397C14.9387 57.2624 17.427 55.4622 18.2766 56.1105C18.3376 56.1535 18.387 56.211 18.4204 56.2779C18.4538 56.3448 18.4701 56.419 18.4679 56.4938C18.4525 57.2669 16.7698 58.4563 16.6983 58.5071C16.6948 58.5108 16.6905 58.5138 16.6858 58.5157C16.6811 58.5176 16.676 58.5184 16.6709 58.5182V58.5182Z" fill="#103558"/>
<path d="M13.3614 56.2374L6.14697 64.8441L8.6485 66.5085L14.6748 57.1121L13.3614 56.2374Z" fill="#F05B5B"/>
<path d="M14.9826 57.3176L8.63647 66.5008L12.7438 69.2343L18.3162 59.5353L14.9826 57.3176Z" fill="#E54547"/>
<path d="M14.3308 56.8835L8.44189 64.4355L8.64852 66.5085L14.9936 57.3242L14.3308 56.8835Z" fill="#F1696A"/>
<path d="M8.44188 64.4355L6.13379 64.8354L8.63642 66.5008L8.44188 64.4355Z" fill="#F05B5B"/>
<path d="M15.9794 58.1515L9.94434 67.9057L12.714 69.2199L17.4346 58.8417L15.9794 58.1515Z" fill="#4CC3D1"/>
<path d="M17.7754 59.004L12.7009 69.2133L17.2479 71.3713L21.4651 60.7545L17.7754 59.004Z" fill="#26BDC5"/>
<path d="M17.0534 58.6605L12.2031 67.1557L12.7142 69.2198L17.7865 59.0084L17.0534 58.6605Z" fill="#6FCBD8"/>
<path d="M12.2031 67.1558L9.93018 67.899L12.701 69.2133L12.2031 67.1558Z" fill="#4CC3D1"/>
<path d="M19.6857 56.0309L19.2263 56.8427C19.2263 56.8427 19.6209 57.2369 19.4461 57.4976C18.957 58.0498 17.737 57.8532 17.4842 57.6312C17.2314 57.4092 16.9874 56.8338 17.182 56.4009C17.3765 55.968 18.3536 55.2788 18.3536 55.2788C18.3536 55.2788 19.5505 55.5395 19.6857 56.0309Z" fill="#F7A58E"/>
<path d="M31.514 44.9073L28.0112 45.0156L28.7377 39.1014L31.5404 39.0142L31.514 44.9073Z" fill="#F7A58E"/>
<path d="M33.4441 36.771C33.7354 39.1378 33.2408 40.917 31.5262 41.0959C29.8116 41.2748 27.4222 39.2383 27.2332 37.4204C27.0441 35.6026 28.2828 33.9835 29.9985 33.8046C31.7142 33.6256 33.221 34.9576 33.4441 36.771Z" fill="#F7A58E"/>
<path d="M32.8835 37.3266C32.9154 37.4941 32.8798 37.6675 32.7846 37.8087C32.6894 37.95 32.5423 38.0474 32.3757 38.0798C32.209 38.1116 32.0366 38.0757 31.8961 37.9801C31.7557 37.8845 31.6586 37.7369 31.6261 37.5696C31.6102 37.4866 31.6107 37.4013 31.6275 37.3185C31.6444 37.2357 31.6774 37.1571 31.7246 37.0872C31.7717 37.0172 31.8322 36.9573 31.9024 36.9108C31.9726 36.8643 32.0513 36.8322 32.1339 36.8164C32.2165 36.8003 32.3014 36.8008 32.3837 36.8178C32.4661 36.8348 32.5443 36.8679 32.614 36.9153C32.6836 36.9627 32.7432 37.0234 32.7895 37.094C32.8357 37.1645 32.8677 37.2436 32.8835 37.3266Z" fill="#F7A58E"/>
<path d="M34.4255 46.8191C34.4101 47.4817 34.3585 52.361 34.3585 52.361C34.3585 52.361 30.2918 52.1059 27.5815 52.0595C26.3439 46.8588 24.8206 44.3882 27.8595 42.6587C32.1559 41.0363 34.4431 44.5042 34.4255 46.8191Z" fill="#0386C2"/>
<path d="M32.2032 42.3705C29.0554 43.413 27.8596 42.6587 27.8596 42.6587C28.5378 42.1297 31.0657 41.7531 32.2032 42.3705Z" fill="#F7A58E"/>
<path d="M20.5111 60.4332C20.5044 60.4315 20.4983 60.4279 20.4936 60.4228C20.489 60.4177 20.4859 60.4113 20.4848 60.4044C20.4848 60.3801 20.0451 57.9195 19.2043 56.8449C19.2015 56.8412 19.1994 56.837 19.1982 56.8325C19.197 56.828 19.1967 56.8233 19.1973 56.8187C19.1979 56.8141 19.1995 56.8096 19.2018 56.8056C19.2041 56.8016 19.2072 56.798 19.2109 56.7952C19.2145 56.7923 19.2187 56.7901 19.2231 56.7889C19.2275 56.7876 19.2322 56.7872 19.2368 56.7877C19.2414 56.7882 19.2458 56.7896 19.2499 56.7918C19.2539 56.7941 19.2575 56.7971 19.2604 56.8007C20.11 57.8897 20.5496 60.368 20.554 60.3923C20.5556 60.4015 20.5535 60.411 20.5481 60.4187C20.5428 60.4263 20.5346 60.4315 20.5254 60.4332C20.5207 60.4343 20.5158 60.4343 20.5111 60.4332V60.4332Z" fill="#103558"/>
<path d="M18.4217 59.4524C18.4155 59.4517 18.4098 59.449 18.4052 59.4446C18.3921 59.4314 17.0314 58.1193 17.0863 56.6836C17.0865 56.679 17.0875 56.6745 17.0895 56.6703C17.0914 56.6661 17.0941 56.6624 17.0975 56.6593C17.1009 56.6562 17.1048 56.6538 17.1091 56.6523C17.1135 56.6508 17.1181 56.6502 17.1226 56.6505C17.1272 56.6506 17.1318 56.6517 17.136 56.6536C17.1402 56.6555 17.144 56.6582 17.1472 56.6616C17.1503 56.665 17.1528 56.669 17.1544 56.6733C17.1561 56.6776 17.1568 56.6823 17.1567 56.6869C17.1083 58.0851 18.4459 59.3773 18.4591 59.3894C18.4656 59.396 18.4693 59.405 18.4693 59.4143C18.4693 59.4236 18.4656 59.4325 18.4591 59.4391C18.4553 59.4452 18.4495 59.4499 18.4427 59.4523C18.4359 59.4547 18.4285 59.4547 18.4217 59.4524V59.4524Z" fill="#103558"/>
<path d="M46.3683 40.6763C46.9179 40.0821 47.2773 39.531 47.1707 39.4283C47.064 39.3256 46.5332 39.711 45.9693 40.2953C45.5847 40.7039 46.0749 40.9369 46.3683 40.6763Z" fill="#F7A58E"/>
<path d="M46.1628 40.1097L44.812 41.2042L43.1161 42.3274C41.8181 43.1877 40.2584 43.9608 39.4979 44.4656C39.4979 44.4656 36.97 43.5412 34.4981 42.9127C32.5197 42.4102 30.5513 42.3517 30.2117 43.2584C29.5137 45.1227 31.6877 46.0913 35.1938 46.6766C36.9744 46.9836 39.0956 47.2288 39.7331 46.861C40.908 46.1741 42.5841 45.094 44.0756 43.5279C44.5559 43.0254 44.9856 42.5582 45.3209 42.1805C45.3775 42.2047 45.437 42.2217 45.4978 42.2313C45.4978 42.2313 46.5562 42.1352 46.7541 41.5245C46.9244 40.8563 46.2166 40.1628 46.1628 40.1097Z" fill="#F7A58E"/>
<path d="M35.4532 42.9823C35.4532 42.9823 35.8192 43.688 35.5466 45.1679C35.4373 45.7564 35.1779 46.3063 34.7938 46.7638C33.0022 46.4999 29.5511 45.6307 29.9171 43.3501C30.2831 41.0694 35.4532 42.9823 35.4532 42.9823Z" fill="#0386C2"/>
<path d="M28.4268 42.2313C28.4268 42.2313 25.878 42.6344 23.9502 45.1801C24.6521 46.3155 25.6234 47.2581 26.7771 47.9235C26.7771 47.9235 29.6863 45.8538 29.9754 44.132C30.2645 42.4102 28.4268 42.2313 28.4268 42.2313Z" fill="#0386C2"/>
<path d="M34.2168 35.3652C34.242 33.9062 33.1364 33.5462 33.1364 33.5462C33.62 31.8818 31.4174 30.8172 29.328 31.8896C29.328 31.8896 28.4828 31.3992 27.0485 32.2816C25.091 33.4402 25.2899 35.8765 25.2899 35.8765C23.028 36.5337 22.1367 38.5746 22.795 40.4046C22.795 40.4046 20.1572 41.4141 20.61 44.1022C21.0628 46.7904 23.2874 47.0632 23.2874 47.0632C23.2874 47.0632 23.8996 51.0667 26.9221 50.7398C29.9446 50.4129 30.0864 47.9367 30.0864 47.9367C30.0864 47.9367 32.5582 48.807 33.6386 46.0592C34.7191 43.3114 32.0999 41.794 32.0999 41.794C32.0999 41.794 33.687 41.0783 33.6606 39.3532C33.6554 38.9382 33.5561 38.5297 33.3702 38.159C33.1844 37.7884 32.9168 37.4651 32.5879 37.214C33.5958 36.6662 34.2025 36.1758 34.2168 35.3652Z" fill="#0D0D0D"/>
<path d="M17 33.1796V37.1675C16.9996 37.4213 16.9521 37.6726 16.8605 37.9067C16.7689 38.1409 16.6348 38.3534 16.466 38.532C16.2973 38.7106 16.0971 38.8518 15.8771 38.9475C15.6571 39.0432 15.4215 39.0914 15.184 39.0895C14.1042 39.0809 12.4553 39.0698 10.0078 39.0624V41.0028L7.59717 39.0575C6.00929 39.0575 4.16789 39.0575 2.04073 39.0575C1.4995 39.0575 0.98043 38.8278 0.597718 38.4188C0.215005 38.0099 3.25724e-07 37.4553 3.25724e-07 36.877V33.1833C-0.00015104 32.8971 0.0524546 32.6137 0.154814 32.3492C0.257172 32.0848 0.407278 31.8444 0.596564 31.642C0.78585 31.4395 1.01061 31.2788 1.258 31.1692C1.5054 31.0595 1.7706 31.003 2.03844 31.0028H14.9604C15.5009 31.0031 16.0191 31.2325 16.4015 31.6406C16.7838 32.0487 16.9991 32.6022 17 33.1796V33.1796Z" fill="#12B8FF"/>
<path d="M5.5 35.0028C5.5 35.268 5.39465 35.5224 5.20711 35.7099C5.01958 35.8975 4.76522 36.0028 4.5 36.0028C4.23478 36.0028 3.98044 35.8975 3.79291 35.7099C3.60537 35.5224 3.5 35.268 3.5 35.0028C3.5 34.7376 3.60537 34.4833 3.79291 34.2957C3.98044 34.1082 4.23478 34.0028 4.5 34.0028C4.76522 34.0028 5.01958 34.1082 5.20711 34.2957C5.39465 34.4833 5.5 34.7376 5.5 35.0028Z" fill="white"/>
<path d="M9.5 35.0028C9.5 35.268 9.39465 35.5224 9.20711 35.7099C9.01958 35.8975 8.76522 36.0028 8.5 36.0028C8.23478 36.0028 7.98042 35.8975 7.79289 35.7099C7.60535 35.5224 7.5 35.268 7.5 35.0028C7.5 34.7376 7.60535 34.4833 7.79289 34.2957C7.98042 34.1082 8.23478 34.0028 8.5 34.0028C8.76522 34.0028 9.01958 34.1082 9.20711 34.2957C9.39465 34.4833 9.5 34.7376 9.5 35.0028Z" fill="white"/>
<path d="M13.5 35.0028C13.5 35.268 13.3946 35.5224 13.2071 35.7099C13.0196 35.8975 12.7652 36.0028 12.5 36.0028C12.2348 36.0028 11.9804 35.8975 11.7929 35.7099C11.6054 35.5224 11.5 35.268 11.5 35.0028C11.5 34.7376 11.6054 34.4833 11.7929 34.2957C11.9804 34.1082 12.2348 34.0028 12.5 34.0028C12.7652 34.0028 13.0196 34.1082 13.2071 34.2957C13.3946 34.4833 13.5 34.7376 13.5 35.0028V35.0028Z" fill="white"/>
</svg>
