<svg width="31" height="28" viewBox="0 0 31 28" fill="none" xmlns="http://www.w3.org/2000/svg">
<path d="M27.1253 24.92H3.87513C2.72454 24.92 1.78857 24.0405 1.78857 22.96V14C1.78857 13.5361 2.18889 13.16 2.68281 13.16C3.17673 13.16 3.57705 13.5361 3.57705 14V22.96C3.57705 23.1118 3.71357 23.24 3.87513 23.24H27.1253C27.2869 23.24 27.4234 23.1118 27.4234 22.96V14.56C27.4234 14.0961 27.8237 13.72 28.3176 13.72C28.8115 13.72 29.2119 14.0961 29.2119 14.56V22.96C29.2119 24.0408 28.2759 24.92 27.1253 24.92Z" fill="white"/>
<path d="M25.9329 10.3601H5.66352C5.16961 10.3601 4.76929 9.98401 4.76929 9.52005C4.76929 9.05609 5.16961 8.68005 5.66352 8.68005H25.9329C26.4268 8.68005 26.8271 9.05609 26.8271 9.52005C26.8271 9.98401 26.4268 10.3601 25.9329 10.3601Z" fill="white"/>
<path d="M28.9136 10.36H2.08653C1.47725 10.36 0.94697 10.1164 0.632199 9.69135C0.317129 9.26631 0.257811 8.71499 0.469149 8.17795L3.06035 1.59908C3.41924 0.687399 4.47026 0 5.5049 0H25.8059C26.8521 0 27.8921 0.702519 28.226 1.6338L30.5733 8.19083C30.7659 8.72843 30.6917 9.27807 30.3701 9.69835C30.0487 10.1189 29.5175 10.36 28.9136 10.36ZM2.17833 8.67999H28.8618L26.5308 2.16916C26.4441 1.92696 26.078 1.68 25.8059 1.68H5.5049C5.22261 1.68 4.83541 1.93312 4.73764 2.18204L2.17833 8.67999Z" fill="white"/>
<path d="M25.3369 22.4H14.308C13.9789 22.4 13.7118 22.1491 13.7118 21.84V13.44C13.7118 13.1306 13.9789 12.88 14.308 12.88C14.637 12.88 14.9041 13.1306 14.9041 13.44V21.28H24.7407V14.28C24.7407 13.9706 25.0078 13.72 25.3369 13.72C25.666 13.72 25.933 13.9706 25.933 14.28V21.84C25.933 22.1494 25.666 22.4 25.3369 22.4Z" fill="white"/>
<path d="M17.7615 21.4441L18.6046 22.2361L25.7584 15.5162L24.9153 14.7242L17.7615 21.4441Z" fill="white"/>
<path d="M11.6251 24.36H5.66354C5.33446 24.36 5.06738 24.1091 5.06738 23.8V14.28C5.06738 13.9706 5.33446 13.72 5.66354 13.72C5.99262 13.72 6.2597 13.9706 6.2597 14.28V23.24H11.029V14.28C11.029 13.9706 11.296 13.72 11.6251 13.72C11.9542 13.72 12.2213 13.9706 12.2213 14.28V23.8C12.2213 24.1094 11.9542 24.36 11.6251 24.36Z" fill="white"/>
<path d="M26.4608 14.84C24.9394 14.84 23.6246 14.0608 22.9154 12.882C22.1369 14.0426 20.7263 14.84 19.1704 14.84C17.6225 14.84 16.2519 14.032 15.5037 12.8338C14.7642 14.032 13.4097 14.84 11.88 14.84C10.3118 14.84 8.88993 14.0488 8.10091 12.8952C7.40877 14.0762 6.11809 14.84 4.58924 14.84C2.38346 14.84 0.540732 13.2186 0.364567 11.1771C0.32224 11.1004 0.298096 11.0127 0.298096 10.9201V9.24005C0.298096 8.93065 0.565175 8.68005 0.894254 8.68005H30.106C30.4351 8.68005 30.7022 8.93065 30.7022 9.24005V10.9201C30.7022 10.9461 30.7004 10.9716 30.6965 10.9962C30.6172 13.1217 28.7316 14.84 26.4608 14.84ZM22.9521 10.3601C23.277 10.3601 23.542 10.6045 23.548 10.9097C23.5796 12.5118 24.8318 13.72 26.4605 13.72C28.1095 13.72 29.4759 12.4592 29.5063 10.9097C29.5066 10.8926 29.5078 10.8758 29.5095 10.859V9.80005H1.49041V10.6885C1.5232 10.756 1.54198 10.831 1.54347 10.9097C1.57417 12.4592 2.94027 13.72 4.58894 13.72C6.18963 13.72 7.4204 12.5118 7.45199 10.9097C7.45796 10.6045 7.72295 10.3601 8.04815 10.3601C8.37336 10.3601 8.63805 10.6045 8.64431 10.9097C8.67442 12.4329 10.1562 13.72 11.88 13.72C13.5158 13.72 14.8727 12.4161 14.9043 10.8134C14.9102 10.5082 15.1752 10.2637 15.5004 10.2637C15.8253 10.2637 16.0903 10.5082 16.0963 10.8134C16.1276 12.3889 17.5354 13.72 19.1704 13.72C20.8673 13.72 22.3261 12.4329 22.3562 10.9097C22.3622 10.6045 22.6272 10.3601 22.9521 10.3601Z" fill="white"/>
<path d="M15.5003 11.2801C15.1713 11.2801 14.9042 11.0292 14.9042 10.7201V0.840029C14.9042 0.530909 15.1713 0.280029 15.5003 0.280029C15.8294 0.280029 16.0965 0.530909 16.0965 0.840029V10.7201C16.0965 11.0295 15.8294 11.2801 15.5003 11.2801Z" fill="white"/>
<path d="M22.9523 11.54C22.6232 11.54 22.3561 11.2891 22.3561 10.98V9.00683L20.2863 0.971962C20.2088 0.671242 20.4055 0.368563 20.7257 0.295763C21.0446 0.222963 21.3677 0.407763 21.4452 0.708482L23.5318 8.80859C23.5428 8.85143 23.5485 8.89595 23.5485 8.94019V10.98C23.5485 11.2891 23.2814 11.54 22.9523 11.54Z" fill="white"/>
<path d="M8.04818 12.32C7.71911 12.32 7.45203 12.0691 7.45203 11.76V8.94013C7.45203 8.88973 7.45918 8.83961 7.47349 8.79089L9.85812 0.690783C9.94576 0.392863 10.2739 0.218984 10.5917 0.300463C10.9089 0.383063 11.0951 0.691343 11.0075 0.989543L8.64434 9.01601V11.76C8.64434 12.0694 8.37726 12.32 8.04818 12.32Z" fill="white"/>
<path d="M30.106 28H0.894254C0.565175 28 0.298096 27.7492 0.298096 27.44V24.36C0.298096 24.0509 0.565175 23.8 0.894254 23.8H30.106C30.4351 23.8 30.7022 24.0509 30.7022 24.36V27.44C30.7022 27.7494 30.4351 28 30.106 28ZM1.49041 26.88H29.5098V24.92H1.49041V26.88Z" fill="white"/>
<path d="M30.1061 28H0.894342C0.400425 28 0.000104841 27.6239 0.000104841 27.16V24.08C0.000104841 23.616 0.400425 23.24 0.894342 23.24H1.78858V14.5443C0.787034 13.7373 0.0802881 12.3023 0.053461 10.9351L0.000403041 9.26463C-0.00317391 9.15319 0.0170953 9.04203 0.0597206 8.93787L3.07092 1.59068C3.41907 0.690199 4.32881 0 5.36553 0H25.933C26.981 0 27.8923 0.704759 28.221 1.6394L30.9497 8.96195C30.9827 9.05099 31 9.14479 31 9.23943V10.9194C31 10.9527 30.9979 10.9855 30.9938 11.018C30.9404 12.3998 30.2346 13.7819 29.2116 14.5717L29.2119 23.24H30.1061C30.6 23.24 31 23.6154 31 24.0794V27.1594C31.0003 27.6239 30.6 28 30.1061 28ZM1.78858 26.32H29.2119V24.92H28.3176C27.8237 24.92 27.4234 24.5439 27.4234 24.08V14.14C27.4234 13.8437 27.5894 13.5696 27.8604 13.4181C28.5966 13.0065 29.1889 11.9025 29.2086 10.9043C29.2089 10.8847 29.2101 10.8648 29.2119 10.8452V9.38251L26.5285 2.18064C26.4385 1.92556 26.0767 1.67972 25.8063 1.67972H5.50503C5.22483 1.67972 4.8418 1.93172 4.74642 2.17924L1.79365 9.38363L1.84164 10.8945C1.86131 11.8927 2.4369 12.9923 3.15259 13.4072C3.41639 13.5607 3.57705 13.9888 3.57705 14.28V23.8C3.57705 24.2639 3.17673 24.92 2.68282 24.92H1.78858V26.32Z" fill="white"/>
<path d="M9.83688 19.0399C10.1661 19.0399 10.433 18.7892 10.433 18.4799C10.433 18.1706 10.1661 17.9199 9.83688 17.9199C9.50763 17.9199 9.24072 18.1706 9.24072 18.4799C9.24072 18.7892 9.50763 19.0399 9.83688 19.0399Z" fill="white"/>
<path d="M14.6057 22.3998C14.392 22.3998 14.1777 22.3284 14.0066 22.1834C13.6402 21.8726 13.6113 21.3412 13.9425 20.997L22.2887 12.317C22.6196 11.9724 23.1853 11.9458 23.5516 12.2566C23.918 12.5674 23.9469 13.0988 23.6157 13.4429L15.2695 22.1229C15.0931 22.3066 14.8498 22.3998 14.6057 22.3998Z" fill="white"/>
</svg>
