<svg width="90" height="90" viewBox="0 0 90 90" fill="none" xmlns="http://www.w3.org/2000/svg">
<circle cx="45" cy="45" r="45" fill="#EE1D02"/>
<path d="M53.7174 48.4509C55.0838 49.3604 62.5068 50.5583 72.1274 41.8753C82.1012 32.8722 88.3116 23.9374 89.6788 20.3595C91.0178 16.8583 87.2992 9.62244 79.0201 13.5546C73.5769 16.1389 62.0239 24.0124 56.3721 32.7196C50.5823 41.6377 50.534 46.3335 53.7174 48.4509Z" fill="#FFA227"/>
<path d="M89.5026 19.3908C88.5576 22.1343 86.5936 24.19 84.9803 26.5691C83.2233 29.1676 81.0789 31.3767 79.1722 33.8042C77.1775 36.3425 74.4795 38.024 72.218 40.2606C71.115 41.3518 70.2806 42.6664 68.9482 43.5467C67.5477 44.4712 66.0999 45.214 64.6645 46.0634C63.2124 46.9229 62.0048 47.3614 60.5087 47.8216C59.7981 48.04 59.1099 48.2267 58.3643 48.4051C57.8407 48.5326 57.4983 48.8027 57.1434 49.0786C60.468 49.0245 65.8497 47.5898 72.1814 41.8753C82.1552 32.8722 88.3656 23.9374 89.7328 20.3587C90.0154 19.6201 90.0728 18.7148 89.9099 17.7836C89.7378 18.418 89.6115 19.0732 89.5026 19.3908Z" fill="#D88921"/>
<path opacity="0.6" d="M79.0692 13.6388C73.626 16.2231 62.0738 24.0966 56.4211 32.8038C52.2005 39.3061 51.0319 43.5576 51.9412 46.2127C52.2737 46.3469 52.7042 46.4127 53.2661 46.3902C56.4685 46.2652 60.6567 45.1631 62.6024 42.8056C64.5681 40.4231 66.1498 39.1294 69.1619 38.1023C71.1043 37.4396 72.1765 34.0109 73.9601 32.9906C76.7253 31.4067 78.9237 28.8966 79.9311 25.8331C80.7564 23.3255 81.1703 22.0193 83.2948 20.292C84.7618 19.0999 85.745 18.1312 87.1837 16.865C87.901 16.2331 88.3598 15.5703 88.5551 14.8643C86.8546 12.7143 83.6646 11.4564 79.0692 13.6388Z" fill="#F5892F"/>
<path d="M63.9006 28.99C66.5263 29.1726 73.5337 32.1578 73.5337 32.1578C73.5337 32.1578 71.2131 27.7512 68.4944 26.7175C66.9003 26.1123 64.288 25.7547 62.3988 25.563C61.0659 26.857 59.8064 28.2249 58.6262 29.6602C59.8347 29.2768 61.7563 28.8408 63.9006 28.99Z" fill="#E8B964"/>
<path d="M68.4961 26.7176C66.902 26.1115 64.2888 25.7547 62.4004 25.5622C62.2483 25.7105 62.0979 25.8606 61.9474 26.0098C63.8234 26.2057 66.3476 26.56 67.9027 27.151C69.8467 27.8896 71.588 30.3538 72.4216 31.6976C73.1065 31.9744 73.5354 32.1569 73.5354 32.1569C73.5354 32.1569 71.2148 27.7504 68.4961 26.7176Z" fill="#C17829"/>
<path d="M70.4526 23.3572C74.3681 23.6907 78.1615 26.1249 78.1615 26.1249C78.1615 26.1249 76.1144 21.8967 73.1223 20.6855C71.893 20.1853 70.505 19.8827 69.299 19.6968C67.9068 20.7446 66.4938 21.8817 65.1124 23.0871C66.7382 23.1563 69.5599 23.2847 70.4526 23.3572Z" fill="#E8B964"/>
<path d="M73.1156 20.6779C71.8855 20.1778 70.4975 19.8752 69.2923 19.6893L68.9042 19.9844C70.0354 20.1728 71.2912 20.4662 72.415 20.9213C74.5145 21.7716 76.1485 24.1066 76.9373 25.4229C77.6994 25.8214 78.1582 26.1157 78.1582 26.1157C78.1582 26.1157 76.1078 21.8892 73.1156 20.6779Z" fill="#C17829"/>
<path d="M77.0262 17.7119C79.2703 18.5139 81.7405 20.713 81.7405 20.713C81.7405 20.713 80.6509 17.11 79.1722 16.0272C78.5522 15.5737 77.559 15.1544 76.6406 14.8268C75.5177 15.4578 74.2635 16.2222 72.9344 17.0984C74.1687 17.1467 75.9283 17.3201 77.0262 17.7119Z" fill="#E8B964"/>
<path d="M79.1722 16.0322C78.5522 15.5778 77.559 15.1585 76.6405 14.8318L76.2981 15.026C77.1658 15.3436 78.0759 15.7387 78.6577 16.1647C79.7025 16.93 80.5528 18.9532 80.9617 20.0744C81.4437 20.4537 81.7405 20.718 81.7405 20.718C81.7405 20.718 80.6508 17.1159 79.1722 16.0322Z" fill="#C17829"/>
<path opacity="0.5" d="M70.3919 24.2617C69.4619 23.7999 67.9683 24.1016 66.9418 23.9991C66.3143 23.9366 64.3827 23.218 64.1624 24.145L63.9131 24.2934C63.7144 24.6702 63.3313 24.9536 63.7651 25.2729C64.1151 25.5338 64.6271 25.3637 64.9977 25.2812C65.8779 25.0853 66.7307 25.2395 67.5901 25.4713C68.3107 25.6655 69.4427 26.3699 70.2066 26.0857C70.992 25.7922 71.1848 24.6535 70.3919 24.2617Z" fill="#F7BF31"/>
<path opacity="0.5" d="M76.1602 18.3963C75.3988 18.1904 74.6641 18.2029 73.8969 18.0429C73.0608 17.8686 72.2246 17.9595 71.5614 18.2696L71.4001 18.478C70.4393 19.0416 70.7228 19.8602 71.8423 19.6201C73.0118 19.37 73.6883 19.5551 74.7863 20.0511C75.501 20.3745 76.6406 20.8272 77.1218 19.9677C77.6604 19.0015 76.9971 18.6231 76.1602 18.3963Z" fill="#F7BF31"/>
<path opacity="0.5" d="M82.9415 12.8394C81.4812 13.0336 79.9834 13.377 78.7242 14.1173L78.4649 14.1565C77.8307 14.3674 78.2846 14.785 78.6735 14.8967C79.1215 15.0251 79.4681 15.0068 79.8721 15.3094C80.261 15.6012 80.409 15.9379 80.9343 15.8721C81.2975 15.8262 81.7297 15.557 82.0339 15.3402C82.6556 14.8959 83.2208 14.289 83.7793 13.8005C84.6371 13.0578 83.7876 12.726 82.9415 12.8394Z" fill="#F7BF31"/>
<path d="M60.173 28.9016C60.4066 28.7719 60.659 28.6794 60.921 28.6274C61.1438 28.5782 61.0515 28.2364 60.8296 28.2848C60.5382 28.3451 60.2578 28.4502 59.9984 28.5965C59.7998 28.7091 59.9793 29.0133 60.1771 28.9016H60.173Z" fill="#D3A55E"/>
<path d="M61.2385 27.5403C61.4588 27.3998 61.6914 27.2795 61.9333 27.181C62.1461 27.1035 62.0563 26.7642 61.8419 26.8384C61.5698 26.9465 61.3081 27.079 61.0598 27.2344C60.8628 27.3494 61.0423 27.6512 61.2385 27.5403Z" fill="#D3A55E"/>
<path d="M62.0929 28.3114C62.363 28.3114 62.634 28.3114 62.9025 28.3448C63.1294 28.3689 63.126 28.0113 62.9025 27.9905C62.6332 27.9613 62.363 27.9596 62.0929 27.9563C61.8644 27.9563 61.866 28.3089 62.0929 28.3114V28.3114Z" fill="#D3A55E"/>
<path d="M62.85 27.0643C63.0322 27.2698 63.235 27.4558 63.4551 27.6195C63.6322 27.7579 63.8815 27.5053 63.7045 27.3694C63.4853 27.207 63.2831 27.0227 63.1011 26.8192C62.9531 26.645 62.7071 26.9026 62.8517 27.0693L62.85 27.0643Z" fill="#D3A55E"/>
<path d="M65.051 28.5207C65.3481 28.5585 65.643 28.612 65.9345 28.6807C66.1556 28.7374 66.2445 28.394 66.0235 28.3381C65.7322 28.2694 65.4376 28.2159 65.1408 28.178C64.9172 28.1455 64.8258 28.4882 65.051 28.5207V28.5207Z" fill="#D3A55E"/>
<path d="M66.7265 27.4528C66.7362 27.4519 66.7459 27.4519 66.7556 27.4528C66.8047 27.4528 66.724 27.4461 66.7756 27.4528C66.8113 27.4603 66.8462 27.472 66.8811 27.4828C66.9476 27.5053 67.0133 27.5295 67.0814 27.5486C67.1261 27.5584 67.1729 27.5505 67.2118 27.5264C67.2508 27.5024 67.279 27.4642 67.2905 27.4198C67.302 27.3754 67.2959 27.3282 67.2735 27.2882C67.2511 27.2482 67.2142 27.2185 67.1704 27.2052C67.0241 27.1652 66.8811 27.0901 66.7257 27.0951C66.681 27.0982 66.639 27.1182 66.6084 27.1511C66.5778 27.184 66.5608 27.2273 66.5608 27.2723C66.5608 27.3173 66.5778 27.3606 66.6084 27.3935C66.639 27.4264 66.681 27.4464 66.7257 27.4494L66.7265 27.4528Z" fill="#D3A55E"/>
<path d="M68.3531 28.4698C68.5231 28.6542 68.7306 28.7998 68.9615 28.8966C69.1685 28.9867 69.3447 28.6782 69.1352 28.5882C68.9319 28.5045 68.7493 28.3773 68.6 28.2155C68.4462 28.0488 68.2002 28.2989 68.3506 28.4656L68.3531 28.4698Z" fill="#D3A55E"/>
<path d="M68.3141 29.3751C68.5842 29.4734 68.8594 29.5569 69.1386 29.6252C69.3588 29.6828 69.4477 29.3401 69.2275 29.2826C68.9488 29.2135 68.6739 29.1301 68.4038 29.0325C68.1902 28.9492 68.1029 29.2951 68.3141 29.3751Z" fill="#D3A55E"/>
<path d="M66.6135 22.7345C66.8629 22.6511 67.1122 22.5594 67.3616 22.4661C67.5727 22.3827 67.4829 22.0417 67.2701 22.1234C67.0208 22.2176 66.7714 22.3052 66.5221 22.3919C66.3077 22.4661 66.3974 22.8087 66.6127 22.7345H66.6135Z" fill="#D3A55E"/>
<path d="M69.166 20.8163C69.1884 20.8163 69.2109 20.8163 69.2333 20.8163C69.2558 20.8163 69.2807 20.8222 69.2283 20.8163L69.2566 20.8222C69.2659 20.8242 69.2751 20.827 69.284 20.8305C69.3181 20.8413 69.245 20.813 69.2782 20.8305C69.3016 20.8415 69.3241 20.8543 69.3455 20.8688C69.3658 20.8818 69.3886 20.8905 69.4124 20.8944C69.4361 20.8982 69.4604 20.8972 69.4838 20.8913C69.5072 20.8854 69.5291 20.8748 69.5482 20.8601C69.5673 20.8454 69.5833 20.827 69.595 20.8059C69.6068 20.7848 69.6142 20.7616 69.6167 20.7376C69.6192 20.7135 69.6168 20.6892 69.6096 20.6662C69.6024 20.6431 69.5907 20.6218 69.575 20.6034C69.5593 20.5851 69.54 20.5702 69.5184 20.5596C69.414 20.4913 69.2903 20.4588 69.166 20.467C69.1192 20.4677 69.0746 20.4866 69.0415 20.5198C69.0085 20.5529 68.9896 20.5977 68.989 20.6446C68.9894 20.6915 69.0082 20.7363 69.0413 20.7694C69.0745 20.8025 69.1192 20.8211 69.166 20.8213V20.8163Z" fill="#D3A55E"/>
<path d="M68.5867 21.5924C68.7721 21.7255 68.9767 21.8292 69.1934 21.9C69.4129 21.9617 69.5018 21.6191 69.2824 21.5574C69.0952 21.4931 68.919 21.4006 68.7596 21.2832C68.5692 21.159 68.3964 21.4682 68.5867 21.5924Z" fill="#D3A55E"/>
<path d="M69.373 22.6178L69.8983 22.6486C70.1268 22.662 70.1243 22.3077 69.8983 22.2943L69.3721 22.2635C69.1444 22.2502 69.1469 22.6044 69.3721 22.6178H69.373Z" fill="#D3A55E"/>
<path d="M72.0991 22.8679C72.4166 23.028 72.7641 23.1191 73.119 23.1355C73.3467 23.1505 73.3442 22.7962 73.119 22.7803C72.8248 22.7673 72.5368 22.692 72.2737 22.5594C72.0725 22.4527 71.898 22.7612 72.1 22.8679H72.0991Z" fill="#D3A55E"/>
<path d="M70.7485 21.6649C70.9513 21.715 71.1641 21.7058 71.3652 21.755C71.5863 21.8091 71.676 21.4665 71.4541 21.4124C71.2513 21.3632 71.0386 21.3715 70.8374 21.3223C70.6163 21.2681 70.5266 21.6108 70.7485 21.6649Z" fill="#D3A55E"/>
<path d="M73.8878 22.7845C74.1064 22.9562 74.3158 23.1388 74.5336 23.3105C74.7106 23.4497 74.96 23.1972 74.7829 23.0604C74.5643 22.8887 74.3557 22.7062 74.1371 22.5344C73.9601 22.3952 73.7107 22.6478 73.8878 22.7887V22.7845Z" fill="#D3A55E"/>
<path d="M74.5701 23.8549L74.9907 24.2859C75.1503 24.4526 75.3971 24.1958 75.24 24.0358L74.8186 23.604C74.6591 23.4372 74.413 23.6948 74.5693 23.8582L74.5701 23.8549Z" fill="#D3A55E"/>
<path d="M74.7704 16.8083C75.0514 16.7674 75.334 16.7491 75.6149 16.7082C75.8401 16.6757 75.7462 16.3339 75.5235 16.3656C75.2425 16.4064 74.96 16.4248 74.679 16.4656C74.4538 16.4981 74.5485 16.8408 74.7704 16.8083Z" fill="#D3A55E"/>
<path d="M76.3181 15.8046C76.6084 15.9621 76.9082 16.1013 77.2157 16.2214C77.4277 16.3047 77.515 15.9604 77.3047 15.8779C77.0258 15.7665 76.754 15.6379 76.491 15.4928C76.2915 15.3844 76.117 15.6929 76.3181 15.8021V15.8046Z" fill="#D3A55E"/>
<path d="M77.0736 17.0425C77.3069 17.1082 77.5256 17.2179 77.7178 17.3659C77.7513 17.3981 77.796 17.4161 77.8424 17.4161C77.8889 17.4161 77.9335 17.3981 77.9671 17.3659C78 17.3327 78.0185 17.2877 78.0185 17.2409C78.0185 17.1941 78 17.1491 77.9671 17.1159C77.7292 16.9278 77.457 16.7879 77.1659 16.704C76.9464 16.6432 76.8575 16.9858 77.0769 17.0467L77.0736 17.0425Z" fill="#D3A55E"/>
<path d="M79.0218 17.957C79.1352 18.0762 79.2307 18.2112 79.3052 18.358C79.4208 18.5555 79.7208 18.3763 79.6103 18.1796C79.5204 18.0045 79.405 17.8438 79.2678 17.7027C79.1016 17.5485 78.8523 17.8019 79.0185 17.957H79.0218Z" fill="#D3A55E"/>
<path d="M78.2372 16.7232C78.3928 16.9776 78.5862 17.2067 78.8107 17.4026C78.9769 17.5535 79.2263 17.3009 79.06 17.1484C78.8586 16.9746 78.6851 16.7708 78.5456 16.544C78.4275 16.3481 78.1225 16.5273 78.2405 16.7232H78.2372Z" fill="#D3A55E"/>
<path d="M61.1919 28.8124L61.5701 28.5899C61.7662 28.4748 61.5875 28.173 61.3914 28.2839L61.0132 28.5065C60.8171 28.6224 60.9949 28.9275 61.1919 28.8124Z" fill="#FFC871"/>
<path d="M61.2202 27.9755C61.4842 27.9499 61.7395 27.8668 61.9683 27.732C62.1669 27.6187 61.9882 27.3152 61.7904 27.4261C61.6156 27.5314 61.4203 27.598 61.2177 27.6212C60.9916 27.6403 60.9908 27.9955 61.2177 27.9755H61.2202Z" fill="#FFC871"/>
<path d="M62.4985 27.8463C62.6165 27.8413 62.732 27.8721 62.8492 27.8671C62.8962 27.8671 62.9412 27.8484 62.9744 27.8151C63.0076 27.7818 63.0262 27.7366 63.0262 27.6896C63.0262 27.6425 63.0076 27.5973 62.9744 27.564C62.9412 27.5307 62.8962 27.512 62.8492 27.512C62.732 27.5178 62.6165 27.487 62.4993 27.492C62.4525 27.4926 62.4079 27.5115 62.3748 27.5447C62.3418 27.5779 62.3229 27.6227 62.3223 27.6695C62.3227 27.7164 62.3415 27.7612 62.3746 27.7943C62.4078 27.8274 62.4526 27.846 62.4993 27.8463H62.4985Z" fill="#FFC871"/>
<path d="M63.7444 26.8885C63.9237 26.8685 64.1052 26.8916 64.2738 26.956C64.3149 26.978 64.3629 26.9832 64.4078 26.9707C64.4527 26.9581 64.491 26.9286 64.5149 26.8885C64.5376 26.8474 64.5434 26.799 64.5308 26.7537C64.5181 26.7084 64.4882 26.67 64.4475 26.6467C64.2254 26.5526 63.9838 26.5139 63.7435 26.5342C63.5166 26.5467 63.5166 26.901 63.7435 26.8885H63.7444Z" fill="#FFC871"/>
<path d="M64.1774 27.4178C64.2164 27.4812 64.2727 27.532 64.3395 27.5644C64.4064 27.5967 64.4811 27.6092 64.5548 27.6004C64.6017 27.6004 64.6468 27.5817 64.68 27.5484C64.7132 27.5151 64.7318 27.4699 64.7318 27.4228C64.7318 27.3757 64.7132 27.3305 64.68 27.2972C64.6468 27.2639 64.6017 27.2452 64.5548 27.2452C64.5357 27.2452 64.5166 27.2452 64.4983 27.2452C64.48 27.2452 64.4501 27.2394 64.5033 27.2452C64.4945 27.2441 64.4859 27.2421 64.4775 27.2394C64.4451 27.2302 64.5166 27.2586 64.4875 27.2394C64.4742 27.2336 64.4542 27.2136 64.4958 27.2477C64.4888 27.2417 64.4824 27.235 64.4767 27.2277C64.5124 27.2686 64.4908 27.2452 64.4825 27.2277C64.4715 27.2062 64.4562 27.1872 64.4377 27.1719C64.4191 27.1565 64.3976 27.1451 64.3745 27.1383C64.3513 27.1316 64.3271 27.1296 64.3032 27.1326C64.2793 27.1356 64.2563 27.1434 64.2355 27.1556C64.2147 27.1678 64.1966 27.1841 64.1824 27.2036C64.1681 27.223 64.1579 27.2452 64.1525 27.2687C64.1471 27.2923 64.1465 27.3167 64.1508 27.3404C64.1551 27.3642 64.1641 27.3868 64.1774 27.407V27.4178Z" fill="#FFC871"/>
<path d="M63.9414 28.4973C64.1383 28.3823 63.9596 28.0764 63.7627 28.1922C63.5657 28.3081 63.7444 28.6132 63.9414 28.4973Z" fill="#FFC871"/>
<path d="M63.8973 28.5165C64.0254 28.4913 64.1562 28.4834 64.2863 28.4932C64.5149 28.5057 64.5132 28.1506 64.2863 28.1389C64.1256 28.1292 63.9644 28.141 63.8068 28.1739C63.7616 28.1862 63.7231 28.2159 63.6997 28.2564C63.6762 28.297 63.6696 28.3452 63.6812 28.3906C63.6939 28.4357 63.7235 28.474 63.7639 28.4975C63.8042 28.521 63.8521 28.5278 63.8973 28.5165V28.5165Z" fill="#FFC871"/>
<path d="M65.6402 27.6879C65.7703 27.8286 65.9225 27.9468 66.0907 28.038C66.2935 28.1405 66.4681 27.8321 66.2636 27.7287C66.1227 27.6519 65.9955 27.5522 65.8871 27.4336C65.7267 27.2711 65.4798 27.5253 65.6378 27.6879H65.6402Z" fill="#FFC871"/>
<path d="M66.4889 29.1059C66.6641 29.201 66.8659 29.2347 67.0624 29.2017C67.1075 29.1894 67.146 29.1598 67.1694 29.1192C67.1929 29.0786 67.1996 29.0304 67.1879 28.985C67.175 28.9401 67.1453 28.902 67.105 28.8787C67.0647 28.8553 67.0169 28.8486 66.9718 28.86C66.9261 28.8674 66.8795 28.8674 66.8338 28.86C66.7741 28.8467 66.7163 28.826 66.6617 28.7983C66.6211 28.7783 66.5744 28.7748 66.5312 28.7883C66.488 28.8018 66.4517 28.8314 66.4295 28.8709C66.4074 28.9105 66.4012 28.9571 66.4123 29.0011C66.4233 29.0451 66.4507 29.0832 66.4889 29.1076V29.1059Z" fill="#FFC871"/>
<path d="M67.1496 28.1605C67.2331 28.3253 67.3621 28.4625 67.5212 28.5557C67.7223 28.6607 67.8969 28.3523 67.6941 28.2464C67.5899 28.1837 67.5066 28.0915 67.4547 27.9813C67.3392 27.7846 67.0391 27.9638 67.1496 28.1605V28.1605Z" fill="#FFC871"/>
<path d="M67.6458 22.862C67.8435 22.782 68.0563 22.7465 68.2692 22.7578C68.4969 22.7795 68.4936 22.4244 68.2692 22.4035C68.0254 22.3902 67.7816 22.4297 67.5544 22.5194C67.34 22.5936 67.4306 22.9362 67.6458 22.862Z" fill="#FFC871"/>
<path d="M67.5336 21.8041C67.6447 21.7229 67.7764 21.6749 67.9135 21.6658C68.142 21.6708 68.1404 21.3165 67.9135 21.3115C67.709 21.3065 67.527 21.3948 67.355 21.4982C67.158 21.6141 67.3367 21.915 67.5336 21.8041Z" fill="#FFC871"/>
<path d="M68.167 22.196C68.339 22.2093 68.4994 22.2793 68.6748 22.2935C68.699 22.2952 68.7233 22.2918 68.7462 22.2837C68.769 22.2755 68.79 22.2627 68.8077 22.2461C68.8255 22.2295 68.8396 22.2094 68.8493 22.1871C68.859 22.1648 68.8639 22.1407 68.8639 22.1164C68.8639 22.092 68.859 22.0679 68.8493 22.0456C68.8396 22.0233 68.8255 22.0032 68.8077 21.9866C68.79 21.97 68.769 21.9572 68.7462 21.949C68.7233 21.9409 68.699 21.9376 68.6748 21.9392C68.5027 21.9259 68.3423 21.8558 68.1661 21.8417C68.1193 21.8419 68.0745 21.8607 68.0415 21.894C68.0085 21.9273 67.9899 21.9723 67.9899 22.0192C67.9908 22.066 68.0097 22.1106 68.0428 22.1435C68.0758 22.1765 68.1203 22.1953 68.167 22.196V22.196Z" fill="#FFC871"/>
<path d="M68.5019 20.9639C68.7087 21.0646 68.9372 21.1119 69.1668 21.1014C69.3937 21.0897 69.3937 20.7346 69.1668 20.7471C68.9991 20.7577 68.8313 20.7258 68.679 20.6546C68.4745 20.5579 68.2991 20.8655 68.5061 20.9639H68.5019Z" fill="#FFC871"/>
<path d="M69.7229 21.5924C69.9706 21.4307 70.2413 21.3073 70.5257 21.2265C70.7485 21.174 70.6562 20.8313 70.4352 20.8838C70.1135 20.9597 69.8259 21.1214 69.5442 21.2865C69.3472 21.4024 69.5259 21.7083 69.7229 21.5924V21.5924Z" fill="#FFC871"/>
<path d="M71.445 21.3123C71.5855 21.357 71.7215 21.4145 71.8515 21.484C71.8925 21.5065 71.9407 21.512 71.9857 21.4993C72.0307 21.4867 72.069 21.457 72.0925 21.4165C72.1153 21.3756 72.121 21.3273 72.1083 21.2821C72.0957 21.237 72.0658 21.1987 72.0252 21.1756C71.868 21.0923 71.7036 21.0233 71.534 20.9697C71.3146 20.9088 71.2256 21.2515 71.445 21.3123V21.3123Z" fill="#FFC871"/>
<path d="M70.259 22.1793C70.3807 22.2097 70.4942 22.2666 70.5914 22.346C70.6254 22.3778 70.6704 22.3952 70.717 22.3944C70.7635 22.3936 70.8079 22.3748 70.8408 22.3418C70.8572 22.3254 70.8702 22.3059 70.879 22.2845C70.8879 22.263 70.8925 22.24 70.8925 22.2168C70.8925 22.1936 70.8879 22.1706 70.879 22.1491C70.8702 22.1277 70.8572 22.1082 70.8408 22.0917C70.6997 21.9712 70.534 21.883 70.3554 21.8333C70.136 21.7725 70.047 22.1159 70.2665 22.1768L70.259 22.1793Z" fill="#FFC871"/>
<path d="M70.6596 22.9621C70.8255 23.021 70.9966 23.0638 71.1707 23.0896C71.2177 23.0896 71.2627 23.0709 71.2959 23.0376C71.3291 23.0043 71.3478 22.9591 71.3478 22.9121C71.3467 22.8654 71.3277 22.8209 71.2947 22.788C71.2617 22.755 71.2173 22.7362 71.1707 22.7353C71.0253 22.7245 70.889 22.657 70.7494 22.6186C70.5291 22.5586 70.4402 22.902 70.6596 22.9621V22.9621Z" fill="#FFC871"/>
<path d="M71.6777 22.5086L72.0035 22.4869C72.0483 22.4838 72.0902 22.4638 72.1208 22.4309C72.1514 22.398 72.1684 22.3547 72.1684 22.3097C72.1684 22.2648 72.1514 22.2214 72.1208 22.1886C72.0902 22.1557 72.0483 22.1357 72.0035 22.1326L71.6786 22.1543C71.6319 22.1551 71.5873 22.1741 71.5543 22.2072C71.5213 22.2403 71.5024 22.285 71.5015 22.3318C71.5017 22.3788 71.5205 22.4237 71.5537 22.4568C71.5868 22.49 71.6317 22.5086 71.6786 22.5086H71.6777Z" fill="#FFC871"/>
<path d="M72.7707 22.2302C72.8811 22.2513 72.9876 22.2893 73.0866 22.3427C73.1068 22.3543 73.129 22.3618 73.1521 22.3648C73.1752 22.3677 73.1986 22.3661 73.2211 22.36C73.2436 22.3539 73.2646 22.3434 73.283 22.3291C73.3014 22.3149 73.3169 22.2971 73.3284 22.2768C73.34 22.2566 73.3475 22.2342 73.3504 22.2111C73.3534 22.1879 73.3518 22.1644 73.3457 22.1419C73.3396 22.1194 73.3291 22.0983 73.3149 22.0798C73.3007 22.0613 73.283 22.0458 73.2628 22.0342C73.1377 21.9662 73.0032 21.917 72.8638 21.8884C72.8414 21.8824 72.818 21.881 72.795 21.8842C72.7721 21.8873 72.7499 21.895 72.7299 21.9067C72.7099 21.9184 72.6923 21.934 72.6783 21.9525C72.6643 21.9711 72.654 21.9921 72.6481 22.0146C72.6422 22.0371 72.6408 22.0606 72.644 22.0836C72.6471 22.1067 72.6547 22.1289 72.6664 22.149C72.6781 22.1691 72.6936 22.1866 72.7121 22.2007C72.7306 22.2148 72.7516 22.2251 72.7741 22.231L72.7707 22.2302Z" fill="#FFC871"/>
<path d="M72.1498 23.3872C72.2595 23.4074 72.3717 23.4105 72.4823 23.3964C72.5289 23.3955 72.5733 23.3765 72.6062 23.3434C72.6391 23.3102 72.6578 23.2656 72.6585 23.2188C72.6583 23.172 72.6396 23.1272 72.6066 23.0941C72.5736 23.061 72.5289 23.0423 72.4823 23.0421C72.4324 23.0454 72.3826 23.0479 72.3327 23.0496C72.3111 23.0496 72.2886 23.0496 72.267 23.0496C72.2454 23.0496 72.2462 23.0496 72.267 23.0496C72.2586 23.0487 72.2502 23.0471 72.2421 23.0446C72.2196 23.0387 72.1963 23.0374 72.1733 23.0406C72.1504 23.0438 72.1283 23.0514 72.1083 23.0632C72.0883 23.075 72.0708 23.0906 72.0568 23.1091C72.0429 23.1277 72.0327 23.1488 72.0268 23.1713C72.021 23.1938 72.0196 23.2172 72.0228 23.2402C72.026 23.2633 72.0337 23.2854 72.0454 23.3055C72.0571 23.3255 72.0727 23.3431 72.0912 23.3571C72.1097 23.3711 72.1307 23.3813 72.1532 23.3872H72.1498Z" fill="#FFC871"/>
<path d="M73.8254 17.0242C73.9358 17.0123 74.0474 17.0254 74.1521 17.0625C74.3723 17.1201 74.4621 16.7774 74.241 16.7199C74.0772 16.6682 73.9037 16.655 73.734 16.6816C73.7105 16.6866 73.6884 16.6964 73.6688 16.7103C73.6492 16.7242 73.6326 16.742 73.6201 16.7625C73.6076 16.7831 73.5994 16.8059 73.5959 16.8298C73.5925 16.8536 73.5939 16.8778 73.6001 16.9011C73.6063 16.9243 73.6172 16.9461 73.632 16.965C73.6469 16.9839 73.6654 16.9996 73.6865 17.0111C73.7075 17.0226 73.7307 17.0297 73.7546 17.032C73.7785 17.0342 73.8026 17.0316 73.8254 17.0242V17.0242Z" fill="#FFC871"/>
<path d="M75.4653 17.1159C75.6607 17.1017 75.8543 17.0692 76.0471 17.055C76.274 17.0384 76.274 16.6841 76.0471 16.7007C75.851 16.7149 75.6573 16.7474 75.4653 16.7616C75.2393 16.7774 75.2384 17.1326 75.4653 17.1159Z" fill="#FFC871"/>
<path d="M76.338 16.2572C76.2316 16.1489 76.1211 16.0488 76.0729 15.9004C76.0031 15.6829 75.6573 15.7746 75.7321 15.9921C75.8069 16.2097 75.9374 16.3548 76.092 16.5115C76.2466 16.6682 76.4984 16.4206 76.3413 16.2572H76.338Z" fill="#FFC871"/>
<path d="M18.2687 9.38318L18.2363 9.324C18.2163 9.3465 18.1083 9.27813 18.1914 9.35316L18.2687 9.38318Z" fill="#ED9254"/>
<path d="M16.1418 19.6643C17.9354 19.6559 19.2869 17.0425 20.0283 15.6228C20.714 14.3107 21.7679 11.6773 20.0092 10.2827C19.4914 9.87251 18.7624 9.61576 18.1806 9.38818L18.3793 9.74831C17.8806 9.01055 16.707 7.85682 16.0005 8.03771C15.2575 8.22778 14.2551 8.41868 13.5902 8.78797C11.115 10.1618 10.4484 11.6073 10.6895 14.1832C11.0036 17.6077 13.8861 19.6751 16.1418 19.6643Z" fill="#ED9254"/>
<path d="M16.1277 19.6167C16.5314 19.607 16.9243 19.4843 17.2622 19.2624C15.1843 18.8498 12.9011 16.8849 12.6185 13.8614C12.3775 11.2855 13.0441 9.84 15.5193 8.46619C15.8485 8.29556 16.1952 8.16111 16.5532 8.06521C16.3755 7.97967 16.1752 7.95311 15.9814 7.98936C15.2392 8.17942 14.2359 8.37032 13.571 8.73962C11.0967 10.1134 10.4301 11.5581 10.6711 14.1348C10.9886 17.5602 13.8711 19.6276 16.1277 19.6167Z" fill="#D8864E"/>
<path d="M15.7562 19.6809C15.997 19.6788 16.2354 19.6322 16.4593 19.5434C14.2684 19.3475 11.6661 17.3218 11.3619 14.0781C11.1208 11.5014 11.7882 10.0559 14.2626 8.68209C14.7555 8.40866 15.4345 8.23359 16.0562 8.08353C15.9132 8.03282 15.7591 8.02273 15.6107 8.05437C14.8685 8.24443 13.8653 8.43533 13.2004 8.80463C10.726 10.1784 10.0586 11.6239 10.2997 14.1998C10.618 17.6244 13.5029 19.6917 15.7562 19.6809Z" fill="#B77446"/>
<path d="M23.9756 18.735L23.9604 18.7148C23.9652 18.7218 23.9702 18.7285 23.9756 18.735V18.735Z" fill="#D8864E"/>
<path d="M17.7418 25.8689C19.3941 25.8106 20.069 23.5523 21.5302 22.7578C22.3688 22.301 23.1152 21.6783 23.6571 20.8405C23.889 20.482 24.0585 19.6142 23.7959 19.1341L23.18 18.8523C22.6248 18.5705 22.6938 19.5442 22.3231 18.9065C22.683 18.1045 22.7436 16.5723 23.1251 15.7387C23.6737 14.5341 23.6072 12.7327 23.1085 11.338C22.0089 8.25945 19.2719 6.57554 17.2772 7.09238C16.6405 7.25911 15.0696 8.22195 16.9646 8.70295C17.5764 8.85884 18.2388 9.835 18.6843 10.5703C20.2735 13.1937 15.7811 16.4831 15.2142 17.4268C14.5618 18.5105 13.709 19.861 13.7755 21.199C13.8528 22.8245 15.4544 25.9523 17.7418 25.8689Z" fill="#D8864E"/>
<path d="M23.9754 18.7347C23.9948 18.7616 24.0128 18.7894 24.0294 18.8181V18.8181C24.015 18.7881 23.9968 18.7601 23.9754 18.7347V18.7347Z" fill="#D8864E"/>
<path d="M17.5955 25.8914C17.7528 25.8859 17.9088 25.8596 18.0592 25.8131C16.0387 25.4738 14.659 22.682 14.5842 21.174C14.5185 19.8402 15.3713 18.488 16.0238 17.4018C16.5906 16.4573 21.0822 13.1678 19.493 10.5444C19.0483 9.80917 18.3859 8.83301 17.7742 8.67795C15.8791 8.19612 17.45 7.23161 18.0867 7.06655C18.1291 7.05571 18.1698 7.04656 18.2155 7.03739C17.8537 6.99851 17.488 7.0239 17.135 7.1124C16.4983 7.27913 14.9275 8.24197 16.8225 8.7238C17.4342 8.87886 18.0967 9.85502 18.5413 10.5903C20.1305 13.2137 15.6389 16.5032 15.0713 17.4477C14.4196 18.5314 13.5669 19.8818 13.6325 21.2198C13.709 22.847 15.3106 25.9715 17.5955 25.8914Z" fill="#B77446"/>
<path d="M23.9114 30.052C25.4789 30.7189 25.6169 31.4267 26.842 30.8023L28.1802 29.872C29.2648 28.6849 29.6704 26.0607 28.9847 24.2634C28.4528 22.8704 27.0872 21.4974 25.7433 21.164C24.8647 20.9464 24.4018 21.6033 23.7917 22.0701C23.0877 22.6078 22.3995 23.1913 22.0405 24.085C21.2775 25.9706 21.6124 29.0742 23.9114 30.052Z" fill="#B77446"/>
<path d="M24.44 33.5732C25.784 33.3748 27.5045 31.906 28.2933 30.2538C29.2906 28.1697 27.7198 30.8273 24.6886 29.2084C23.8649 28.7683 23.3537 28.2789 23.0337 27.4236C22.5666 26.1732 23.0927 25.1628 23.7743 24.3392C24.7027 23.2221 26.1381 21.3998 26.286 19.6292C26.4465 17.7177 25.3103 16.4365 24.2347 15.5445C23.0578 14.5633 23.0229 16.7357 21.2351 19.4308C20.148 21.0697 18.991 22.4369 18.1532 23.5498C16.7876 25.3704 16.5616 26.8701 17.3877 28.7849C18.0044 30.2129 20.0948 34.216 24.44 33.5732Z" fill="#ED9254"/>
<path d="M23.3213 33.705C20.847 32.7955 19.5446 30.2554 19.0824 29.1776C18.2563 27.2602 18.4815 25.7597 19.8471 23.9424C20.6783 22.8303 21.8419 21.4632 22.929 19.8243C23.9721 18.2521 24.4184 16.8591 24.8407 16.1647C24.6412 15.9638 24.4342 15.7796 24.2298 15.6087C23.052 14.6283 23.0179 16.8008 21.2293 19.4959C20.143 21.1348 18.9852 22.5019 18.1474 23.614C16.7818 25.4354 16.5566 26.9343 17.3827 28.8499C17.9429 30.1479 19.7266 33.5824 23.3213 33.705Z" fill="#D8864E"/>
<path d="M22.6763 33.6216C19.7881 32.9489 18.3036 30.0712 17.8008 28.905C16.9746 26.9876 17.2007 25.4913 18.5663 23.6698C19.3974 22.5578 20.561 21.1906 21.6482 19.5517C23.052 17.436 23.3753 15.6429 24.0186 15.4436C23.0213 14.8534 22.8958 16.9283 21.211 19.4684C20.1239 21.1073 18.9669 22.4744 18.1291 23.5873C16.7635 25.4079 16.5383 26.9076 17.3644 28.8224C17.8914 30.0429 19.4997 33.1514 22.6763 33.6216Z" fill="#B77446"/>
<path d="M17.0553 22.8153C17.2132 22.732 17.4517 22.2185 17.554 22.0509C17.7401 21.7391 17.7875 21.399 18.031 21.1339C18.5538 20.5712 19.0916 20.2844 19.4573 19.55C19.8662 18.7272 20.153 17.9045 20.6683 17.1542C21.1836 16.4039 21.7488 15.6145 22.0862 14.7317C22.5716 13.4529 22.3771 11.4864 21.3615 10.2851L20.9384 9.64992C20.8029 9.53488 20.3051 9.38399 20.1438 9.45985C19.8371 9.6049 20.0333 9.93919 20.1214 10.2168C20.3275 10.867 20.5544 11.5422 20.5461 12.1991C20.5242 12.9375 20.3705 13.6659 20.0923 14.3499C19.774 15.1602 19.0118 15.7554 18.4724 16.3606C17.8715 17.0367 17.2323 17.7077 16.7544 18.4963C16.2765 19.2849 15.9075 20.006 16.0413 21.0697C16.0986 21.5491 16.412 23.1413 17.0553 22.8153Z" fill="#ED9254"/>
<path d="M21.7629 11.4939C21.6499 11.6607 21.5352 11.5773 21.3548 11.3522C21.1745 11.1271 21.0224 10.9021 21.1055 10.7837C21.1886 10.6653 21.4637 10.8887 21.5784 11.0188C21.6931 11.1488 21.8652 11.343 21.7629 11.4939Z" fill="#FECC84"/>
<path d="M21.7205 13.6296C21.5326 13.6847 21.4711 13.553 21.4154 13.277C21.3597 13.0011 21.3323 12.7377 21.4728 12.701C21.6133 12.6643 21.7512 12.9953 21.7911 13.162C21.831 13.3287 21.8925 13.5788 21.7205 13.6296Z" fill="#FECC84"/>
<path d="M19.5861 15.0318C19.439 14.8526 19.518 14.7567 19.7274 14.6392C19.9369 14.5216 20.148 14.4316 20.2535 14.565C20.3591 14.6984 20.148 14.9168 20.0258 14.9968C19.9036 15.0768 19.7208 15.1919 19.5861 15.0318Z" fill="#FECC84"/>
<path d="M20.1862 13.758C20.1521 13.5346 20.276 13.5179 20.5295 13.5704C20.783 13.623 21.0282 13.6972 21.0456 13.8614C21.0631 14.0256 20.7564 14.0423 20.6026 14.0189C20.4489 13.9956 20.2178 13.9622 20.1862 13.758Z" fill="#FECC84"/>
<path d="M20.5336 16.1872C20.7389 16.2256 20.7513 16.3656 20.6998 16.6232C20.6483 16.8808 20.5727 17.1159 20.423 17.0842C20.2734 17.0525 20.2635 16.7091 20.2876 16.5498C20.3117 16.3906 20.3466 16.1514 20.5336 16.1872Z" fill="#FECC84"/>
<path d="M18.8007 16.664C18.6527 16.4857 18.7317 16.3898 18.9403 16.2714C19.1489 16.153 19.3609 16.063 19.4664 16.1964C19.572 16.3298 19.3617 16.5482 19.2395 16.6282C19.1173 16.7082 18.9353 16.8283 18.8007 16.664Z" fill="#FECC84"/>
<path d="M20.0133 18.0112C20.217 18.022 20.2452 18.1621 20.2245 18.428C20.2037 18.6939 20.1596 18.9457 20.01 18.934C19.8604 18.9223 19.8105 18.5764 19.8155 18.4122C19.8205 18.2479 19.8272 18.002 20.0133 18.0112Z" fill="#FECC84"/>
<path d="M18.6004 17.6869C18.5655 17.4635 18.6893 17.4477 18.9428 17.5002C19.1963 17.5527 19.4415 17.6269 19.459 17.7911C19.4764 17.9553 19.1697 17.9712 19.016 17.9487C18.8622 17.9262 18.632 17.8912 18.6004 17.6869Z" fill="#FECC84"/>
<path d="M19.419 19.2466C19.6243 19.285 19.636 19.425 19.5853 19.6826C19.5346 19.9402 19.4589 20.1761 19.3085 20.1436C19.158 20.1111 19.1489 19.7685 19.173 19.6092C19.1971 19.45 19.2312 19.2116 19.419 19.2466Z" fill="#FECC84"/>
<path d="M17.6853 19.7243C17.5373 19.545 17.6163 19.4492 17.8258 19.3308C18.0352 19.2124 18.2463 19.1224 18.3519 19.2558C18.4574 19.3891 18.2463 19.6076 18.125 19.6876C18.0036 19.7676 17.8199 19.8877 17.6853 19.7243Z" fill="#FECC84"/>
<path d="M17.485 20.7471C17.4509 20.5229 17.5747 20.5071 17.8282 20.5596C18.0818 20.6121 18.3269 20.6863 18.3444 20.8505C18.3618 21.0147 18.0552 21.0314 17.9014 21.0081C17.7476 20.9847 17.5166 20.9506 17.485 20.7471Z" fill="#FECC84"/>
<path d="M18.9054 21.0631C18.7076 21.0864 18.661 20.9489 18.6444 20.6738C18.6278 20.3987 18.6369 20.1395 18.7832 20.1269C18.9295 20.1144 19.0234 20.4604 19.0417 20.6271C19.06 20.7938 19.0833 21.0431 18.9054 21.0631Z" fill="#FECC84"/>
<path d="M17.0253 21.1273C17.2231 21.1023 17.2705 21.239 17.2888 21.5149C17.3071 21.7908 17.3013 22.0501 17.1558 22.0634C17.0104 22.0768 16.9123 21.7358 16.8932 21.5682C16.8741 21.4007 16.845 21.1489 17.0253 21.1273Z" fill="#FECC84"/>
<path d="M18.8223 22.1043C18.927 22.3127 18.8223 22.3777 18.5845 22.426C18.3468 22.4744 18.1091 22.4952 18.036 22.3427C17.9628 22.1901 18.2288 22.0492 18.3685 22.0092C18.5081 21.9692 18.7283 21.9142 18.8223 22.1043Z" fill="#FECC84"/>
<path d="M17.2497 23.2772C17.3545 23.4856 17.2497 23.5506 17.012 23.599C16.7743 23.6473 16.5366 23.6681 16.4635 23.5156C16.3903 23.363 16.6563 23.2222 16.7959 23.1821C16.9356 23.1421 17.1542 23.0871 17.2497 23.2772Z" fill="#FECC84"/>
<path d="M18.9777 18.5214C19.1805 18.5872 19.1772 18.7247 19.094 18.9682C19.0109 19.2116 18.9095 19.4308 18.7616 19.3791C18.6136 19.3275 18.6427 18.9923 18.6851 18.8406C18.7275 18.6889 18.7915 18.4622 18.9777 18.5214Z" fill="#FECC84"/>
<path d="M15.1652 12.8894C15.3689 12.9544 15.3655 13.092 15.2824 13.3354C15.1993 13.5788 15.0979 13.7981 14.95 13.7464C14.802 13.6947 14.8311 13.3604 14.8743 13.2087C14.9175 13.0569 14.9815 12.8294 15.1652 12.8894Z" fill="#FECC84"/>
<path d="M15.6639 15.4878C15.6789 15.7112 15.5526 15.7137 15.3007 15.6354C15.0489 15.557 14.8128 15.4578 14.802 15.2952C14.7912 15.1327 15.1104 15.1485 15.2641 15.1877C15.4179 15.2269 15.6531 15.2819 15.6639 15.4878Z" fill="#FECC84"/>
<path d="M14.3008 15.587C14.3158 15.8096 14.1886 15.8121 13.9368 15.7337C13.6849 15.6553 13.4489 15.557 13.4381 15.3944C13.4273 15.2319 13.7464 15.2477 13.9002 15.2869C14.054 15.3261 14.2875 15.3836 14.3008 15.587Z" fill="#FECC84"/>
<path d="M14.4546 16.5882C14.6208 16.7482 14.5551 16.8566 14.3715 17.005C14.1878 17.1534 13.9883 17.2768 13.8728 17.1567C13.7572 17.0367 13.9326 16.7849 14.039 16.6866C14.1454 16.5882 14.3041 16.4423 14.4546 16.5882Z" fill="#FECC84"/>
<path d="M18.0202 12.2967C18.2255 12.3417 18.2338 12.4818 18.1732 12.736C18.1125 12.9903 18.0319 13.222 17.8814 13.1854C17.731 13.1487 17.7318 12.806 17.7609 12.6493C17.79 12.4926 17.8332 12.255 18.0202 12.2967Z" fill="#FECC84"/>
<path d="M14.7662 12.4234C14.5659 12.3401 14.5776 12.2075 14.6773 11.9741C14.7771 11.7407 14.8934 11.5314 15.0397 11.594C15.186 11.6565 15.1344 11.9841 15.0821 12.1308C15.0297 12.2775 14.9499 12.4959 14.7662 12.4234Z" fill="#FECC84"/>
<path d="M20.7007 18.0829C20.5461 17.9112 20.6176 17.8103 20.8204 17.6786C21.0232 17.5469 21.2268 17.4435 21.3373 17.5719C21.4479 17.7002 21.2542 17.9328 21.1337 18.0204C21.0132 18.1079 20.842 18.2396 20.7007 18.0829Z" fill="#FECC84"/>
<path d="M21.8842 15.5195C21.6839 15.4361 21.6964 15.3036 21.8011 15.0701C21.9059 14.8367 22.0189 14.63 22.1652 14.6925C22.3115 14.755 22.2583 15.0835 22.2051 15.2294C22.1519 15.3753 22.0679 15.5937 21.8842 15.5195Z" fill="#FECC84"/>
<path d="M20.9359 12.0925C21.0789 12.2759 20.9966 12.3684 20.7821 12.4784C20.5677 12.5885 20.3524 12.6685 20.251 12.5318C20.1496 12.3951 20.3682 12.1867 20.4937 12.115C20.6192 12.0433 20.8063 11.9249 20.9359 12.0925Z" fill="#FECC84"/>
<path d="M21.4878 15.5953C21.4487 15.8054 21.3216 15.7712 21.0855 15.6262C20.8495 15.4811 20.6367 15.3219 20.6699 15.1702C20.7032 15.0185 21.0165 15.1235 21.1612 15.2035C21.3058 15.2836 21.5235 15.4036 21.4878 15.5953Z" fill="#FECC84"/>
<path d="M17.6512 17.7461C17.4525 17.6552 17.4717 17.5218 17.583 17.2959C17.6944 17.07 17.8224 16.8708 17.967 16.9408C18.1116 17.0108 18.0435 17.3326 17.9828 17.4743C17.9221 17.616 17.8324 17.8286 17.6512 17.7461Z" fill="#FECC84"/>
<path d="M16.7245 18.3663C16.6546 18.1462 16.771 18.1062 17.022 18.1095C17.273 18.1129 17.5149 18.1429 17.5623 18.3046C17.6096 18.4663 17.3129 18.5439 17.165 18.5505C17.017 18.5572 16.7876 18.5622 16.7245 18.3663Z" fill="#FECC84"/>
<path d="M17.3088 18.9765C17.4825 19.1241 17.4268 19.2391 17.2522 19.4067C17.0777 19.5742 16.8948 19.7134 16.7693 19.6026C16.6438 19.4917 16.8018 19.2224 16.9007 19.1132C16.9996 19.004 17.15 18.8423 17.3088 18.9765Z" fill="#FECC84"/>
<path d="M16.4602 19.8668C16.6655 19.8977 16.6821 20.0377 16.638 20.2986C16.594 20.5596 16.5291 20.7988 16.3787 20.7738C16.2283 20.7488 16.2075 20.4028 16.2266 20.242C16.2457 20.0811 16.2731 19.8351 16.4602 19.8668Z" fill="#FECC84"/>
<path d="M13.6966 13.4413C13.5494 13.262 13.6284 13.1662 13.837 13.0478C14.0456 12.9294 14.2576 12.8394 14.3631 12.9728C14.4687 13.1062 14.2576 13.3246 14.1362 13.4046C14.0149 13.4846 13.8354 13.6047 13.6966 13.4413Z" fill="#FECC84"/>
<path d="M13.4971 14.4641C13.4622 14.2407 13.586 14.224 13.8395 14.2765C14.093 14.3291 14.3382 14.4032 14.3556 14.5675C14.3731 14.7317 14.0664 14.7484 13.9126 14.725C13.7589 14.7017 13.5278 14.6683 13.4971 14.4641Z" fill="#FECC84"/>
<path d="M13.6625 11.4631C13.4638 11.3722 13.4829 11.2388 13.5951 11.0129C13.7074 10.787 13.8337 10.5878 13.9783 10.6578C14.1229 10.7278 14.0548 11.0496 13.9941 11.1913C13.9334 11.333 13.8437 11.5456 13.6625 11.4631Z" fill="#FECC84"/>
<path d="M12.7357 12.0791C12.6659 11.859 12.7823 11.819 13.0333 11.8232C13.2843 11.8274 13.5262 11.8565 13.5735 12.0183C13.6209 12.18 13.3242 12.2567 13.1763 12.2633C13.0283 12.27 12.7989 12.2809 12.7357 12.0791Z" fill="#FECC84"/>
<path d="M13.32 12.6977C13.4946 12.8452 13.4381 12.9602 13.2635 13.1278C13.089 13.2954 12.9061 13.4354 12.7806 13.3237C12.6551 13.212 12.813 12.9436 12.9128 12.8352C13.0125 12.7268 13.1613 12.5593 13.32 12.6977Z" fill="#FECC84"/>
<path d="M12.4714 13.5805C12.6767 13.6105 12.6933 13.7472 12.6501 14.0115C12.6069 14.2757 12.5412 14.5116 12.3908 14.4866C12.2404 14.4616 12.2196 14.1157 12.2379 13.9548C12.2562 13.7939 12.2844 13.5522 12.4714 13.5805Z" fill="#FECC84"/>
<path d="M16.0545 11.7082C16.2133 11.8749 16.1435 11.9791 15.9465 12.1175C15.7495 12.2559 15.5492 12.3676 15.4345 12.2409C15.3198 12.1142 15.5118 11.8757 15.6257 11.784C15.7395 11.6923 15.9132 11.5548 16.0545 11.7082Z" fill="#FECC84"/>
<path d="M16.1742 10.657C16.2249 10.8795 16.1044 10.907 15.8509 10.877C15.5974 10.847 15.3522 10.7937 15.3215 10.6269C15.2907 10.4602 15.5924 10.4185 15.7453 10.4277C15.8983 10.4369 16.1277 10.4535 16.1742 10.657Z" fill="#FECC84"/>
<path d="M15.2151 14.61C15.0896 14.7626 14.9799 14.6709 14.8136 14.435C14.6474 14.199 14.5078 13.9623 14.6025 13.8514C14.6973 13.7405 14.9566 13.9856 15.063 14.1232C15.1694 14.2607 15.3314 14.47 15.2151 14.61Z" fill="#FECC84"/>
<path d="M16.2382 13.703C16.4402 13.7764 16.4319 13.9131 16.3388 14.1507C16.2457 14.3883 16.1368 14.6017 15.9889 14.5441C15.8409 14.4866 15.8841 14.1557 15.9332 14.0065C15.9822 13.8572 16.0537 13.6355 16.2382 13.703Z" fill="#FECC84"/>
<path d="M17.1035 12.9969C17.1866 13.2128 17.0777 13.2637 16.83 13.282C16.5823 13.3004 16.3421 13.2929 16.284 13.1345C16.2258 12.9761 16.5084 12.8702 16.6563 12.8502C16.8043 12.8302 17.0253 12.8002 17.1035 12.9969Z" fill="#FECC84"/>
<path d="M16.4817 12.4292C16.2997 12.2959 16.3463 12.175 16.505 11.9891C16.6638 11.8032 16.8325 11.6473 16.9646 11.7482C17.0968 11.849 16.9646 12.135 16.8724 12.2533C16.7801 12.3717 16.648 12.5501 16.4817 12.4292Z" fill="#FECC84"/>
<path d="M17.2489 11.4573C17.0453 11.4448 17.0178 11.3047 17.0411 11.0405C17.0644 10.7762 17.1101 10.5253 17.2597 10.5403C17.4093 10.5553 17.4567 10.8996 17.4509 11.0638C17.445 11.228 17.4359 11.4681 17.2489 11.4573Z" fill="#FECC84"/>
<path d="M33.3392 20.1711L55.826 11.323L67.1222 38.505L55.9498 40.8183L39.8729 38.114L33.3392 20.1711Z" fill="#4D82A3"/>
<path d="M55.826 11.323L59.3501 13.9039L67.9874 34.5278L65.0584 37.5105L55.826 11.323Z" fill="#3B657A"/>
<path d="M59.9485 50.9059L62.3639 56.9189L71.9354 28.1264L69.0189 23.6215L59.9485 50.9059Z" fill="#70BBF2"/>
<path d="M83.8043 31.5176L71.9354 28.1264L62.3639 56.9189L74.3732 59.8883L83.8043 31.5176Z" fill="#5D98A8"/>
<path d="M69.0189 23.6215L71.9354 28.1264L72.6303 23.2863L69.0189 23.6215Z" fill="#5D98A8"/>
<path d="M83.3638 23.1872L73.6659 20.1711L72.6302 23.2864L82.4403 26.5675L83.3638 23.1872Z" fill="#5D98A8"/>
<path d="M82.5376 26.1899L72.6303 23.2863L71.9354 28.1264L83.8043 31.5175L82.5376 26.1899Z" fill="#70BBF2"/>
<path d="M52.523 31.4675C53.6035 32.3386 54.3723 33.5849 54.3341 34.8854C55.0323 34.0517 56.2549 33.7408 57.4019 33.5833C57.9895 33.4999 58.5987 33.449 59.1697 33.5966C59.8903 33.7825 60.4996 34.2993 60.7398 34.9379C61.0373 35.7157 60.7946 36.6051 60.2619 37.272C59.7291 37.9389 58.937 38.4099 58.105 38.7492C56.2405 39.4959 54.1945 39.6598 52.2354 39.2194C51.5905 39.0727 50.948 38.8526 50.4543 38.4508C49.7187 37.8514 49.4187 36.9503 49.1036 36.0991C48.7449 35.1251 48.322 34.176 47.8378 33.2581C47.3582 32.3528 46.1755 30.1587 47.9001 29.641C48.6216 29.4251 49.5176 29.8778 50.1592 30.1345C51.0111 30.4797 51.8273 30.9056 52.523 31.4675Z" fill="#3B657A"/>
<path d="M50.2648 30.9582C51.9005 32.1653 54.054 35.9841 51.5206 39.1277C48.9682 42.2955 45.287 42.4555 42.4935 40.6099C39.5844 38.6884 38.1956 33.9959 41.713 30.6381C44.5323 27.9438 47.7954 29.1367 50.2648 30.9582Z" fill="#F49A0B"/>
<path d="M43.7984 30.9065C43.9896 30.8131 44.2048 30.6156 44.0245 30.4414C43.8441 30.2671 43.5981 30.4655 43.4252 30.508C43.1875 30.7273 43.2864 31.1566 43.7984 30.9065Z" fill="#FCBC08"/>
<path d="M43.4244 30.5063L43.7169 30.393C43.6091 30.3948 43.5054 30.4349 43.4244 30.5063V30.5063Z" fill="#FCBC08"/>
<path d="M42.9033 31.3483C42.9756 31.2958 43.0695 31.1816 42.9781 31.1074C42.9639 31.0965 42.9476 31.0887 42.9302 31.0847C42.9127 31.0807 42.8947 31.0806 42.8772 31.0843C42.8597 31.088 42.8432 31.0955 42.8289 31.1063C42.8146 31.1171 42.8029 31.1308 42.7944 31.1466C42.7645 31.1631 42.7385 31.1857 42.718 31.213C42.6975 31.2403 42.683 31.2717 42.6755 31.305C42.6597 31.4659 42.8285 31.4025 42.9033 31.3483Z" fill="#FCBC08"/>
<path d="M44.1558 31.2491C44.1278 31.2343 44.0964 31.2272 44.0648 31.2283C44.0331 31.2295 44.0023 31.239 43.9755 31.2558C43.8924 31.265 43.7835 31.3008 43.7652 31.3708C43.7617 31.3856 43.7617 31.4011 43.7652 31.4159L43.7411 31.4325L43.766 31.4175C43.7893 31.5009 43.9763 31.44 44.0445 31.4217C44.1126 31.4034 44.3029 31.3292 44.1558 31.2491Z" fill="#FCBC08"/>
<path d="M43.7378 31.4325L43.7261 31.4393L43.7378 31.4325Z" fill="#FCBC08"/>
<path d="M44.5589 30.8181C44.4758 30.8423 44.3835 30.9348 44.4309 31.0157C44.4782 31.0966 44.6719 31.0649 44.7401 31.0274C45.016 30.8706 44.6603 30.7573 44.5589 30.8181Z" fill="#FCBC08"/>
<path d="M44.9022 30.3105C44.8457 30.303 44.7426 30.2755 44.6985 30.3263C44.6866 30.3392 44.6794 30.3558 44.6781 30.3734C44.6767 30.3909 44.6813 30.4084 44.6911 30.423C44.6911 30.4813 44.7891 30.533 44.8282 30.5522C44.9113 30.5939 45.3269 30.7298 45.3593 30.5872C45.395 30.4172 45.0036 30.3246 44.9022 30.3105Z" fill="#FCBC08"/>
<path d="M44.4467 30.0245C44.5298 30.0712 44.839 30.0595 44.8698 29.9353C44.9005 29.8111 44.7036 29.7836 44.6204 29.7936C44.5705 29.8079 44.5249 29.8342 44.4875 29.8703C44.4085 29.9095 44.3478 29.972 44.4467 30.0245Z" fill="#FCBC08"/>
<path d="M42.9581 30.7531C43.1169 30.6348 42.9581 30.568 42.836 30.5914C42.7628 30.5831 42.5866 30.6748 42.6315 30.7706C42.6764 30.8665 42.8966 30.799 42.9581 30.7531Z" fill="#FCBC08"/>
<path d="M42.289 31.5125C42.3489 31.4442 42.5309 31.1449 42.3214 31.1332C42.3005 31.1341 42.28 31.1396 42.2613 31.1492C42.2426 31.1589 42.2263 31.1725 42.2134 31.1891C42.1148 31.2624 42.0413 31.3647 42.0031 31.4817C41.9217 31.7576 42.1851 31.6326 42.289 31.5125Z" fill="#FCBC08"/>
<path d="M43.4128 31.5976C43.3212 31.5728 43.224 31.5808 43.1377 31.6201C42.9814 31.6626 42.8002 31.7868 42.772 31.9035C42.703 32.1886 43.2025 31.9869 43.3089 31.9469C43.466 31.8918 43.6447 31.6843 43.4128 31.5976Z" fill="#FCBC08"/>
<path d="M44.2489 31.8218C44.1658 31.8493 44.0826 31.9152 44.0826 31.9811C44.0826 32.1219 44.3694 32.0786 44.4492 32.0411C44.7584 31.8977 44.3578 31.7593 44.2489 31.8218Z" fill="#FCBC08"/>
<path d="M46.2146 30.2371C46.1888 30.2324 46.1622 30.2351 46.1379 30.245C46.1136 30.2549 46.0927 30.2715 46.0775 30.2929C46.1656 30.4655 46.5595 30.4813 46.6501 30.3021C46.5997 30.2372 46.5264 30.1943 46.4453 30.1822C46.3642 30.1701 46.2816 30.1897 46.2146 30.2371V30.2371Z" fill="#FCBC08"/>
<path d="M45.405 30.9749C45.5771 31.0349 46.0434 31.0657 46.0799 30.8231C45.981 30.7606 45.8098 30.7173 45.7059 30.779C45.5605 30.7723 45.4067 30.8215 45.405 30.9749Z" fill="#FCBC08"/>
<path d="M45.7416 29.7103C45.7007 29.6605 45.6419 29.629 45.578 29.6224C45.514 29.6159 45.4501 29.6348 45.4 29.6752C45.3802 29.6855 45.3626 29.6996 45.3483 29.7168C45.334 29.734 45.3233 29.7539 45.3169 29.7753C45.3836 29.8178 45.4633 29.8346 45.5414 29.8227C45.6195 29.8107 45.6906 29.7708 45.7416 29.7103V29.7103Z" fill="#FCBC08"/>
<path d="M47.0083 30.7156C46.6642 30.7206 47.108 31.1599 47.2984 31.0199C47.4679 30.8948 47.1454 30.6264 47.0083 30.7156Z" fill="#FCBC08"/>
<path d="M42.112 32.1411C42.0056 32.0577 41.9158 32.1411 41.8551 32.2395C41.6249 32.3878 41.3481 32.7396 41.5676 32.823C41.8402 32.9289 42.1053 32.3312 42.112 32.1411Z" fill="#FCBC08"/>
<path d="M41.4795 31.6876C41.1828 31.7451 41.3241 32.2386 41.6059 31.901C41.7804 31.691 41.6009 31.6209 41.4795 31.6876Z" fill="#FCBC08"/>
<path d="M43.1642 32.5954C43.1346 32.6048 43.1084 32.6228 43.089 32.6471C43.0696 32.6715 43.0579 32.7011 43.0554 32.7322C43.1667 32.8155 43.461 32.8155 43.5341 32.6713C43.6446 32.4546 43.2623 32.4245 43.1642 32.5954Z" fill="#FCBC08"/>
<path d="M45.7924 31.7826L45.7757 31.7584C45.768 31.7778 45.7635 31.7984 45.7624 31.8193C45.745 31.8476 45.745 31.8735 45.7708 31.8826C45.8331 32.0494 46.1722 32.0494 46.1032 31.8468C46.0342 31.6442 45.8713 31.7042 45.7924 31.7826Z" fill="#FCBC08"/>
<path d="M48.8385 31.3517C48.6382 31.0749 48.2251 31.3517 48.4844 31.435C48.6374 31.5492 49.0347 31.6209 48.8385 31.3517Z" fill="#FCBC08"/>
<path d="M41.7405 33.9843L41.7812 33.9117C41.6565 33.9709 41.5884 34.1326 41.5618 34.2593C41.6798 34.291 42.028 34.0584 42.0181 33.9034C42.0048 33.67 41.8452 33.8359 41.7405 33.9843Z" fill="#FCBC08"/>
<path d="M44.8515 33.2048C44.8573 33.2142 44.8649 33.2224 44.8738 33.2289C44.8828 33.2353 44.8929 33.2399 44.9037 33.2424C44.9144 33.2449 44.9256 33.2452 44.9365 33.2433C44.9473 33.2415 44.9577 33.2374 44.967 33.2315C45.1108 33.249 45.3743 33.2123 45.2621 33.0581C45.1499 32.9039 44.8906 33.0839 44.8515 33.2048Z" fill="#FCBC08"/>
<path d="M40.5553 33.0506C40.5396 33.0888 40.5336 33.1303 40.5378 33.1714C40.7132 33.2315 41.1595 33.1814 41.0124 32.8913C40.8811 32.6338 40.606 32.8438 40.5553 33.0506Z" fill="#FCBC08"/>
<path d="M41.1661 32.3028H41.1703C41.1486 32.2974 41.1259 32.2971 41.1041 32.3019C41.0822 32.3068 41.0618 32.3166 41.0443 32.3306C41.0269 32.3446 41.0129 32.3625 41.0035 32.3828C40.994 32.4032 40.9894 32.4254 40.9899 32.4478C41.0173 32.462 41.0473 32.4702 41.0781 32.4719C41.1088 32.4735 41.1396 32.4686 41.1683 32.4574C41.197 32.4462 41.2229 32.429 41.2445 32.4069C41.2661 32.3849 41.2827 32.3585 41.2933 32.3295C41.2551 32.3065 41.2103 32.2971 41.1661 32.3028V32.3028Z" fill="#FCBC08"/>
<path d="M42.1311 32.0052C41.2418 28.3456 37.3994 26.0031 36.9929 24.586C36.5865 23.1688 36.4178 12.2484 36.4178 12.2484L29.8832 13.4154L23.3171 14.3933C23.3171 14.3933 26.626 24.8044 26.6891 26.2765C26.7523 27.7487 23.8541 31.1949 24.1724 34.9462C24.4907 38.6975 27.487 61.052 28.6091 62.1782C29.6597 63.2336 35.1752 62.9543 37.8814 62.505C40.6749 62.0407 45.907 60.5701 46.5678 59.2347C47.2743 57.8117 43.0204 35.6657 42.1311 32.0052Z" fill="#D8E1EA"/>
<path d="M36.2482 24.7285C36.0462 23.9849 35.8509 20.5779 35.7129 17.5794L25.6784 19.2241C26.4988 22.111 27.3948 25.4029 27.4396 26.1724C27.5228 27.6062 25.1008 30.9023 25.4449 34.5619C25.789 38.2216 28.7928 60.035 29.7777 61.1545C30.6994 62.2016 35.4295 62.0365 37.7409 61.6547C40.1297 61.2571 44.5913 59.9274 45.1324 58.6403C45.7142 57.2657 41.6332 35.6323 40.7996 32.0477C39.9659 28.4632 36.6247 26.114 36.2482 24.7285Z" fill="#C65885"/>
<path d="M35.713 17.5794C35.7437 17.7695 33.5262 18.2905 30.7601 18.7465C27.9941 19.2025 25.7267 19.4134 25.6951 19.2241C25.6635 19.0349 27.8819 18.5131 30.6479 18.0571C33.414 17.6011 35.6822 17.3902 35.713 17.5794Z" fill="#F46EAB"/>
<path opacity="0.25" d="M42.0879 31.9836C41.1977 28.3239 37.3561 25.9815 36.9489 24.5685C36.5416 23.1555 36.3746 12.2267 36.3746 12.2267L32.8006 12.8661C32.8397 15.0218 33.0125 23.4739 33.3666 24.7035C33.7739 26.1207 37.6155 28.459 38.5056 32.1228C39.3958 35.7865 43.6488 57.9284 42.9432 59.3547C42.2782 60.6885 37.0503 62.1607 34.2568 62.625C33.6675 62.7226 32.9452 62.8126 32.1639 62.8826C34.0622 62.9072 35.9592 62.7748 37.8357 62.4867C40.6292 62.0215 45.8605 60.5518 46.5213 59.2164C47.2311 57.79 42.9772 35.644 42.0879 31.9836Z" fill="#47332F"/>
<path d="M22.8666 13.1387C22.8666 13.1387 22.4228 13.4596 22.5882 14.119C23.0711 16.0522 27.9957 14.9385 30.2522 14.58C36.2216 13.6305 36.9156 12.801 37.027 12.0791C37.1616 11.2047 36.205 10.9537 36.205 10.9537L22.8666 13.1387Z" fill="#2E2A29"/>
<path d="M29.9888 11.0046C25.715 11.6148 22.8484 12.5101 22.7786 13.4037C22.7088 14.2974 26.6019 13.8506 30.5307 13.1537C33.7789 12.581 37.6961 11.9382 36.5907 11.1288C35.4852 10.3193 32.9095 10.5886 29.9888 11.0046Z" fill="#423D3C"/>
<path opacity="0.48" d="M23.4451 13.337C23.5091 13.4587 23.6878 13.4979 23.8466 13.5196C25.3036 13.7122 26.8196 13.4171 28.2899 13.1245C28.7405 13.0437 29.1862 12.9374 29.6248 12.806C29.7137 12.7777 29.8151 12.7343 29.8309 12.6568C29.8321 12.6289 29.8259 12.6011 29.8129 12.5763C29.7999 12.5515 29.7806 12.5307 29.7569 12.5159C29.5599 12.3592 29.2433 12.3667 28.9623 12.4009C28.4321 12.4659 27.9109 12.5959 27.3831 12.6693C26.9921 12.7321 26.5942 12.7389 26.2012 12.6893C26.035 12.6651 25.7981 12.6326 25.6759 12.5384C25.5538 12.4442 25.1257 12.3842 24.1649 12.736C23.884 12.8385 23.2731 13.0128 23.4451 13.337Z" fill="white"/>
<path opacity="0.48" d="M26.2079 18.1212C27.0423 20.0126 27.6387 22.0008 27.9832 24.04C28.0289 24.3092 28.0722 24.5851 28.201 24.8252C28.3298 25.0653 28.5659 25.267 28.8376 25.2754C29.151 25.2854 29.4261 25.0311 29.5308 24.7352C29.6356 24.4393 29.5998 24.1125 29.5308 23.8065C29.343 22.9471 28.9174 22.1626 28.6058 21.3407C28.3042 20.5472 28.1086 19.7172 28.0239 18.8723C27.95 18.1371 27.8361 16.8533 26.9617 16.5665C25.8871 16.2114 25.9178 17.4652 26.2079 18.1212Z" fill="white"/>
<path opacity="0.48" d="M26.7498 31.7985C26.7082 32.1494 26.7032 32.5229 26.8694 32.8338C27.0357 33.1448 27.4238 33.3615 27.7496 33.2273C27.999 33.1256 28.1395 32.8605 28.1918 32.5988C28.2442 32.337 28.2259 32.0652 28.2566 31.8001C28.3398 31.0932 28.7553 30.4772 29.1036 29.8586C29.2449 29.6086 29.3812 29.3068 29.2598 29.0467C29.1651 28.8416 28.9315 28.7316 28.7071 28.7199C27.3831 28.6524 26.8703 30.7698 26.7498 31.7985Z" fill="white"/>
<path d="M7.77292 41.4352C7.05315 42.0887 6.31341 42.8815 5.34429 42.929C5.01589 42.9452 4.68939 42.8705 4.40046 42.7131C4.11152 42.5558 3.87127 42.3218 3.70596 42.0367C3.54065 41.7517 3.45664 41.4265 3.46312 41.0968C3.46959 40.7671 3.56629 40.4455 3.74266 40.1672C3.992 39.7804 4.39595 39.4436 4.39345 38.9852C4.37811 38.8031 4.33464 38.6245 4.26462 38.4558C3.94297 37.4855 4.01944 36.3351 4.66441 35.5431C5.30939 34.7512 6.58354 34.4727 7.39308 35.0946C7.68398 35.3172 7.89925 35.6315 8.20512 35.8324C8.87004 36.2675 9.74109 36.0575 10.5323 36.0441C12.3833 36.0124 14.044 37.1278 15.4918 38.2866C15.9905 38.6834 16.5017 39.1252 16.6945 39.7329C16.9846 40.6499 16.3986 41.6844 15.5375 42.1021C14.6765 42.5197 13.6367 42.4097 12.7582 42.0312C11.8796 41.6527 11.1449 40.7032 10.2281 40.4948C9.328 40.2906 8.41042 40.8575 7.77292 41.4352Z" fill="#73BA65"/>
<path d="M17.9404 23.8332C18.0659 23.3852 18.309 22.9793 18.6444 22.6578C18.9798 22.3364 19.3952 22.1112 19.8471 22.0059C20.1388 21.9417 20.458 21.9225 20.694 21.74C20.96 21.5332 21.0481 21.1764 21.2227 20.8888C21.7496 20.0235 23.2174 20.0002 23.7693 20.8488C24.3262 20.3128 25.3103 20.5062 25.8381 21.0714C26.3658 21.6366 26.5346 22.446 26.6027 23.2171C26.754 24.9186 26.478 26.7467 25.3859 28.0572C24.9911 28.5315 24.4716 28.9833 24.4251 29.5994C24.3918 30.0162 24.5913 30.4247 24.5764 30.844C24.5656 31.1357 24.4517 31.4125 24.3362 31.6776C23.7474 33.0411 23.0639 34.3615 22.2907 35.629C21.6914 36.6101 20.9126 37.6438 19.7789 37.8231C18.6602 38.0006 17.5531 37.2245 17.0361 36.2158C16.5192 35.2072 16.4726 34.0192 16.5549 32.8863C16.6815 31.1542 17.0708 29.4515 17.7094 27.8371C17.9305 27.2769 18.3801 26.6633 18.3186 26.049C18.2347 25.2345 17.6969 24.7477 17.9404 23.8332Z" fill="#568E4C"/>
<path d="M8.38882 40.1072C7.70145 40.2789 6.92266 40.5374 6.33088 40.1464C5.61277 39.6704 5.62357 38.5025 4.89548 38.0415C4.16739 37.5805 3.06695 38.0665 2.42696 37.493C1.85679 36.9828 2.07871 36.025 1.72464 35.3456C1.57088 35.0513 1.31488 34.8229 1.15613 34.5311C0.76133 33.8067 1.09047 32.8514 1.70968 32.307C2.32889 31.7626 3.1642 31.5442 3.97623 31.405C4.67024 31.2858 5.55126 31.0324 5.60362 30.328C5.6244 30.0437 5.48726 29.7753 5.42742 29.4944C5.21631 28.5207 5.93858 27.617 6.61098 26.8834C6.94344 26.5191 7.35237 26.1248 7.84275 26.1715C8.02395 26.1882 8.19433 26.2666 8.37303 26.2982C8.65562 26.3474 8.94486 26.2791 9.2233 26.2149L11.5829 25.6413C11.9561 25.5505 12.3376 25.4596 12.7199 25.4955C13.596 25.5788 14.2825 26.3124 14.664 27.1069C15.0455 27.9013 15.2093 28.7849 15.5534 29.5969C15.6307 29.7795 15.7246 29.9678 15.8916 30.0737C16.0587 30.1796 16.269 30.1871 16.4676 30.2038C17.0998 30.2527 17.7089 30.463 18.2371 30.8148C19.1514 31.4409 19.7174 32.5187 19.8354 33.6258C19.9535 34.7328 19.6576 35.8591 19.1265 36.8369C18.646 37.7072 17.9887 38.4667 17.1973 39.0663C16.4059 39.6659 15.4979 40.0924 14.5319 40.3181C13.4672 40.5607 12.3276 40.559 11.351 41.0475C11.1133 41.1659 10.8706 41.3168 10.603 41.2976C10.0212 41.251 10.3163 40.6182 10.0544 40.3306C9.6796 39.9096 8.87255 39.9863 8.38882 40.1072Z" fill="#568E4C"/>
<path d="M13.6907 36.8111C13.4879 36.601 13.2884 36.3693 13.2186 36.085C13.0748 35.4956 13.527 34.8579 13.3117 34.2902C13.1048 33.7442 12.3459 33.4757 12.3202 32.8914C12.3027 32.4979 12.6526 32.1086 12.4972 31.7451C12.4349 31.5968 12.2961 31.4842 12.2578 31.3283C12.1872 31.0391 12.4822 30.7856 12.5122 30.4897C12.577 29.8395 11.4541 29.6469 11.3768 28.9984C11.3161 28.4915 11.9328 28.1647 12.0733 27.6762C12.1996 27.2386 11.922 26.7993 11.8181 26.3558C11.563 25.2629 12.6318 24.0841 13.7414 24.235C13.9633 24.2659 14.1844 24.3392 14.4064 24.3101C14.7455 24.2659 15.0039 23.9983 15.2683 23.7807C15.7088 23.4164 16.372 23.1638 16.8325 23.5023C17.0478 23.6607 17.1724 23.9191 17.3877 24.0758C17.9645 24.4926 18.9029 24.0225 19.4332 24.5001C19.5994 24.6485 19.6892 24.8669 19.8579 25.0103C20.0657 25.1887 20.3566 25.2245 20.6176 25.3021C21.0439 25.4296 21.4487 25.7072 21.6199 26.1199C21.7305 26.3891 21.7338 26.6884 21.7346 26.9793L21.7421 28.4015C21.7421 28.985 21.7421 29.5936 21.4529 30.0987C21.3589 30.2655 21.2334 30.4197 21.2035 30.6081C21.1586 30.8673 21.2983 31.1182 21.4354 31.3425C22.0879 32.4129 22.806 33.69 22.3222 34.8437C22.1901 35.1605 21.9715 35.4439 21.8984 35.779C21.8402 36.0441 21.8784 36.3192 21.8917 36.591C21.9399 37.5513 21.6424 38.5708 20.9176 39.2002C18.9885 40.8741 15.0347 38.2007 13.6907 36.8111Z" fill="#73BA65"/>
<path d="M7.18117 45.3632C7.0457 44.3145 7.50449 43.2683 8.13783 42.423C8.77117 41.5777 9.57906 40.8808 10.2872 40.0972C11.4899 38.7634 12.41 37.1795 13.7232 35.9599C15.1312 34.6511 16.9115 33.8325 18.6594 33.0347C21.556 31.7134 24.5007 30.3763 27.65 29.912C27.7636 29.8834 27.8835 29.8925 27.9916 29.9378C28.098 29.9962 28.152 30.1179 28.1985 30.2304C30.6039 36.0263 33.009 41.8219 35.4138 47.6173C35.5958 48.0566 35.7786 48.5576 35.5875 48.9928C35.4561 49.2929 35.1719 49.493 34.9018 49.6755C32.9268 51.0094 30.8856 52.2419 28.7862 53.3685C26.5346 54.5764 24.1026 55.6876 21.5501 55.5959C20.251 55.5492 19.2445 55.3567 18.43 54.3355C17.411 53.0575 16.3812 51.8221 15.1885 50.6959C12.8417 48.4738 10.1336 46.6703 7.18117 45.3632Z" fill="#B2C1DB"/>
<path d="M26.3234 35.6782C25.8413 35.2438 25.2379 34.7529 25.316 34.1085C25.3401 33.9084 25.4324 33.715 25.4133 33.5149C25.3726 33.0981 24.873 32.8397 24.8082 32.4221C24.7675 32.1545 24.9171 31.8927 24.9162 31.6218C24.9162 31.205 24.5838 30.9123 24.184 30.7181C22.3364 31.335 20.5427 32.1503 18.7674 32.9606C17.022 33.7575 15.24 34.577 13.832 35.8857C12.518 37.107 11.5979 38.6917 10.3952 40.023C10.2431 40.1897 10.086 40.3565 9.92725 40.5182C10.022 40.8675 9.61391 41.2751 9.82502 41.5927C10.0195 41.8845 10.5074 41.6569 10.8116 41.8303C11.2878 42.1012 10.8798 42.9707 11.2912 43.3308C11.4142 43.44 11.5854 43.4734 11.7483 43.4976C12.4504 43.5961 13.1635 43.584 13.8619 43.4617C14.3864 43.37 15.0671 43.2833 15.3214 43.7535C15.5217 44.1244 15.2973 44.6355 15.5375 44.9814C15.6539 45.1481 15.8534 45.2315 16.042 45.3149L17.5381 45.9226C17.817 46.0237 18.0831 46.1571 18.331 46.3202C18.4915 46.439 18.6382 46.5754 18.7682 46.727C19.2179 47.233 19.5545 47.8357 20.0432 48.3042C20.5319 48.7727 21.2517 49.0928 21.8842 48.8544C22.1643 48.7494 22.397 48.5451 22.6738 48.4301C23.2323 48.1992 23.8823 48.3693 24.4101 48.6644C24.9379 48.9595 25.3925 49.3721 25.9153 49.6755C27.1271 50.3775 28.8468 50.3541 29.7735 49.3013C29.9788 49.0759 30.1263 48.8038 30.2032 48.5085C30.2863 48.1509 30.2423 47.7765 30.1966 47.4114L29.8126 44.3862C29.7245 43.6876 29.6339 42.9799 29.3712 42.3271C29.2424 42.0062 29.0712 41.6953 29.0305 41.3518C28.9764 40.8925 29.1626 40.4348 29.1078 39.9722C29.067 39.627 28.8933 39.3144 28.7221 39.0127C28.048 37.8139 27.3432 36.5993 26.3234 35.6782Z" fill="#8DA87B"/>
<path d="M16.0047 33.3832C15.5891 33.5232 15.166 33.7116 14.7313 33.6566C14.8976 33.4407 15.1976 33.3849 15.4636 33.3232C16.1178 33.1635 16.729 32.8616 17.2539 32.4387C17.3073 32.4043 17.3472 32.3525 17.3669 32.292C17.3727 32.2445 17.3643 32.1963 17.3428 32.1536C17.1093 31.5859 16.392 31.4175 15.7794 31.4108C15.1669 31.4042 14.4978 31.465 14.0032 31.1041C14.398 30.8607 14.9001 31.0549 15.3497 31.1666C15.8375 31.2873 16.3453 31.3018 16.8391 31.2091C17.0195 31.1749 17.2082 31.1199 17.3295 30.9824C17.5514 30.7323 17.4342 30.3055 17.1782 30.0871C16.9222 29.8686 16.5748 29.7994 16.2457 29.7286C15.235 29.5093 14.1603 29.1367 13.6035 28.2631L16.0504 29.2159C16.2075 29.2768 16.4211 29.3234 16.5166 29.1834C16.628 29.0167 16.4435 28.8174 16.2814 28.7032C15.5924 28.2185 14.9404 27.6829 14.3307 27.101C14.1553 26.9343 13.9692 26.7284 13.9883 26.4858C13.9886 26.4557 13.9985 26.4265 14.0165 26.4024C14.0772 26.3341 14.1828 26.4024 14.2484 26.4708C14.8226 27.0905 15.4285 27.6798 16.0637 28.2364C16.1967 28.3531 16.3612 28.4765 16.5341 28.4356C16.7219 28.3906 16.8134 28.1605 16.7785 27.9705C16.7436 27.7804 16.6205 27.6203 16.5075 27.4636C16.0238 26.7967 15.6539 25.9573 15.8567 25.1578C15.9041 24.9711 16.067 24.7552 16.2415 24.8344C16.2803 24.8586 16.3137 24.8905 16.3399 24.928C16.366 24.9655 16.3843 25.008 16.3936 25.0528C16.4834 25.3321 16.5058 25.6272 16.5532 25.9164C16.692 26.7692 17.0411 27.5712 17.3844 28.3623C17.46 28.5348 17.5847 28.7382 17.7709 28.7174C17.8889 28.7049 17.9745 28.6032 18.0468 28.5098C18.4516 27.9846 18.8913 27.4153 19.5312 27.2444C19.5836 27.6687 19.1497 27.9663 18.8148 28.2306C18.4147 28.5461 18.0908 28.9482 17.8673 29.4068C17.7975 29.5494 17.7451 29.7403 17.8573 29.852C17.9537 29.9487 18.115 29.9253 18.2438 29.8811C18.8655 29.6669 19.3999 29.1259 20.0565 29.1617C19.5628 30.0987 18.4084 30.558 17.9612 31.5184C17.9157 31.5972 17.8987 31.6893 17.913 31.7793C17.9529 31.936 18.1548 31.9977 18.3103 31.956C18.4657 31.9143 18.592 31.801 18.7258 31.7126C19.001 31.5342 19.3267 31.4508 19.6534 31.475C19.5011 31.8732 19.2159 32.2061 18.8464 32.417C18.538 32.5921 18.1632 32.6896 17.957 32.9789C17.8531 33.1248 17.8016 33.3123 17.667 33.4299C17.4243 33.6424 17.1508 33.3048 16.904 33.2631C16.6089 33.2048 16.2848 33.2881 16.0047 33.3832Z" fill="#85D375"/>
<path d="M10.5315 38.7442C10.426 38.8368 10.2282 38.9051 10.1766 38.7743C10.1484 38.7026 10.1966 38.6259 10.2415 38.5642C10.8151 37.7788 11.3318 36.953 11.7874 36.0933C11.883 35.9363 11.9463 35.7617 11.9736 35.5798C11.9894 35.3972 11.9187 35.1947 11.7583 35.1063C11.4591 34.9396 11.1242 35.2488 10.9272 35.5306C10.0611 36.7927 9.38622 38.2774 8.08962 39.086C7.96871 39.173 7.82766 39.2275 7.67986 39.2444C7.60582 39.2509 7.53163 39.2338 7.46789 39.1955C7.40415 39.1571 7.35413 39.0996 7.32497 39.031C7.28341 38.9001 7.34823 38.7601 7.42387 38.6459C7.67321 38.2724 8.04807 38.0065 8.39549 37.7222C9.24454 37.0266 9.95705 36.1785 10.4966 35.2213C10.5798 35.068 10.667 34.8962 10.6313 34.7212C10.5864 34.5053 10.3562 34.366 10.1326 34.3644C9.91168 34.3779 9.70059 34.4607 9.52917 34.6011C8.6814 35.2163 8.28245 36.3217 7.40392 36.8961C7.25016 36.9978 7.0432 37.0787 6.89026 36.9795C7.66988 35.7857 9.05958 34.9963 9.51505 33.645C8.81273 33.4149 8.0863 33.8667 7.47789 34.2877C6.86949 34.7087 6.12062 35.1388 5.43243 34.8712C5.31108 34.8237 5.18308 34.7187 5.20884 34.592C5.22486 34.5393 5.25575 34.4924 5.29778 34.4569C5.66017 34.0985 6.16966 33.9392 6.65755 33.79L8.31985 33.2898C8.60992 33.2065 8.94737 33.0664 9.00722 32.7688C9.05958 32.5112 8.87091 32.2686 8.67476 32.0944C7.93171 31.4175 6.87115 30.9565 6.58357 29.992C6.56702 29.9524 6.5585 29.9099 6.5585 29.867C6.5585 29.824 6.56702 29.7815 6.58357 29.7419C6.61813 29.6952 6.66812 29.6624 6.72461 29.6493C6.7811 29.6361 6.84041 29.6436 6.89193 29.6703C6.99176 29.7275 7.07709 29.8071 7.14127 29.9028C7.70557 30.6064 8.3468 31.2442 9.05292 31.8043C9.12289 31.8697 9.20896 31.9151 9.30227 31.936C9.45271 31.9552 9.59401 31.841 9.6605 31.7043C9.71458 31.5621 9.74274 31.4113 9.74362 31.2591C9.8093 30.4654 10.0287 29.6921 10.3894 28.9825C10.4559 28.8516 10.5723 28.7032 10.7136 28.7416C10.8549 28.7799 10.8798 28.9842 10.859 29.1367C10.7207 30.3492 10.4196 31.5373 9.96387 32.6688C9.88076 32.878 9.8018 33.1481 9.96387 33.3023C10.0836 33.4149 10.283 33.3949 10.4193 33.3023C10.5481 33.1993 10.6526 33.0689 10.7252 32.9206L11.5913 31.4542C11.7442 31.7927 11.6145 32.1886 11.455 32.5246C11.2954 32.8605 11.0984 33.204 11.1225 33.5749C11.1466 33.9459 11.5223 34.316 11.8639 34.1718C12.0592 34.0885 12.1639 33.8809 12.3086 33.7267C12.5338 33.4849 12.5645 33.8542 12.5679 33.9876C12.5712 34.121 12.4449 34.2152 12.4922 34.3694C12.5396 34.5236 12.7083 34.5303 12.769 34.6428C12.9751 35.0229 12.6219 35.2313 12.4366 35.5748C11.834 36.6877 11.5239 37.8731 10.5315 38.7442Z" fill="#73BA65"/>
<path opacity="0.47" d="M10.209 45.3857C10.6728 45.5583 11.2064 45.3582 11.5696 45.0181C11.9329 44.678 12.1514 44.222 12.3717 43.7768C13.3973 41.6928 14.5493 39.5745 16.3803 38.1457C17.3187 37.4138 18.4117 36.8819 19.2719 36.0616C19.5071 35.8374 19.734 35.4781 19.5421 35.2122C19.3634 34.9679 18.9843 35.0388 18.7109 35.1638C16.9655 35.9583 15.9265 37.8239 14.2567 38.7676C13.5353 39.1752 12.6834 39.4228 12.1598 40.0664C11.7907 40.5207 11.6411 41.1084 11.4308 41.6544C11.2205 42.2004 10.8997 42.7606 10.3578 42.9799C9.79347 43.2083 9.41446 43.255 9.39534 43.8969C9.37705 44.4587 9.64718 45.1773 10.209 45.3857Z" fill="white"/>
<path d="M65.9361 37.3946C66.9335 39.1669 67.3491 43.5351 63.7527 45.3624C60.1338 47.203 56.7062 45.8425 54.91 43.0124C53.0424 40.068 53.6849 35.2147 58.2637 33.5924C61.9341 32.2928 64.4251 34.7195 65.9361 37.3946Z" fill="#FF8C03"/>
<path d="M60.0566 34.6953C60.2685 34.6886 60.5461 34.5961 60.4522 34.3619C60.3583 34.1276 60.0532 34.2085 59.8779 34.1768C59.572 34.281 59.4872 34.7128 60.0566 34.6953Z" fill="#FCBC08"/>
<path d="M59.8812 34.1776L60.1946 34.1935C60.0952 34.1515 59.9843 34.1458 59.8812 34.1776V34.1776Z" fill="#FCBC08"/>
<path d="M59.0592 34.7312C59.1473 34.7128 59.2811 34.652 59.2254 34.5419C59.2171 34.5262 59.2054 34.5124 59.1911 34.5017C59.1769 34.4909 59.1605 34.4834 59.1431 34.4797C59.1257 34.4759 59.1077 34.4761 59.0903 34.4801C59.0729 34.484 59.0567 34.4918 59.0426 34.5028C59.0085 34.5056 58.9755 34.5156 58.9455 34.5321C58.9156 34.5486 58.8895 34.5713 58.8689 34.5986C58.7891 34.7387 58.967 34.7503 59.0592 34.7312Z" fill="#FCBC08"/>
<path d="M60.2436 35.1538C60.2239 35.1294 60.1983 35.1104 60.1692 35.0986C60.1401 35.0868 60.1085 35.0825 60.0774 35.0863C59.9943 35.0596 59.8837 35.0496 59.838 35.1055C59.8279 35.1169 59.8208 35.1306 59.8172 35.1455L59.7881 35.1505H59.8172C59.8056 35.2339 60.0001 35.2564 60.0666 35.268C60.1331 35.2797 60.3442 35.2889 60.2436 35.1538Z" fill="#FCBC08"/>
<path d="M60.7863 34.9262C60.7032 34.9146 60.5785 34.9612 60.5893 35.0538C60.6001 35.1463 60.7888 35.198 60.8661 35.1913C61.1811 35.1647 60.9043 34.9121 60.7863 34.9262Z" fill="#FCBC08"/>
<path d="M61.3066 34.6036C61.2584 34.5736 61.1753 34.5061 61.1146 34.5344C61.0993 34.5419 61.0866 34.5538 61.0783 34.5688C61.0699 34.5837 61.0664 34.6008 61.0681 34.6178C61.0481 34.672 61.113 34.7578 61.1404 34.7912C61.1986 34.8629 61.526 35.1596 61.6116 35.0413C61.7097 34.9037 61.3947 34.6586 61.3066 34.6036Z" fill="#FCBC08"/>
<path d="M61.0074 34.1568C61.0664 34.2335 61.3515 34.3486 61.4304 34.2485C61.5094 34.1485 61.3398 34.0409 61.2642 34.0184C61.2131 34.0105 61.1607 34.0157 61.1121 34.0334C61.0199 34.0384 60.9384 34.0676 61.0074 34.1568Z" fill="#FCBC08"/>
<path d="M59.3517 34.2102C59.5454 34.1677 59.4307 34.0434 59.3069 34.0134H59.311C59.2487 33.9751 59.0475 33.9826 59.0517 34.0926C59.0559 34.2027 59.2769 34.2268 59.3517 34.2102Z" fill="#FCBC08"/>
<path d="M58.4317 34.6295C58.5148 34.5911 58.8024 34.3927 58.6162 34.296C58.5967 34.2883 58.5757 34.285 58.5548 34.2861C58.5338 34.2873 58.5134 34.2929 58.4948 34.3027C58.3748 34.3292 58.2659 34.3924 58.1831 34.4836C57.9961 34.7053 58.2887 34.6962 58.4317 34.6295Z" fill="#FCBC08"/>
<path d="M59.4233 35.1671C59.3491 35.1078 59.2572 35.0752 59.1623 35.0746C59.0027 35.0504 58.7858 35.0896 58.7134 35.1838C58.5347 35.4156 59.0733 35.4339 59.1855 35.4431C59.3518 35.4556 59.5995 35.3422 59.4233 35.1671Z" fill="#FCBC08"/>
<path d="M60.094 35.7149C60.0109 35.7074 59.9053 35.7324 59.8796 35.7932C59.8255 35.9233 60.1015 35.9999 60.1896 35.9983C60.5287 35.9933 60.2187 35.7057 60.094 35.7149Z" fill="#FCBC08"/>
<path d="M62.5342 35.0746C62.5122 35.0604 62.4865 35.0529 62.4603 35.0529C62.434 35.0529 62.4084 35.0604 62.3863 35.0746C62.3971 35.2672 62.7495 35.4431 62.9049 35.318C62.8864 35.2373 62.8375 35.1669 62.7684 35.1216C62.6993 35.0762 62.6154 35.0594 62.5342 35.0746V35.0746Z" fill="#FCBC08"/>
<path d="M61.4944 35.4164C61.6274 35.5423 62.0397 35.7615 62.1718 35.5548C62.1078 35.4572 61.969 35.3481 61.8493 35.3614C61.7197 35.2955 61.5593 35.2772 61.4944 35.4164Z" fill="#FCBC08"/>
<path d="M62.3173 34.4002C62.2991 34.3388 62.2581 34.2868 62.2027 34.2548C62.1473 34.2229 62.0819 34.2134 62.0198 34.2285C61.9977 34.2299 61.9761 34.2357 61.9562 34.2456C61.9364 34.2554 61.9187 34.2692 61.9042 34.286C61.9477 34.3519 62.0135 34.3998 62.0894 34.4208C62.1654 34.4418 62.2463 34.4345 62.3173 34.4002V34.4002Z" fill="#FCBC08"/>
<path d="M63.0637 35.8382C62.7479 35.7015 62.9731 36.2834 63.2042 36.2334C63.4103 36.1892 63.225 35.8116 63.0637 35.8382Z" fill="#FCBC08"/>
<path d="M58.0145 35.1296C57.9513 35.0087 57.8358 35.0462 57.7393 35.1146C57.4692 35.1555 57.0744 35.3647 57.2407 35.5314C57.4451 35.7373 57.9305 35.3013 58.0145 35.1296Z" fill="#FCBC08"/>
<path d="M57.6221 34.4553C57.3279 34.3861 57.2548 34.8946 57.6496 34.7053C57.8948 34.5836 57.7585 34.4494 57.6221 34.4553Z" fill="#FCBC08"/>
<path d="M58.7891 35.9766C58.7579 35.9729 58.7263 35.9789 58.6986 35.9938C58.671 36.0087 58.6486 36.0318 58.6345 36.06C58.7026 36.1783 58.9669 36.3042 59.0958 36.2008C59.2853 36.0433 58.9486 35.8607 58.7891 35.9766Z" fill="#FCBC08"/>
<path d="M61.5186 36.3117L61.5136 36.2834C61.4988 36.2981 61.4862 36.315 61.4762 36.3334C61.4488 36.3526 61.4388 36.3759 61.4587 36.3951C61.4488 36.5685 61.7563 36.7127 61.7804 36.5001C61.8045 36.2875 61.6266 36.2734 61.5186 36.3117Z" fill="#FCBC08"/>
<path d="M64.4742 37.1687C64.4043 36.8352 63.9156 36.9144 64.1159 37.1028C64.2107 37.2662 64.5431 37.4954 64.4742 37.1687Z" fill="#FCBC08"/>
<path d="M56.9231 36.6602L56.9904 36.6101C56.8525 36.6101 56.7236 36.7327 56.648 36.8377C56.7428 36.9153 57.1558 36.8452 57.2099 36.7002C57.2922 36.4809 57.0769 36.5651 56.9231 36.6602Z" fill="#FCBC08"/>
<path d="M60.0798 37.2245C60.0813 37.2356 60.0849 37.2463 60.0905 37.2559C60.0961 37.2656 60.1036 37.274 60.1125 37.2807C60.1214 37.2873 60.1316 37.2922 60.1424 37.2948C60.1532 37.2975 60.1644 37.298 60.1754 37.2962C60.2993 37.3704 60.5544 37.4463 60.5154 37.2587C60.4763 37.0711 60.1654 37.1303 60.0798 37.2245Z" fill="#FCBC08"/>
<path d="M56.2241 35.3222C56.1941 35.3504 56.1716 35.3856 56.1584 35.4247C56.2948 35.5514 56.7228 35.689 56.7062 35.363C56.6896 35.0754 56.3529 35.1538 56.2241 35.3222Z" fill="#FCBC08"/>
<path d="M57.0852 34.8896H57.091C57.0732 34.8761 57.0526 34.8668 57.0307 34.8625C57.0089 34.8581 56.9863 34.8588 56.9647 34.8644C56.9431 34.87 56.9231 34.8804 56.9061 34.8949C56.8891 34.9093 56.8756 34.9275 56.8666 34.9479C56.8856 34.9723 56.9096 34.9922 56.9369 35.0065C56.9643 35.0208 56.9943 35.029 57.0251 35.0307C57.0559 35.0323 57.0867 35.0274 57.1154 35.0161C57.1441 35.0049 57.1701 34.9876 57.1916 34.9654C57.1657 34.9288 57.1282 34.902 57.0852 34.8896V34.8896Z" fill="#FCBC08"/>
<path opacity="0.7" d="M55.0747 40.8058C54.2942 40.9725 56.3131 44.4921 58.2912 45.2898C60.8379 46.3177 63.3438 45.2398 64.3395 44.3954C65.3352 43.5509 66.5188 40.4148 65.7807 40.339C65.5173 40.3123 65.3352 41.4752 63.6921 42.6206C62.2492 43.6268 60.2303 44.3503 58.4018 43.4175C55.8992 42.1396 55.5908 40.6949 55.0747 40.8058Z" fill="#F28106"/>
<path d="M64.8681 36.1325C64.8681 36.1325 64.4525 35.9658 64.4367 36.4426C64.4209 36.9195 65.1017 38.0057 65.4341 38.0223C65.7666 38.039 65.9228 37.7172 65.6535 37.2195C65.3842 36.7219 65.2163 36.3484 64.8681 36.1325Z" fill="#7C6A13"/>
<path d="M65.1324 36.8978C65.1324 36.8978 66.7881 36.2309 67.3076 35.9349C67.827 35.639 69.3264 34.296 69.3264 34.296C69.3264 34.296 69.4927 34.1918 69.619 34.2802C69.7453 34.3685 69.6132 34.5594 69.6132 34.5594C69.6132 34.5594 68.1005 35.8241 67.5818 36.1267C66.5271 36.741 65.2305 37.3429 65.2305 37.3429L65.1324 36.8978Z" fill="#7C6A13"/>
<path d="M68.093 35.5723C68.0298 35.5281 66.3318 34.4969 66.3318 34.4969L66.2162 34.5728L67.0757 35.143L67.9334 35.7115L68.093 35.5723Z" fill="#7C6A13"/>
<path d="M63.2623 35.9349C61.1138 35.5606 58.8805 32.8997 58.8805 32.8997C58.8805 32.8997 61.7779 31.5301 63.4859 32.0961C65.1939 32.6621 67.4439 35.243 67.4439 35.243C67.4439 35.243 65.4159 36.3092 63.2623 35.9349Z" fill="#7C6A13"/>
<path d="M64.8282 36.2592C64.8282 36.2592 64.5947 36.3926 64.608 36.636C64.6263 36.9694 65.0585 37.5105 65.0585 37.5105L65.2621 37.177C65.2621 37.177 65.1582 37.0103 65.179 36.9111C65.1882 36.8607 65.2151 36.8152 65.2546 36.7827L64.8282 36.2592Z" fill="#937B18"/>
<path d="M66.7922 35.0079C66.7922 35.0079 65.1432 34.0426 63.5507 33.5858C61.9583 33.1289 59.3709 32.8313 59.3543 32.9455C59.3376 33.0597 62.1951 33.2348 63.441 33.6958C64.6869 34.1568 66.813 35.2055 66.813 35.2055L66.7922 35.0079Z" fill="#937B18"/>
<path d="M66.0084 34.722C66.0084 34.722 65.8713 34.9196 65.4316 35.1713C64.9919 35.4231 64.4517 35.7549 64.5115 35.7715C64.5714 35.7882 65.1939 35.4522 65.4898 35.2713C65.7857 35.0905 66.1813 34.8179 66.1813 34.8179L66.0084 34.722Z" fill="#937B18"/>
<path d="M64.5032 34.0601C64.5032 34.0601 64.3802 34.3377 63.7444 34.8712C63.1085 35.4047 62.8866 35.5431 62.9614 35.5956C63.0362 35.6481 63.5141 35.2413 63.8474 34.9437C64.1807 34.6461 64.721 34.1285 64.721 34.1285L64.5032 34.0601Z" fill="#937B18"/>
<path d="M62.983 33.5383C62.983 33.5383 62.924 33.7625 62.55 34.2002C62.176 34.6378 61.8676 34.8404 61.92 34.9054C61.9724 34.9704 62.3547 34.5811 62.619 34.2618C62.8833 33.9426 63.2324 33.5591 63.2324 33.5591L62.983 33.5383Z" fill="#937B18"/>
<path d="M61.2484 33.209C61.1839 33.353 61.0932 33.4836 60.9808 33.5941C60.773 33.8125 60.512 34.0109 60.5561 34.0243C60.6001 34.0376 60.8603 33.8875 61.029 33.6841C61.1977 33.4807 61.3939 33.2407 61.3939 33.2407L61.2484 33.209Z" fill="#937B18"/>
<path d="M66.2046 34.7612C66.1468 34.4774 66.0375 34.2067 65.8821 33.9626C65.6644 33.6366 65.341 33.3182 65.2862 33.3357C65.2313 33.3532 65.6278 33.6866 65.7417 33.8642C65.8555 34.0417 66.0791 34.6978 66.0791 34.6978L66.2046 34.7612Z" fill="#937B18"/>
<path d="M64.6828 34.0242C64.6964 33.7379 64.6324 33.4533 64.4974 33.2006C64.2755 32.8071 63.7602 32.3495 63.6488 32.337C63.5374 32.3245 64.2888 32.9205 64.3968 33.1948C64.5049 33.469 64.4733 33.9542 64.4733 33.9542L64.6828 34.0242Z" fill="#937B18"/>
<path d="M63.2324 33.5624C63.2324 33.5624 62.9988 32.9372 62.7844 32.7038C62.57 32.4704 62.1527 32.1494 62.0488 32.1203C61.9449 32.0911 62.6132 32.5713 62.7536 32.8097C62.8735 33.044 62.9744 33.2877 63.0553 33.5383L63.2324 33.5624Z" fill="#937B18"/>
<path d="M61.2651 33.1648C61.2651 33.1648 61.2958 33.0314 61.0107 32.748C60.7257 32.4645 60.5744 32.2945 60.6492 32.327C60.794 32.4206 60.9288 32.529 61.0515 32.6504C61.2039 32.8177 61.3382 33.0007 61.4521 33.1965L61.2651 33.1648Z" fill="#937B18"/>
<path d="M51.9802 35.8724C53.6151 37.0795 55.7687 40.8975 53.2353 44.0419C50.6837 47.2097 47.0017 47.3706 44.2082 45.5241C41.2991 43.6068 39.9111 38.911 43.4277 35.5531C46.2503 32.8555 49.5101 34.0476 51.9802 35.8724Z" fill="#E57A05"/>
<path d="M45.5131 35.8182C45.7043 35.7248 45.9195 35.5273 45.7392 35.353C45.5588 35.1788 45.3136 35.3764 45.1399 35.4197C44.903 35.6381 45.0036 36.0675 45.5131 35.8182Z" fill="#FCBC08"/>
<path d="M45.1415 35.4181L45.4349 35.3039C45.3267 35.3058 45.2227 35.3463 45.1415 35.4181V35.4181Z" fill="#FCBC08"/>
<path d="M44.6179 36.2592C44.6902 36.2067 44.7883 36.0966 44.6927 36.0191C44.6786 36.0082 44.6624 36.0004 44.645 35.9964C44.6276 35.9924 44.6096 35.9923 44.5922 35.996C44.5748 35.9998 44.5584 36.0073 44.5441 36.018C44.5299 36.0288 44.5182 36.0425 44.5099 36.0583C44.4798 36.0746 44.4537 36.0971 44.4332 36.1245C44.4126 36.1518 44.3983 36.1833 44.391 36.2167C44.3752 36.3776 44.5431 36.3142 44.6179 36.2592Z" fill="#FCBC08"/>
<path d="M45.8713 36.16C45.8432 36.1456 45.8118 36.1387 45.7803 36.1398C45.7487 36.141 45.7179 36.1502 45.6909 36.1667C45.6078 36.1759 45.4989 36.2125 45.4798 36.2825C45.4757 36.2973 45.4757 36.3128 45.4798 36.3276L45.4549 36.3442L45.4807 36.3292C45.5031 36.4084 45.6901 36.3509 45.7583 36.3292C45.8264 36.3076 46.0176 36.2409 45.8713 36.16Z" fill="#FCBC08"/>
<path d="M45.4525 36.3442L45.4407 36.351L45.4525 36.3442Z" fill="#FCBC08"/>
<path d="M46.2736 35.729C46.1905 35.7532 46.0982 35.8465 46.1456 35.9266C46.193 36.0066 46.3866 35.9766 46.4548 35.9383C46.7307 35.789 46.3758 35.6682 46.2736 35.729Z" fill="#FCBC08"/>
<path d="M46.6168 35.2221C46.5603 35.2138 46.4572 35.1863 46.4132 35.2371C46.4018 35.2505 46.395 35.2672 46.3937 35.2847C46.3923 35.3022 46.3965 35.3197 46.4057 35.3347C46.4099 35.3922 46.5046 35.4439 46.5428 35.4639C46.626 35.5048 47.0415 35.6415 47.0748 35.4981C47.1097 35.3289 46.7199 35.2355 46.6168 35.2221Z" fill="#FCBC08"/>
<path d="M46.1614 34.9362C46.2445 34.9821 46.5537 34.9704 46.5853 34.847C46.6168 34.7237 46.419 34.6945 46.3359 34.7053C46.286 34.7191 46.2402 34.7452 46.2029 34.7812C46.124 34.8204 46.0625 34.8829 46.1614 34.9362Z" fill="#FCBC08"/>
<path d="M44.6711 35.664C44.8307 35.5456 44.6711 35.4789 44.5497 35.5031C44.4774 35.4939 44.3004 35.5864 44.3453 35.6823C44.3901 35.7782 44.6112 35.7098 44.6711 35.664Z" fill="#FCBC08"/>
<path d="M44.0062 36.4243C44.0652 36.3559 44.2472 36.0558 44.0386 36.0441C44.0177 36.0452 43.9972 36.0507 43.9786 36.0603C43.96 36.07 43.9436 36.0835 43.9306 36.1C43.8315 36.1734 43.7577 36.2759 43.7195 36.3934C43.6364 36.6693 43.9007 36.5443 44.0062 36.4243Z" fill="#FCBC08"/>
<path d="M45.1282 36.5084C45.0364 36.4845 44.9391 36.4924 44.8523 36.5309C44.6969 36.5735 44.5148 36.6977 44.4874 36.8144C44.4184 37.0995 44.9171 36.8978 45.0235 36.8577C45.1806 36.8027 45.3601 36.596 45.1282 36.5084Z" fill="#FCBC08"/>
<path d="M45.9635 36.7327C45.8804 36.7602 45.7973 36.8261 45.7973 36.8919C45.7973 37.0336 46.084 36.9903 46.1638 36.9528C46.473 36.8085 46.0724 36.671 45.9635 36.7327Z" fill="#FCBC08"/>
<path d="M47.9292 35.148C47.9034 35.1434 47.8768 35.1464 47.8525 35.1564C47.8282 35.1664 47.8073 35.1832 47.7921 35.2047C47.881 35.3764 48.2742 35.3922 48.3656 35.2138C48.3152 35.1488 48.2418 35.1056 48.1606 35.0934C48.0793 35.0811 47.9965 35.1007 47.9292 35.148Z" fill="#FCBC08"/>
<path d="M47.1197 35.8866C47.2917 35.9466 47.758 35.9775 47.7946 35.7349C47.6965 35.6724 47.5253 35.629 47.4214 35.6899C47.2759 35.6832 47.1222 35.7332 47.1197 35.8866Z" fill="#FCBC08"/>
<path d="M47.4563 34.622C47.4154 34.5723 47.3566 34.5407 47.2927 34.5341C47.2288 34.5276 47.1648 34.5466 47.1147 34.587C47.0946 34.5968 47.0768 34.6108 47.0624 34.628C47.0481 34.6453 47.0376 34.6654 47.0316 34.687C47.0983 34.7295 47.178 34.7463 47.2561 34.7344C47.3342 34.7224 47.4053 34.6825 47.4563 34.622V34.622Z" fill="#FCBC08"/>
<path d="M48.7238 35.6273C48.3797 35.6323 48.8227 36.0716 49.013 35.9307C49.1826 35.8057 48.8601 35.5389 48.7238 35.6273Z" fill="#FCBC08"/>
<path d="M43.8266 37.052C43.7203 36.9686 43.6305 37.052 43.5698 37.1512C43.3396 37.2987 43.0628 37.6514 43.2831 37.7347C43.5549 37.8398 43.8208 37.2429 43.8266 37.052Z" fill="#FCBC08"/>
<path d="M43.195 36.5993C42.8983 36.6568 43.0388 37.1503 43.3205 36.8127C43.4959 36.6026 43.3164 36.5393 43.195 36.5993Z" fill="#FCBC08"/>
<path d="M44.8789 37.5063C44.8493 37.5156 44.8232 37.5336 44.8039 37.558C44.7846 37.5824 44.7731 37.612 44.7709 37.643C44.8814 37.7264 45.1756 37.7264 45.2496 37.583C45.3593 37.3646 44.977 37.3363 44.8789 37.5063Z" fill="#FCBC08"/>
<path d="M47.507 36.6935L47.4912 36.6702C47.4832 36.6896 47.4785 36.7101 47.4771 36.731C47.4604 36.7594 47.4596 36.7844 47.4862 36.7944C47.5477 36.9561 47.8868 36.9611 47.8187 36.7585C47.7505 36.5559 47.5868 36.616 47.507 36.6935Z" fill="#FCBC08"/>
<path d="M50.5532 36.2625C50.3537 35.9866 49.9398 36.2625 50.1999 36.35C50.3529 36.4609 50.7493 36.5334 50.5532 36.2625Z" fill="#FCBC08"/>
<path d="M43.4551 38.8959L43.4959 38.8226C43.372 38.8826 43.303 39.0435 43.2764 39.171C43.3945 39.2027 43.7427 38.9693 43.7336 38.8151C43.7194 38.5817 43.5565 38.7467 43.4551 38.8959Z" fill="#FCBC08"/>
<path d="M46.5662 38.1165C46.572 38.126 46.5797 38.1342 46.5887 38.1407C46.5978 38.1471 46.6081 38.1517 46.6189 38.1541C46.6297 38.1565 46.641 38.1567 46.6519 38.1547C46.6628 38.1527 46.6732 38.1485 46.6825 38.1424C46.8255 38.1599 47.0898 38.124 46.9776 37.969C46.8654 37.8139 46.6061 37.9956 46.5662 38.1165Z" fill="#FCBC08"/>
<path d="M42.2699 37.9623C42.2542 38.0005 42.2482 38.042 42.2525 38.0832C42.4279 38.1432 42.8742 38.0923 42.7271 37.8022C42.5932 37.5455 42.3215 37.7556 42.2699 37.9623Z" fill="#FCBC08"/>
<path d="M42.8817 37.2137V37.2095C42.86 37.2045 42.8374 37.2044 42.8157 37.2094C42.794 37.2143 42.7737 37.2242 42.7564 37.2381C42.739 37.2521 42.725 37.2698 42.7155 37.29C42.706 37.3102 42.7011 37.3322 42.7013 37.3546C42.7286 37.3689 42.7586 37.3773 42.7893 37.379C42.8201 37.3808 42.8508 37.3759 42.8796 37.3648C42.9083 37.3537 42.9343 37.3365 42.9559 37.3145C42.9775 37.2924 42.9941 37.266 43.0047 37.237C42.9673 37.216 42.9241 37.2078 42.8817 37.2137V37.2137Z" fill="#FCBC08"/>
<path d="M81.7638 41.6352H7.92505V82.0851H81.7638V41.6352Z" fill="#EBCFA8"/>
<path d="M7.92505 56.2661H81.7638V64.0905L7.92505 58.1485V56.2661Z" fill="#E0BD9D"/>
<path d="M38.4741 33.9734C39.2412 34.5678 39.2096 35.1847 40.1089 36.0225C40.2145 36.1217 39.9036 36.2667 39.8463 36.4009C39.7632 36.5902 39.3476 36.2992 39.1431 36.3025C38.9375 36.2929 38.7362 36.2401 38.5522 36.1475C37.5232 35.7057 35.9989 34.9971 35.4453 33.9551C35.3074 33.6941 34.3083 32.1002 34.6865 32.0936C35.767 32.0752 36.466 33.194 36.7777 33.339C37.4601 33.6533 37.6845 33.3624 38.4741 33.9734Z" fill="#AD3E3B"/>
<path d="M36.722 34.6711C35.565 33.9167 35.2392 31.1432 32.7499 31.6601C30.2606 32.1769 27.6333 36.1166 27.4737 38.51C27.3142 40.9033 29.6173 43.1132 31.3087 44.2745C33.2843 45.63 36.8724 46.6636 39.3842 43.6293C41.5809 40.975 42.5725 37.9606 40.2153 36.105C38.7791 34.9721 38.6162 35.9057 36.722 34.6711Z" fill="#D34D46"/>
<path d="M41.3116 37.4946C41.1038 38.8351 40.2968 40.2839 39.1747 41.6394C36.6638 44.673 33.0749 43.6401 31.1 42.2838C29.8018 41.3926 28.1445 39.8838 27.5153 38.149C27.4953 38.2724 27.482 38.3933 27.4737 38.51C27.315 40.9033 29.6173 43.1133 31.3087 44.2745C33.2843 45.63 36.8724 46.6637 39.3841 43.6293C41.0972 41.5636 42.0729 39.2819 41.3116 37.4946Z" fill="#AD3E3B"/>
<path opacity="0.27" d="M32.6045 33.3382C31.9888 33.5117 31.4422 33.873 31.0402 34.3719C30.8042 34.657 30.6064 34.9921 30.5723 35.3614C30.5382 35.7307 30.702 36.135 31.0319 36.3017C31.116 36.3469 31.2111 36.3671 31.3062 36.3601C31.4373 36.3337 31.5592 36.273 31.6594 36.1842C32.1631 35.8091 32.6959 35.4248 33.3159 35.3339C33.6118 35.2905 33.916 35.3172 34.2102 35.2639C34.5045 35.2105 34.8078 35.0505 34.9109 34.7687C35.0697 34.3335 34.6865 33.7617 34.3366 33.5308C33.8578 33.214 33.143 33.1973 32.6045 33.3382Z" fill="white"/>
<path opacity="0.27" d="M30.436 36.6968C30.2149 36.5376 29.8749 36.6227 29.7162 36.8444C29.6424 36.9597 29.6016 37.0931 29.5981 37.2301C29.5946 37.3671 29.6285 37.5024 29.6962 37.6213C29.7256 37.6873 29.7703 37.7452 29.8266 37.7903C29.8828 37.8354 29.949 37.8663 30.0195 37.8806C30.1246 37.8844 30.2279 37.8521 30.3121 37.7889C30.4769 37.6849 30.5993 37.5253 30.657 37.3388C30.684 37.2456 30.6874 37.1473 30.6669 37.0525C30.6465 36.9578 30.6028 36.8696 30.5399 36.7961L30.436 36.6968Z" fill="white"/>
<path d="M36.4311 34.4252C36.4311 34.4252 37.5947 33.1398 38.3294 32.6346C39.0642 32.1294 40.5935 31.6226 40.5935 31.6226L40.8994 32.2611C40.8994 32.2611 39.7208 32.3728 38.7517 32.9906C38.0743 33.4224 36.722 34.6712 36.722 34.6712L36.4311 34.4252Z" fill="#60443E"/>
<path d="M38.7517 32.9905C38.7517 32.9905 40.8528 32.7038 42.068 33.5808C43.0533 34.2944 43.9131 35.1678 44.6121 36.165C44.6121 36.165 42.4328 36.9211 40.9908 36.1541C39.5487 35.3872 38.2845 33.3298 38.2845 33.3298L38.7517 32.9905Z" fill="#436B49"/>
<path opacity="0.27" d="M41.0971 33.9075C41.0658 33.9118 41.0366 33.9261 41.014 33.9484C41.0025 33.9668 40.995 33.9875 40.992 34.0091C40.989 34.0306 40.9906 34.0525 40.9966 34.0734C41.0345 34.2282 41.1269 34.3641 41.2567 34.4561C41.3832 34.5457 41.5172 34.6241 41.6573 34.6903C41.9794 34.8636 42.2775 35.0782 42.5442 35.3289C42.6325 35.4241 42.7351 35.5048 42.8484 35.5681C43.2058 35.7349 43.264 35.3322 43.1983 35.0579C43.1343 34.8029 42.9639 34.6828 42.7561 34.5419C42.2649 34.2093 41.6557 33.7775 41.0971 33.9075Z" fill="white"/>
<path d="M7.92504 41.6352L0 56.2661H86.7831L81.7638 41.6352H7.92504Z" fill="#FFDFB8"/>
<path d="M52.1972 16.1205C51.9627 16.1016 51.7271 16.1384 51.5095 16.2279C51.2919 16.3174 51.0983 16.4571 50.9446 16.6357C50.6313 17.0083 50.5216 17.5235 50.5648 18.0087C50.608 18.4938 50.7942 18.9565 51.0136 19.3908C51.2189 19.7968 51.2098 20.3912 51.4774 20.7605C51.6378 20.9797 51.9761 21.0939 52.321 21.1097C53.4547 20.1011 54.9067 19.5967 55.7545 18.3363C55.9253 18.1031 56.0183 17.8219 56.0205 17.5327C56.0014 16.9866 55.2616 16.0872 54.0631 16.0672C53.4306 16.0572 54.4712 16.3781 53.8786 16.5507C53.5063 16.659 53.463 16.7566 53.1248 16.5757C52.7865 16.3948 52.6128 16.1597 52.1972 16.1205Z" fill="#C99E59"/>
<path d="M51.4392 15.6987C51.2046 15.679 50.9688 15.7155 50.751 15.805C50.5333 15.8946 50.3398 16.0347 50.1866 16.2139C49.8733 16.5865 49.7636 17.1008 49.8076 17.5869C49.8517 18.0729 50.0362 18.5339 50.2564 18.969C50.5849 19.6168 50.9953 20.2195 51.4774 20.7621C52.6119 19.7534 54.1495 19.1783 54.9973 17.9136C55.1577 17.6752 55.2932 17.3968 55.2633 17.11C55.2342 16.8399 55.0605 16.604 54.8527 16.4306C54.3656 16.0247 53.7132 15.9555 53.1206 16.128C52.7482 16.2364 52.705 16.3339 52.3667 16.153C52.0284 15.9721 51.8556 15.7354 51.4392 15.6987Z" fill="#E8B964"/>
<path d="M46.4165 21.7116C46.2542 21.6446 46.0782 21.6172 45.9033 21.6317C45.7283 21.6462 45.5592 21.7022 45.41 21.795C45.1084 22.0044 44.9011 22.3246 44.8332 22.6861C44.7677 23.0447 44.7709 23.4125 44.8423 23.7699C44.8972 24.1033 44.7592 24.5276 44.8656 24.8486C44.9296 25.0403 45.1457 25.197 45.3867 25.287C46.419 24.8252 47.5652 24.7944 48.4512 24.0883C48.625 23.961 48.7541 23.7818 48.8202 23.5765C48.9291 23.1838 48.6041 22.3777 47.7563 22.0934C47.3084 21.9434 47.9766 22.4061 47.5161 22.3952C47.2269 22.3885 47.1762 22.4486 46.9742 22.2427C46.7723 22.0367 46.7016 21.8325 46.4165 21.7116Z" fill="#C99E59"/>
<path d="M45.9702 21.239C45.8078 21.1721 45.6319 21.1449 45.457 21.1594C45.282 21.1739 45.113 21.2297 44.9637 21.3223C44.6579 21.5166 44.465 21.8575 44.3819 22.2135C44.3168 22.5721 44.3202 22.9398 44.3919 23.2972C44.48 23.8321 44.637 24.3534 44.859 24.8477C45.8913 24.3859 47.1147 24.3209 47.9999 23.6156C48.1661 23.4814 48.3266 23.3139 48.3698 23.1038C48.3986 22.9009 48.3486 22.6947 48.2301 22.5278C47.9741 22.1293 47.5262 21.9325 47.0665 21.9217C46.7773 21.915 46.7266 21.9751 46.5246 21.77C46.3227 21.5649 46.2578 21.3599 45.9702 21.239Z" fill="#E8B964"/>
<path d="M52.9062 25.738C52.8375 25.9 52.808 26.076 52.8202 26.2516C52.8323 26.4272 52.8857 26.5975 52.976 26.7484C53.1806 27.0541 53.4972 27.2665 53.857 27.3394C54.2136 27.4096 54.5802 27.4116 54.9375 27.3453C55.27 27.2944 55.6914 27.4412 56.013 27.337C56.205 27.2753 56.3638 27.0602 56.4577 26.8201C56.0114 25.7781 55.9956 24.6285 55.3041 23.7307C55.1795 23.5549 55.003 23.4228 54.7996 23.3531C54.4097 23.2389 53.6002 23.5531 53.3035 24.4001C53.1472 24.8469 53.6185 24.1834 53.601 24.6443C53.5902 24.9344 53.6492 24.9861 53.4415 25.1862C53.2337 25.3863 53.0317 25.4521 52.9062 25.738Z" fill="#C99E59"/>
<path d="M52.4291 26.1765C52.3603 26.3385 52.3309 26.5146 52.3432 26.6902C52.3555 26.8659 52.4091 27.0361 52.4997 27.1869C52.6892 27.497 53.0267 27.6954 53.3799 27.7787C53.7366 27.8487 54.1032 27.8504 54.4604 27.7837C54.995 27.7025 55.5168 27.5523 56.013 27.3369C55.5667 26.2949 55.5143 25.067 54.827 24.1692C54.6965 24.0024 54.5319 23.8357 54.3225 23.7915C54.1204 23.76 53.9139 23.8074 53.7456 23.9241C53.345 24.1741 53.1439 24.6218 53.1264 25.0828C53.1156 25.3729 53.1746 25.4246 52.9669 25.6247C52.7591 25.8247 52.5546 25.8897 52.4291 26.1765Z" fill="#E8B964"/>
</svg>
