<svg width="32" height="32" viewBox="0 0 32 32" fill="none" xmlns="http://www.w3.org/2000/svg">
<path d="M31.9 9.4C31.8 7.7 31.55 6.55 31.15 5.5C30.75 4.45 30.2 3.55 29.3 2.65C28.4 1.75 27.55 1.25 26.5 0.85C25.5 0.45 24.3 0.2 22.6 0.1C20.9 0 20.35 0 16 0C11.65 0 11.1 0 9.4 0.1C7.7 0.2 6.55 0.45 5.5 0.85C4.45 1.25 3.55 1.8 2.7 2.7C1.85 3.6 1.25 4.45 0.85 5.5C0.45 6.5 0.2 7.7 0.1 9.4C0 11.1 0 11.65 0 16C0 20.35 0 20.9 0.1 22.6C0.2 24.3 0.45 25.45 0.85 26.5C1.25 27.55 1.8 28.45 2.7 29.35C3.6 30.25 4.5 30.8 5.55 31.2C6.55 31.6 7.75 31.85 9.45 31.95C11.1 32 11.65 32 16 32C20.35 32 20.9 32 22.6 31.9C24.3 31.8 25.45 31.55 26.5 31.15C27.55 30.75 28.45 30.2 29.35 29.3C30.25 28.4 30.8 27.5 31.2 26.45C31.6 25.45 31.85 24.25 31.95 22.55C32 20.9 32 20.35 32 16C32 11.65 32 11.1 31.9 9.4ZM29 22.45C28.95 24 28.65 24.85 28.45 25.4C28.15 26.15 27.8 26.7 27.25 27.25C26.7 27.8 26.15 28.15 25.4 28.45C24.85 28.65 24 28.95 22.45 29C20.75 29.1 20.25 29.1 16 29.1C11.75 29.1 11.2 29.1 9.55 29C8 28.95 7.15 28.65 6.6 28.45C5.85 28.15 5.3 27.8 4.75 27.25C4.2 26.7 3.85 26.15 3.55 25.4C3.35 24.85 3.05 24 3 22.45C2.9 20.8 2.9 20.3 2.9 16C2.9 11.7 2.9 11.2 3 9.55C3.05 8 3.35 7.15 3.55 6.6C3.85 5.85 4.2 5.3 4.75 4.75C5.3 4.2 5.85 3.85 6.6 3.55C7.15 3.35 8 3.05 9.55 3C11.25 2.9 11.75 2.9 16 2.9C20.25 2.9 20.8 2.9 22.45 3C24 3.05 24.85 3.35 25.4 3.55C26.15 3.85 26.7 4.2 27.25 4.75C27.8 5.3 28.15 5.85 28.45 6.6C28.65 7.15 28.95 8 29 9.55C29.1 11.25 29.1 11.75 29.1 16C29.1 20.25 29.1 20.8 29 22.45Z" fill="white"/>
<path d="M12.3987 21.4609L12.6395 21.6036C13.6551 22.2051 14.8138 22.5224 15.9942 22.5223H15.9967C17.4578 22.522 18.8774 22.0363 20.0324 21.1414C21.1873 20.2465 22.0122 18.9932 22.3772 17.5784C22.7422 16.1637 22.6268 14.6677 22.049 13.3257C21.4713 11.9837 20.4639 10.8718 19.1853 10.1647C17.9068 9.45755 16.4295 9.19536 14.9856 9.41931C13.5418 9.64326 12.2133 10.3407 11.2091 11.4019C10.2048 12.4631 9.5816 13.8279 9.43751 15.2819C9.29342 16.7359 9.63658 18.1965 10.413 19.4342L10.5699 19.6835L9.90389 22.115L12.3987 21.4609ZM8.00006 23.9984L9.12505 19.8905C8.25349 18.3782 7.90522 16.6205 8.13423 14.8901C8.36324 13.1597 9.15674 11.5532 10.3917 10.3196C11.6267 9.08608 13.2341 8.29441 14.9648 8.06738C16.6955 7.84035 18.4527 8.19063 19.964 9.06392C21.4754 9.93721 22.6564 11.2847 23.324 12.8975C23.9915 14.5103 24.1084 16.2983 23.6564 17.9843C23.2044 19.6702 22.2088 21.16 20.8239 22.2225C19.4391 23.2851 17.7424 23.8611 15.9969 23.8612H15.9935C14.6696 23.8612 13.3667 23.5294 12.2041 22.8962L8.00006 23.9984Z" fill="white"/>
<path d="M8.06655 15.9292C8.06486 17.3204 8.42995 18.6874 9.12502 19.8924L7.99994 24L12.2038 22.8978C13.3665 23.531 14.6693 23.8627 15.9933 23.8629H15.9966C17.565 23.8629 19.0982 23.3979 20.4023 22.5267C21.7064 21.6555 22.7229 20.4171 23.3233 18.9682C23.9236 17.5193 24.0809 15.9249 23.7752 14.3867C23.4695 12.8484 22.7146 11.4353 21.6058 10.326C20.4971 9.21677 19.0843 8.46118 17.5462 8.15477C16.0081 7.84837 14.4136 8.00492 12.9644 8.60462C11.5153 9.20433 10.2764 10.2203 9.40462 11.524C8.53279 12.8277 8.06709 14.3606 8.06641 15.929L8.06655 15.9292ZM10.5699 19.6853L10.4129 19.436C9.63613 18.1982 9.29273 16.7373 9.43669 15.283C9.58066 13.8287 10.2038 12.4635 11.2083 11.402C12.2127 10.3405 13.5414 9.64285 14.9855 9.41878C16.4296 9.19471 17.9072 9.45691 19.1861 10.1641C20.465 10.8714 21.4725 11.9836 22.0504 13.3259C22.6283 14.6681 22.7437 16.1644 22.3786 17.5795C22.0134 18.9945 21.1883 20.248 20.0331 21.1431C18.8778 22.0381 17.4579 22.5238 15.9965 22.5239H15.9939C14.8136 22.524 13.6549 22.2067 12.6392 21.6053L12.3984 21.4626L9.90367 22.1167L10.5699 19.6853Z" fill="url(#paint0_linear_150_1996)"/>
<path d="M14.0147 12.6146C13.8663 12.2846 13.7101 12.278 13.5689 12.2722C13.4533 12.2673 13.3211 12.2676 13.1891 12.2676C13.0887 12.2702 12.99 12.2936 12.899 12.3362C12.8081 12.3789 12.727 12.4399 12.6608 12.5155C12.4791 12.7137 11.9672 13.1931 11.9672 14.1679C11.9672 15.1428 12.6773 16.0848 12.7763 16.2172C12.8754 16.3493 14.1471 18.4138 16.1609 19.208C17.8347 19.868 18.1753 19.7367 18.5386 19.7036C18.9019 19.6707 19.711 19.2245 19.876 18.7618C20.0412 18.2992 20.0412 17.9026 19.9916 17.8198C19.9421 17.7372 19.81 17.6876 19.6118 17.5886C19.4136 17.4895 18.4395 17.0101 18.2579 16.944C18.0762 16.8779 17.9441 16.8449 17.812 17.0433C17.6799 17.2414 17.3004 17.6876 17.1848 17.8198C17.0692 17.9522 16.9536 17.9687 16.7554 17.8696C16.5572 17.7702 15.919 17.5612 15.162 16.8862C14.7288 16.4858 14.3573 16.0234 14.0597 15.5141C13.9441 15.3159 14.0473 15.2086 14.1467 15.1098C14.2357 15.021 14.3449 14.8785 14.444 14.7628C14.5253 14.6626 14.592 14.5514 14.6419 14.4324C14.6682 14.3777 14.6805 14.3173 14.6777 14.2567C14.6748 14.1961 14.6568 14.1372 14.6254 14.0853C14.5758 13.9862 14.1908 13.0063 14.0146 12.6145" fill="white"/>
<defs>
<linearGradient id="paint0_linear_150_1996" x1="15.9633" y1="24" x2="15.9633" y2="8.00192" gradientUnits="userSpaceOnUse">
<stop stop-color="#F9F9F9"/>
<stop offset="1" stop-color="white"/>
</linearGradient>
</defs>
</svg>
