<svg width="367" height="106" viewBox="0 0 367 106" fill="none" xmlns="http://www.w3.org/2000/svg">
<rect width="367" height="106" rx="7" fill="#4E901E"/>
<rect x="5" y="5" width="96" height="96" rx="3" fill="white"/>
<path d="M20.624 80.912C22.0853 80.912 23.2213 81.216 24.032 81.824C24.8427 82.432 25.248 83.3333 25.248 84.528C25.248 85.776 24.848 86.72 24.048 87.36C23.2587 87.9893 22.1973 88.304 20.864 88.304H19.664V92H17.04V80.912H20.624ZM20.64 86.416C21.2587 86.416 21.728 86.272 22.048 85.984C22.3787 85.6853 22.544 85.2 22.544 84.528C22.544 83.3653 21.8933 82.784 20.592 82.784H19.664V86.416H20.64ZM30.8813 83.264C31.1906 83.264 31.4733 83.3013 31.7293 83.376L31.3293 85.824C31.0093 85.7493 30.7533 85.712 30.5613 85.712C30.0599 85.712 29.6759 85.888 29.4093 86.24C29.1533 86.5813 28.9506 87.0987 28.8013 87.792V92H26.2733V83.504H28.4813L28.6893 85.152C28.8813 84.5653 29.1693 84.1067 29.5533 83.776C29.9479 83.4347 30.3906 83.264 30.8813 83.264ZM35.8908 83.232C37.1921 83.232 38.2108 83.632 38.9468 84.432C39.6828 85.2213 40.0508 86.3307 40.0508 87.76C40.0508 88.6667 39.8801 89.4613 39.5388 90.144C39.2081 90.816 38.7281 91.3387 38.0988 91.712C37.4801 92.0853 36.7441 92.272 35.8908 92.272C34.6001 92.272 33.5814 91.8773 32.8348 91.088C32.0988 90.288 31.7308 89.1733 31.7308 87.744C31.7308 86.8373 31.8961 86.048 32.2268 85.376C32.5681 84.6933 33.0481 84.1653 33.6668 83.792C34.2961 83.4187 35.0374 83.232 35.8908 83.232ZM35.8908 85.088C35.3788 85.088 34.9948 85.3067 34.7388 85.744C34.4828 86.1707 34.3548 86.8373 34.3548 87.744C34.3548 88.672 34.4774 89.3493 34.7228 89.776C34.9788 90.2027 35.3681 90.416 35.8908 90.416C36.4028 90.416 36.7868 90.2027 37.0428 89.776C37.2988 89.3387 37.4268 88.6667 37.4268 87.76C37.4268 86.832 37.2988 86.1547 37.0428 85.728C36.7974 85.3013 36.4134 85.088 35.8908 85.088ZM49.1705 80.128V92H46.9305L46.8025 91.008C46.2052 91.8507 45.3998 92.272 44.3865 92.272C43.3305 92.272 42.5252 91.8667 41.9705 91.056C41.4265 90.2453 41.1545 89.136 41.1545 87.728C41.1545 86.864 41.2985 86.0907 41.5865 85.408C41.8745 84.7253 42.2798 84.192 42.8025 83.808C43.3358 83.424 43.9438 83.232 44.6265 83.232C45.4372 83.232 46.1092 83.4987 46.6425 84.032V79.856L49.1705 80.128ZM45.1705 90.416C45.7572 90.416 46.2478 90.096 46.6425 89.456V85.792C46.4398 85.5467 46.2318 85.3653 46.0185 85.248C45.8158 85.1307 45.5812 85.072 45.3145 85.072C44.8452 85.072 44.4718 85.2907 44.1945 85.728C43.9172 86.1653 43.7785 86.8373 43.7785 87.744C43.7785 88.736 43.8958 89.4293 44.1305 89.824C44.3758 90.2187 44.7225 90.416 45.1705 90.416ZM58.3163 92H56.1243L56.0123 90.928C55.3936 91.824 54.5349 92.272 53.4363 92.272C52.6576 92.272 52.0656 92.0373 51.6603 91.568C51.2656 91.0987 51.0683 90.4427 51.0683 89.6V83.504H53.5963V89.28C53.5963 89.696 53.6603 89.9893 53.7883 90.16C53.9269 90.32 54.1349 90.4 54.4123 90.4C54.9456 90.4 55.4043 90.0693 55.7883 89.408V83.504H58.3163V92ZM63.9845 83.232C64.5712 83.232 65.0992 83.3173 65.5685 83.488C66.0378 83.6587 66.4805 83.92 66.8965 84.272L65.8085 85.776C65.2752 85.3707 64.7365 85.168 64.1925 85.168C63.6272 85.168 63.2005 85.376 62.9125 85.792C62.6245 86.208 62.4805 86.88 62.4805 87.808C62.4805 88.704 62.6245 89.3387 62.9125 89.712C63.2005 90.0853 63.6165 90.272 64.1605 90.272C64.4485 90.272 64.7098 90.2293 64.9445 90.144C65.1792 90.048 65.4618 89.8987 65.7925 89.696L66.8965 91.264C66.0538 91.936 65.0992 92.272 64.0325 92.272C63.1685 92.272 62.4218 92.0907 61.7925 91.728C61.1632 91.3547 60.6778 90.8373 60.3365 90.176C59.9952 89.504 59.8245 88.72 59.8245 87.824C59.8245 86.928 59.9952 86.1333 60.3365 85.44C60.6778 84.7467 61.1632 84.208 61.7925 83.824C62.4218 83.4293 63.1525 83.232 63.9845 83.232ZM73.2888 91.6C72.9794 91.8133 72.6168 91.9787 72.2008 92.096C71.7954 92.2133 71.3901 92.272 70.9848 92.272C69.1288 92.2613 68.2008 91.2373 68.2008 89.2V85.264H67.0008V83.504H68.2008V81.664L70.7288 81.376V83.504H72.6808L72.4088 85.264H70.7288V89.168C70.7288 89.5627 70.7928 89.8453 70.9208 90.016C71.0488 90.1867 71.2514 90.272 71.5288 90.272C71.8168 90.272 72.1208 90.1813 72.4408 90L73.2888 91.6ZM77.5314 83.232C78.8327 83.232 79.8514 83.632 80.5874 84.432C81.3234 85.2213 81.6914 86.3307 81.6914 87.76C81.6914 88.6667 81.5207 89.4613 81.1794 90.144C80.8487 90.816 80.3687 91.3387 79.7394 91.712C79.1207 92.0853 78.3847 92.272 77.5314 92.272C76.2407 92.272 75.222 91.8773 74.4754 91.088C73.7394 90.288 73.3714 89.1733 73.3714 87.744C73.3714 86.8373 73.5367 86.048 73.8674 85.376C74.2087 84.6933 74.6887 84.1653 75.3074 83.792C75.9367 83.4187 76.678 83.232 77.5314 83.232ZM77.5314 85.088C77.0194 85.088 76.6354 85.3067 76.3794 85.744C76.1234 86.1707 75.9954 86.8373 75.9954 87.744C75.9954 88.672 76.118 89.3493 76.3634 89.776C76.6194 90.2027 77.0087 90.416 77.5314 90.416C78.0434 90.416 78.4274 90.2027 78.6834 89.776C78.9394 89.3387 79.0674 88.6667 79.0674 87.76C79.0674 86.832 78.9394 86.1547 78.6834 85.728C78.438 85.3013 78.054 85.088 77.5314 85.088ZM86.1871 83.232C86.7951 83.232 87.3658 83.3227 87.8991 83.504C88.4325 83.6853 88.9018 83.9413 89.3071 84.272L88.3791 85.696C87.6858 85.2587 86.9871 85.04 86.2831 85.04C85.9525 85.04 85.6965 85.0987 85.5151 85.216C85.3445 85.3227 85.2591 85.4773 85.2591 85.68C85.2591 85.84 85.2965 85.9733 85.3711 86.08C85.4565 86.176 85.6218 86.2773 85.8671 86.384C86.1125 86.4907 86.4911 86.6187 87.0031 86.768C87.8885 87.024 88.5445 87.36 88.9711 87.776C89.4085 88.1813 89.6271 88.7467 89.6271 89.472C89.6271 90.048 89.4618 90.5493 89.1311 90.976C88.8005 91.392 88.3471 91.712 87.7711 91.936C87.1951 92.16 86.5551 92.272 85.8511 92.272C85.1365 92.272 84.4698 92.16 83.8511 91.936C83.2431 91.712 82.7258 91.4027 82.2991 91.008L83.5311 89.632C84.2458 90.1867 84.9978 90.464 85.7871 90.464C86.1711 90.464 86.4698 90.3947 86.6831 90.256C86.9071 90.1173 87.0191 89.92 87.0191 89.664C87.0191 89.4613 86.9765 89.3013 86.8911 89.184C86.8058 89.0667 86.6405 88.96 86.3951 88.864C86.1498 88.7573 85.7605 88.6293 85.2271 88.48C84.3845 88.2347 83.7551 87.8933 83.3391 87.456C82.9231 87.0187 82.7151 86.4747 82.7151 85.824C82.7151 85.3333 82.8538 84.896 83.1311 84.512C83.4191 84.1173 83.8245 83.808 84.3471 83.584C84.8805 83.3493 85.4938 83.232 86.1871 83.232Z" fill="#11131C"/>
<path d="M70.9867 32.4523L61.3015 29.6851L58.5343 20H37.7805C36.2522 20 35.0133 21.2389 35.0133 22.7672V64.4594C35.0133 65.9877 36.2522 67.2266 37.7805 67.2266H68.2195C69.7478 67.2266 70.9867 65.9877 70.9867 64.4594V32.4523Z" fill="#59C36A"/>
<path d="M70.9866 32.4523V64.4594C70.9866 65.9877 69.7478 67.2266 68.2195 67.2266H53.2214V20H58.5343L61.3015 29.6851L70.9866 32.4523Z" fill="#00A66C"/>
<path d="M61.3015 39.4625H44.6984C43.9337 39.4625 43.3148 40.0814 43.3148 40.8461V57.4492C43.3148 58.214 43.9337 58.8328 44.6984 58.8328H61.3015C62.0663 58.8328 62.6851 58.214 62.6851 57.4492V40.8461C62.6851 40.0814 62.0663 39.4625 61.3015 39.4625ZM46.082 47.7641H51.6164V50.5312H46.082V47.7641ZM54.3835 47.7641H59.9179V50.5312H54.3835V47.7641ZM59.9179 44.9969H54.3835V42.2297H59.9179V44.9969ZM51.6164 42.2297V44.9969H46.082V42.2297H51.6164ZM46.082 53.2984H51.6164V56.0656H46.082V53.2984ZM54.3835 56.0656V53.2984H59.9179V56.0656H54.3835Z" fill="#FFF5F5"/>
<path d="M61.3015 39.4625H53.2243V58.8328H61.3015C62.0663 58.8328 62.6851 58.214 62.6851 57.4492V40.8461C62.6851 40.0814 62.0663 39.4625 61.3015 39.4625ZM59.9179 56.0656H54.3836V53.2984H59.9179V56.0656ZM59.9179 50.5312H54.3836V47.7641H59.9179V50.5312ZM59.9179 44.9969H54.3836V42.2297H59.9179V44.9969Z" fill="#E3E7EA"/>
<path d="M70.9867 32.4523H61.3015C59.7796 32.4523 58.5344 31.2071 58.5344 29.6851V20C58.8941 20 59.2538 20.1384 59.5028 20.4152L70.5715 31.4839C70.8483 31.7328 70.9867 32.0926 70.9867 32.4523Z" fill="#A0DEB0"/>
<path d="M134.32 28.784C135.056 28.784 135.685 28.8907 136.208 29.104C136.731 29.3067 137.237 29.6267 137.728 30.064L136.896 30.992C136.48 30.6613 136.069 30.4213 135.664 30.272C135.269 30.112 134.843 30.032 134.384 30.032C133.808 30.032 133.333 30.1653 132.96 30.432C132.587 30.6987 132.4 31.088 132.4 31.6C132.4 31.92 132.464 32.192 132.592 32.416C132.72 32.6293 132.955 32.8267 133.296 33.008C133.648 33.1893 134.155 33.3813 134.816 33.584C135.509 33.7973 136.085 34.0267 136.544 34.272C137.003 34.5173 137.371 34.8587 137.648 35.296C137.936 35.7227 138.08 36.2667 138.08 36.928C138.08 37.568 137.92 38.1333 137.6 38.624C137.291 39.1147 136.837 39.4987 136.24 39.776C135.653 40.0533 134.955 40.192 134.144 40.192C132.619 40.192 131.371 39.7173 130.4 38.768L131.232 37.84C131.68 38.2027 132.133 38.48 132.592 38.672C133.051 38.8533 133.563 38.944 134.128 38.944C134.811 38.944 135.376 38.7787 135.824 38.448C136.272 38.1067 136.496 37.616 136.496 36.976C136.496 36.6133 136.427 36.3147 136.288 36.08C136.149 35.8347 135.909 35.616 135.568 35.424C135.237 35.232 134.752 35.04 134.112 34.848C132.981 34.5067 132.155 34.096 131.632 33.616C131.109 33.136 130.848 32.4853 130.848 31.664C130.848 31.1093 130.992 30.6133 131.28 30.176C131.579 29.7387 131.989 29.3973 132.512 29.152C133.045 28.9067 133.648 28.784 134.32 28.784ZM141.711 31.568V40H140.239V31.568H141.711ZM140.959 27.52C141.268 27.52 141.519 27.616 141.711 27.808C141.903 28 141.999 28.24 141.999 28.528C141.999 28.816 141.903 29.056 141.711 29.248C141.519 29.4293 141.268 29.52 140.959 29.52C140.66 29.52 140.415 29.4293 140.223 29.248C140.031 29.056 139.935 28.816 139.935 28.528C139.935 28.24 140.031 28 140.223 27.808C140.415 27.616 140.66 27.52 140.959 27.52ZM151.277 31.376C151.853 31.376 152.37 31.456 152.829 31.616C153.287 31.776 153.725 32.016 154.141 32.336L153.517 33.264C153.133 33.0187 152.765 32.8373 152.413 32.72C152.071 32.6027 151.709 32.544 151.325 32.544C150.845 32.544 150.466 32.6453 150.189 32.848C149.911 33.04 149.773 33.3067 149.773 33.648C149.773 33.9893 149.901 34.256 150.157 34.448C150.423 34.64 150.898 34.8267 151.581 35.008C152.519 35.2427 153.218 35.5627 153.677 35.968C154.146 36.3733 154.381 36.928 154.381 37.632C154.381 38.464 154.055 39.0987 153.405 39.536C152.765 39.9733 151.981 40.192 151.053 40.192C149.773 40.192 148.711 39.824 147.869 39.088L148.653 38.192C149.367 38.736 150.157 39.008 151.021 39.008C151.575 39.008 152.013 38.896 152.333 38.672C152.663 38.4373 152.829 38.1227 152.829 37.728C152.829 37.44 152.77 37.2107 152.653 37.04C152.535 36.8587 152.333 36.704 152.045 36.576C151.757 36.4373 151.335 36.2933 150.781 36.144C149.885 35.9093 149.234 35.5947 148.829 35.2C148.434 34.8053 148.237 34.304 148.237 33.696C148.237 33.2587 148.365 32.864 148.621 32.512C148.887 32.1493 149.25 31.872 149.709 31.68C150.178 31.4773 150.701 31.376 151.277 31.376ZM162.826 35.536C162.826 35.7813 162.815 36.032 162.794 36.288H157.418C157.482 37.216 157.716 37.8987 158.122 38.336C158.527 38.7733 159.05 38.992 159.69 38.992C160.095 38.992 160.468 38.9333 160.81 38.816C161.151 38.6987 161.508 38.512 161.882 38.256L162.522 39.136C161.626 39.84 160.644 40.192 159.578 40.192C158.404 40.192 157.487 39.808 156.826 39.04C156.175 38.272 155.85 37.216 155.85 35.872C155.85 34.9973 155.988 34.224 156.266 33.552C156.554 32.8693 156.959 32.336 157.482 31.952C158.015 31.568 158.639 31.376 159.354 31.376C160.474 31.376 161.332 31.744 161.93 32.48C162.527 33.216 162.826 34.2347 162.826 35.536ZM161.37 35.104C161.37 34.272 161.204 33.6373 160.874 33.2C160.543 32.7627 160.047 32.544 159.386 32.544C158.18 32.544 157.524 33.4293 157.418 35.2H161.37V35.104ZM175.939 31.568V43.408L174.467 43.232V38.88C174.189 39.296 173.843 39.6213 173.427 39.856C173.021 40.08 172.568 40.192 172.067 40.192C171.064 40.192 170.28 39.7973 169.715 39.008C169.16 38.2187 168.883 37.1573 168.883 35.824C168.883 34.96 169.016 34.192 169.283 33.52C169.549 32.848 169.933 32.3253 170.435 31.952C170.936 31.568 171.523 31.376 172.195 31.376C173.091 31.376 173.88 31.7547 174.563 32.512L174.675 31.568H175.939ZM172.387 39.024C172.835 39.024 173.219 38.9227 173.539 38.72C173.859 38.5067 174.168 38.192 174.467 37.776V33.648C174.189 33.2853 173.891 33.0133 173.571 32.832C173.261 32.64 172.909 32.544 172.515 32.544C171.864 32.544 171.357 32.816 170.995 33.36C170.643 33.904 170.467 34.7147 170.467 35.792C170.467 36.88 170.632 37.6907 170.963 38.224C171.293 38.7573 171.768 39.024 172.387 39.024ZM185.245 40H183.981L183.869 38.688C183.549 39.2107 183.181 39.5947 182.765 39.84C182.349 40.0747 181.842 40.192 181.245 40.192C180.509 40.192 179.933 39.968 179.517 39.52C179.101 39.072 178.893 38.4373 178.893 37.616V31.568H180.365V37.456C180.365 38.032 180.466 38.4427 180.669 38.688C180.872 38.9227 181.202 39.04 181.661 39.04C182.482 39.04 183.186 38.5547 183.773 37.584V31.568H185.245V40ZM189.758 31.568V40H188.286V31.568H189.758ZM189.006 27.52C189.315 27.52 189.566 27.616 189.758 27.808C189.95 28 190.046 28.24 190.046 28.528C190.046 28.816 189.95 29.056 189.758 29.248C189.566 29.4293 189.315 29.52 189.006 29.52C188.707 29.52 188.462 29.4293 188.27 29.248C188.078 29.056 187.982 28.816 187.982 28.528C187.982 28.24 188.078 28 188.27 27.808C188.462 27.616 188.707 27.52 189.006 27.52ZM199.169 35.536C199.169 35.7813 199.159 36.032 199.137 36.288H193.761C193.825 37.216 194.06 37.8987 194.465 38.336C194.871 38.7733 195.393 38.992 196.033 38.992C196.439 38.992 196.812 38.9333 197.153 38.816C197.495 38.6987 197.852 38.512 198.225 38.256L198.865 39.136C197.969 39.84 196.988 40.192 195.921 40.192C194.748 40.192 193.831 39.808 193.169 39.04C192.519 38.272 192.193 37.216 192.193 35.872C192.193 34.9973 192.332 34.224 192.609 33.552C192.897 32.8693 193.303 32.336 193.825 31.952C194.359 31.568 194.983 31.376 195.697 31.376C196.817 31.376 197.676 31.744 198.273 32.48C198.871 33.216 199.169 34.2347 199.169 35.536ZM197.713 35.104C197.713 34.272 197.548 33.6373 197.217 33.2C196.887 32.7627 196.391 32.544 195.729 32.544C194.524 32.544 193.868 33.4293 193.761 35.2H197.713V35.104ZM205.184 31.376C205.483 31.376 205.76 31.408 206.016 31.472L205.744 32.912C205.488 32.848 205.243 32.816 205.008 32.816C204.485 32.816 204.064 33.008 203.744 33.392C203.424 33.776 203.173 34.3733 202.992 35.184V40H201.52V31.568H202.784L202.928 33.28C203.152 32.6507 203.456 32.176 203.84 31.856C204.224 31.536 204.672 31.376 205.184 31.376ZM213.576 35.536C213.576 35.7813 213.565 36.032 213.544 36.288H208.168C208.232 37.216 208.466 37.8987 208.872 38.336C209.277 38.7733 209.8 38.992 210.44 38.992C210.845 38.992 211.218 38.9333 211.56 38.816C211.901 38.6987 212.258 38.512 212.632 38.256L213.272 39.136C212.376 39.84 211.394 40.192 210.328 40.192C209.154 40.192 208.237 39.808 207.576 39.04C206.925 38.272 206.6 37.216 206.6 35.872C206.6 34.9973 206.738 34.224 207.016 33.552C207.304 32.8693 207.709 32.336 208.232 31.952C208.765 31.568 209.389 31.376 210.104 31.376C211.224 31.376 212.082 31.744 212.68 32.48C213.277 33.216 213.576 34.2347 213.576 35.536ZM212.12 35.104C212.12 34.272 211.954 33.6373 211.624 33.2C211.293 32.7627 210.797 32.544 210.136 32.544C208.93 32.544 208.274 33.4293 208.168 35.2H212.12V35.104ZM219.894 31.376C220.662 31.376 221.26 31.6053 221.686 32.064C222.124 32.5227 222.342 33.152 222.342 33.952V40H220.87V34.16C220.87 33.5627 220.758 33.1413 220.534 32.896C220.31 32.6507 219.98 32.528 219.542 32.528C219.094 32.528 218.7 32.656 218.358 32.912C218.017 33.168 217.697 33.536 217.398 34.016V40H215.926V31.568H217.19L217.318 32.816C217.617 32.368 217.985 32.016 218.422 31.76C218.87 31.504 219.361 31.376 219.894 31.376ZM235.216 38.032C235.216 38.3733 235.274 38.6293 235.392 38.8C235.509 38.96 235.685 39.0827 235.92 39.168L235.584 40.192C235.146 40.1387 234.794 40.016 234.528 39.824C234.261 39.632 234.064 39.3333 233.936 38.928C233.37 39.7707 232.533 40.192 231.424 40.192C230.592 40.192 229.936 39.9573 229.456 39.488C228.976 39.0187 228.736 38.4053 228.736 37.648C228.736 36.752 229.056 36.064 229.696 35.584C230.346 35.104 231.264 34.864 232.448 34.864H233.744V34.24C233.744 33.6427 233.6 33.216 233.312 32.96C233.024 32.704 232.581 32.576 231.984 32.576C231.365 32.576 230.608 32.7253 229.712 33.024L229.344 31.952C230.389 31.568 231.36 31.376 232.256 31.376C233.248 31.376 233.989 31.6213 234.48 32.112C234.97 32.592 235.216 33.28 235.216 34.176V38.032ZM231.76 39.088C232.602 39.088 233.264 38.6507 233.744 37.776V35.84H232.64C231.082 35.84 230.304 36.416 230.304 37.568C230.304 38.0693 230.426 38.448 230.672 38.704C230.917 38.96 231.28 39.088 231.76 39.088ZM244.883 31.952C244.563 32.0587 244.211 32.128 243.827 32.16C243.443 32.192 242.973 32.208 242.419 32.208C243.411 32.656 243.907 33.3653 243.907 34.336C243.907 35.1787 243.619 35.8667 243.043 36.4C242.467 36.9333 241.683 37.2 240.691 37.2C240.307 37.2 239.949 37.1467 239.619 37.04C239.491 37.1253 239.389 37.2427 239.315 37.392C239.24 37.5307 239.203 37.6747 239.203 37.824C239.203 38.2827 239.571 38.512 240.307 38.512H241.651C242.216 38.512 242.717 38.6133 243.155 38.816C243.592 39.0187 243.928 39.296 244.163 39.648C244.408 40 244.531 40.4 244.531 40.848C244.531 41.6693 244.195 42.2987 243.523 42.736C242.851 43.184 241.869 43.408 240.579 43.408C239.672 43.408 238.952 43.312 238.419 43.12C237.896 42.9387 237.523 42.6613 237.299 42.288C237.075 41.9147 236.963 41.4347 236.963 40.848H238.291C238.291 41.1893 238.355 41.456 238.483 41.648C238.611 41.8507 238.84 42 239.171 42.096C239.501 42.2027 239.971 42.256 240.579 42.256C241.464 42.256 242.093 42.144 242.467 41.92C242.851 41.7067 243.043 41.3813 243.043 40.944C243.043 40.5493 242.893 40.2507 242.595 40.048C242.296 39.8453 241.88 39.744 241.347 39.744H240.019C239.304 39.744 238.76 39.5947 238.387 39.296C238.024 38.9867 237.843 38.6027 237.843 38.144C237.843 37.8667 237.923 37.6 238.083 37.344C238.243 37.088 238.472 36.8587 238.771 36.656C238.28 36.4 237.917 36.0853 237.683 35.712C237.459 35.328 237.347 34.864 237.347 34.32C237.347 33.7547 237.485 33.248 237.763 32.8C238.051 32.352 238.44 32.0053 238.931 31.76C239.432 31.504 239.987 31.376 240.595 31.376C241.256 31.3867 241.811 31.3653 242.259 31.312C242.707 31.248 243.075 31.168 243.363 31.072C243.661 30.9653 244.024 30.816 244.451 30.624L244.883 31.952ZM240.595 32.432C240.04 32.432 239.608 32.608 239.299 32.96C239 33.3013 238.851 33.7547 238.851 34.32C238.851 34.896 239.005 35.36 239.315 35.712C239.624 36.0533 240.061 36.224 240.627 36.224C241.203 36.224 241.64 36.0587 241.939 35.728C242.248 35.3867 242.403 34.912 242.403 34.304C242.403 33.056 241.8 32.432 240.595 32.432ZM250.059 31.376C250.358 31.376 250.635 31.408 250.891 31.472L250.619 32.912C250.363 32.848 250.118 32.816 249.883 32.816C249.36 32.816 248.939 33.008 248.619 33.392C248.299 33.776 248.048 34.3733 247.867 35.184V40H246.395V31.568H247.659L247.803 33.28C248.027 32.6507 248.331 32.176 248.715 31.856C249.099 31.536 249.547 31.376 250.059 31.376ZM258.451 35.536C258.451 35.7813 258.44 36.032 258.419 36.288H253.043C253.107 37.216 253.341 37.8987 253.747 38.336C254.152 38.7733 254.675 38.992 255.315 38.992C255.72 38.992 256.093 38.9333 256.435 38.816C256.776 38.6987 257.133 38.512 257.507 38.256L258.147 39.136C257.251 39.84 256.269 40.192 255.203 40.192C254.029 40.192 253.112 39.808 252.451 39.04C251.8 38.272 251.475 37.216 251.475 35.872C251.475 34.9973 251.613 34.224 251.891 33.552C252.179 32.8693 252.584 32.336 253.107 31.952C253.64 31.568 254.264 31.376 254.979 31.376C256.099 31.376 256.957 31.744 257.555 32.48C258.152 33.216 258.451 34.2347 258.451 35.536ZM256.995 35.104C256.995 34.272 256.829 33.6373 256.499 33.2C256.168 32.7627 255.672 32.544 255.011 32.544C253.805 32.544 253.149 33.4293 253.043 35.2H256.995V35.104ZM267.601 31.952C267.281 32.0587 266.929 32.128 266.545 32.16C266.161 32.192 265.692 32.208 265.137 32.208C266.129 32.656 266.625 33.3653 266.625 34.336C266.625 35.1787 266.337 35.8667 265.761 36.4C265.185 36.9333 264.401 37.2 263.409 37.2C263.025 37.2 262.668 37.1467 262.337 37.04C262.209 37.1253 262.108 37.2427 262.033 37.392C261.959 37.5307 261.921 37.6747 261.921 37.824C261.921 38.2827 262.289 38.512 263.025 38.512H264.369C264.935 38.512 265.436 38.6133 265.873 38.816C266.311 39.0187 266.647 39.296 266.881 39.648C267.127 40 267.249 40.4 267.249 40.848C267.249 41.6693 266.913 42.2987 266.241 42.736C265.569 43.184 264.588 43.408 263.297 43.408C262.391 43.408 261.671 43.312 261.137 43.12C260.615 42.9387 260.241 42.6613 260.017 42.288C259.793 41.9147 259.681 41.4347 259.681 40.848H261.009C261.009 41.1893 261.073 41.456 261.201 41.648C261.329 41.8507 261.559 42 261.889 42.096C262.22 42.2027 262.689 42.256 263.297 42.256C264.183 42.256 264.812 42.144 265.185 41.92C265.569 41.7067 265.761 41.3813 265.761 40.944C265.761 40.5493 265.612 40.2507 265.313 40.048C265.015 39.8453 264.599 39.744 264.065 39.744H262.737C262.023 39.744 261.479 39.5947 261.105 39.296C260.743 38.9867 260.561 38.6027 260.561 38.144C260.561 37.8667 260.641 37.6 260.801 37.344C260.961 37.088 261.191 36.8587 261.489 36.656C260.999 36.4 260.636 36.0853 260.401 35.712C260.177 35.328 260.065 34.864 260.065 34.32C260.065 33.7547 260.204 33.248 260.481 32.8C260.769 32.352 261.159 32.0053 261.649 31.76C262.151 31.504 262.705 31.376 263.313 31.376C263.975 31.3867 264.529 31.3653 264.977 31.312C265.425 31.248 265.793 31.168 266.081 31.072C266.38 30.9653 266.743 30.816 267.169 30.624L267.601 31.952ZM263.313 32.432C262.759 32.432 262.327 32.608 262.017 32.96C261.719 33.3013 261.569 33.7547 261.569 34.32C261.569 34.896 261.724 35.36 262.033 35.712C262.343 36.0533 262.78 36.224 263.345 36.224C263.921 36.224 264.359 36.0587 264.657 35.728C264.967 35.3867 265.121 34.912 265.121 34.304C265.121 33.056 264.519 32.432 263.313 32.432ZM274.497 38.032C274.497 38.3733 274.556 38.6293 274.673 38.8C274.79 38.96 274.966 39.0827 275.201 39.168L274.865 40.192C274.428 40.1387 274.076 40.016 273.809 39.824C273.542 39.632 273.345 39.3333 273.217 38.928C272.652 39.7707 271.814 40.192 270.705 40.192C269.873 40.192 269.217 39.9573 268.737 39.488C268.257 39.0187 268.017 38.4053 268.017 37.648C268.017 36.752 268.337 36.064 268.977 35.584C269.628 35.104 270.545 34.864 271.729 34.864H273.025V34.24C273.025 33.6427 272.881 33.216 272.593 32.96C272.305 32.704 271.862 32.576 271.265 32.576C270.646 32.576 269.889 32.7253 268.993 33.024L268.625 31.952C269.67 31.568 270.641 31.376 271.537 31.376C272.529 31.376 273.27 31.6213 273.761 32.112C274.252 32.592 274.497 33.28 274.497 34.176V38.032ZM271.041 39.088C271.884 39.088 272.545 38.6507 273.025 37.776V35.84H271.921C270.364 35.84 269.585 36.416 269.585 37.568C269.585 38.0693 269.708 38.448 269.953 38.704C270.198 38.96 270.561 39.088 271.041 39.088ZM281.184 31.376C281.483 31.376 281.76 31.408 282.016 31.472L281.744 32.912C281.488 32.848 281.243 32.816 281.008 32.816C280.485 32.816 280.064 33.008 279.744 33.392C279.424 33.776 279.173 34.3733 278.992 35.184V40H277.52V31.568H278.784L278.928 33.28C279.152 32.6507 279.456 32.176 279.84 31.856C280.224 31.536 280.672 31.376 281.184 31.376ZM294.118 31.568L291.254 40H289.478L286.566 31.568H288.166L290.374 38.688L292.566 31.568H294.118ZM301.231 38.032C301.231 38.3733 301.29 38.6293 301.407 38.8C301.525 38.96 301.701 39.0827 301.935 39.168L301.599 40.192C301.162 40.1387 300.81 40.016 300.543 39.824C300.277 39.632 300.079 39.3333 299.951 38.928C299.386 39.7707 298.549 40.192 297.439 40.192C296.607 40.192 295.951 39.9573 295.471 39.488C294.991 39.0187 294.751 38.4053 294.751 37.648C294.751 36.752 295.071 36.064 295.711 35.584C296.362 35.104 297.279 34.864 298.463 34.864H299.759V34.24C299.759 33.6427 299.615 33.216 299.327 32.96C299.039 32.704 298.597 32.576 297.999 32.576C297.381 32.576 296.623 32.7253 295.727 33.024L295.359 31.952C296.405 31.568 297.375 31.376 298.271 31.376C299.263 31.376 300.005 31.6213 300.495 32.112C300.986 32.592 301.231 33.28 301.231 34.176V38.032ZM297.775 39.088C298.618 39.088 299.279 38.6507 299.759 37.776V35.84H298.655C297.098 35.84 296.319 36.416 296.319 37.568C296.319 38.0693 296.442 38.448 296.687 38.704C296.933 38.96 297.295 39.088 297.775 39.088ZM307.918 31.376C308.217 31.376 308.494 31.408 308.75 31.472L308.478 32.912C308.222 32.848 307.977 32.816 307.742 32.816C307.22 32.816 306.798 33.008 306.478 33.392C306.158 33.776 305.908 34.3733 305.726 35.184V40H304.254V31.568H305.518L305.662 33.28C305.886 32.6507 306.19 32.176 306.574 31.856C306.958 31.536 307.406 31.376 307.918 31.376ZM311.898 31.568V40H310.426V31.568H311.898ZM311.146 27.52C311.456 27.52 311.706 27.616 311.898 27.808C312.09 28 312.186 28.24 312.186 28.528C312.186 28.816 312.09 29.056 311.898 29.248C311.706 29.4293 311.456 29.52 311.146 29.52C310.848 29.52 310.602 29.4293 310.41 29.248C310.218 29.056 310.122 28.816 310.122 28.528C310.122 28.24 310.218 28 310.41 27.808C310.602 27.616 310.848 27.52 311.146 27.52ZM318.11 31.376C319.294 31.376 320.211 31.7707 320.862 32.56C321.523 33.3493 321.854 34.4213 321.854 35.776C321.854 36.6507 321.705 37.424 321.406 38.096C321.107 38.7573 320.675 39.2747 320.11 39.648C319.545 40.0107 318.873 40.192 318.094 40.192C316.91 40.192 315.987 39.7973 315.326 39.008C314.665 38.2187 314.334 37.1467 314.334 35.792C314.334 34.9173 314.483 34.1493 314.782 33.488C315.081 32.816 315.513 32.2987 316.078 31.936C316.643 31.5627 317.321 31.376 318.11 31.376ZM318.11 32.56C316.649 32.56 315.918 33.6373 315.918 35.792C315.918 37.936 316.643 39.008 318.094 39.008C319.545 39.008 320.27 37.9307 320.27 35.776C320.27 33.632 319.55 32.56 318.11 32.56ZM326.574 31.376C327.15 31.376 327.667 31.456 328.126 31.616C328.584 31.776 329.022 32.016 329.438 32.336L328.814 33.264C328.43 33.0187 328.062 32.8373 327.71 32.72C327.368 32.6027 327.006 32.544 326.622 32.544C326.142 32.544 325.763 32.6453 325.486 32.848C325.208 33.04 325.07 33.3067 325.07 33.648C325.07 33.9893 325.198 34.256 325.454 34.448C325.72 34.64 326.195 34.8267 326.878 35.008C327.816 35.2427 328.515 35.5627 328.974 35.968C329.443 36.3733 329.678 36.928 329.678 37.632C329.678 38.464 329.352 39.0987 328.702 39.536C328.062 39.9733 327.278 40.192 326.35 40.192C325.07 40.192 324.008 39.824 323.166 39.088L323.95 38.192C324.664 38.736 325.454 39.008 326.318 39.008C326.872 39.008 327.31 38.896 327.63 38.672C327.96 38.4373 328.126 38.1227 328.126 37.728C328.126 37.44 328.067 37.2107 327.95 37.04C327.832 36.8587 327.63 36.704 327.342 36.576C327.054 36.4373 326.632 36.2933 326.078 36.144C325.182 35.9093 324.531 35.5947 324.126 35.2C323.731 34.8053 323.534 34.304 323.534 33.696C323.534 33.2587 323.662 32.864 323.918 32.512C324.184 32.1493 324.547 31.872 325.006 31.68C325.475 31.4773 325.998 31.376 326.574 31.376ZM135.392 50.376C136.469 50.376 137.259 50.76 137.76 51.528C138.261 52.296 138.512 53.3787 138.512 54.776C138.512 56.0987 138.224 57.1653 137.648 57.976C137.072 58.7867 136.256 59.192 135.2 59.192C134.261 59.192 133.525 58.872 132.992 58.232V62.232L131.52 62.408V50.568H132.784L132.896 51.704C133.205 51.2773 133.579 50.952 134.016 50.728C134.453 50.4933 134.912 50.376 135.392 50.376ZM134.848 57.992C136.235 57.992 136.928 56.92 136.928 54.776C136.928 52.6213 136.293 51.544 135.024 51.544C134.608 51.544 134.229 51.6667 133.888 51.912C133.547 52.1573 133.248 52.472 132.992 52.856V56.968C133.205 57.2987 133.472 57.5547 133.792 57.736C134.112 57.9067 134.464 57.992 134.848 57.992ZM144.684 50.376C144.983 50.376 145.26 50.408 145.516 50.472L145.244 51.912C144.988 51.848 144.743 51.816 144.508 51.816C143.985 51.816 143.564 52.008 143.244 52.392C142.924 52.776 142.673 53.3733 142.492 54.184V59H141.02V50.568H142.284L142.428 52.28C142.652 51.6507 142.956 51.176 143.34 50.856C143.724 50.536 144.172 50.376 144.684 50.376ZM149.876 50.376C151.06 50.376 151.977 50.7707 152.628 51.56C153.289 52.3493 153.62 53.4213 153.62 54.776C153.62 55.6507 153.47 56.424 153.172 57.096C152.873 57.7573 152.441 58.2747 151.876 58.648C151.31 59.0107 150.638 59.192 149.86 59.192C148.676 59.192 147.753 58.7973 147.092 58.008C146.43 57.2187 146.1 56.1467 146.1 54.792C146.1 53.9173 146.249 53.1493 146.548 52.488C146.846 51.816 147.278 51.2987 147.844 50.936C148.409 50.5627 149.086 50.376 149.876 50.376ZM149.876 51.56C148.414 51.56 147.684 52.6373 147.684 54.792C147.684 56.936 148.409 58.008 149.86 58.008C151.31 58.008 152.036 56.9307 152.036 54.776C152.036 52.632 151.316 51.56 149.876 51.56ZM162.579 47.176V59H161.283L161.139 57.832C160.862 58.2587 160.515 58.5947 160.099 58.84C159.683 59.0747 159.219 59.192 158.707 59.192C157.705 59.192 156.921 58.7973 156.355 58.008C155.801 57.2187 155.523 56.1573 155.523 54.824C155.523 53.96 155.657 53.192 155.923 52.52C156.19 51.848 156.574 51.3253 157.075 50.952C157.577 50.568 158.163 50.376 158.835 50.376C159.699 50.376 160.457 50.7227 161.107 51.416V47L162.579 47.176ZM159.027 58.024C159.475 58.024 159.859 57.9227 160.179 57.72C160.499 57.5067 160.809 57.192 161.107 56.776V52.648C160.83 52.2853 160.531 52.0133 160.211 51.832C159.902 51.64 159.55 51.544 159.155 51.544C158.505 51.544 157.998 51.816 157.635 52.36C157.283 52.904 157.107 53.7147 157.107 54.792C157.107 55.88 157.273 56.6907 157.603 57.224C157.934 57.7573 158.409 58.024 159.027 58.024ZM171.886 59H170.622L170.51 57.688C170.19 58.2107 169.822 58.5947 169.406 58.84C168.99 59.0747 168.483 59.192 167.886 59.192C167.15 59.192 166.574 58.968 166.158 58.52C165.742 58.072 165.534 57.4373 165.534 56.616V50.568H167.006V56.456C167.006 57.032 167.107 57.4427 167.31 57.688C167.512 57.9227 167.843 58.04 168.302 58.04C169.123 58.04 169.827 57.5547 170.414 56.584V50.568H171.886V59ZM177.998 50.376C178.5 50.376 178.958 50.4507 179.374 50.6C179.79 50.7387 180.19 50.968 180.574 51.288L179.87 52.216C179.572 52.0027 179.278 51.848 178.99 51.752C178.713 51.6453 178.404 51.592 178.062 51.592C177.38 51.592 176.846 51.864 176.462 52.408C176.089 52.952 175.902 53.7573 175.902 54.824C175.902 55.8907 176.089 56.68 176.462 57.192C176.836 57.6933 177.369 57.944 178.062 57.944C178.393 57.944 178.697 57.896 178.974 57.8C179.252 57.6933 179.561 57.528 179.902 57.304L180.574 58.264C179.806 58.8827 178.948 59.192 177.998 59.192C176.857 59.192 175.956 58.808 175.294 58.04C174.644 57.272 174.318 56.2107 174.318 54.856C174.318 53.96 174.468 53.176 174.766 52.504C175.065 51.832 175.486 51.3093 176.03 50.936C176.585 50.5627 177.241 50.376 177.998 50.376ZM186.823 58.616C186.268 59 185.639 59.192 184.935 59.192C184.22 59.192 183.66 58.9893 183.255 58.584C182.86 58.168 182.663 57.5707 182.663 56.792V51.704H181.191V50.568H182.663V48.664L184.135 48.488V50.568H186.135L185.975 51.704H184.135V56.728C184.135 57.1653 184.21 57.4853 184.359 57.688C184.519 57.88 184.78 57.976 185.143 57.976C185.474 57.976 185.847 57.864 186.263 57.64L186.823 58.616ZM191.282 50.376C192.466 50.376 193.383 50.7707 194.034 51.56C194.695 52.3493 195.026 53.4213 195.026 54.776C195.026 55.6507 194.876 56.424 194.578 57.096C194.279 57.7573 193.847 58.2747 193.282 58.648C192.716 59.0107 192.044 59.192 191.266 59.192C190.082 59.192 189.159 58.7973 188.498 58.008C187.836 57.2187 187.506 56.1467 187.506 54.792C187.506 53.9173 187.655 53.1493 187.954 52.488C188.252 51.816 188.684 51.2987 189.25 50.936C189.815 50.5627 190.492 50.376 191.282 50.376ZM191.282 51.56C189.82 51.56 189.09 52.6373 189.09 54.792C189.09 56.936 189.815 58.008 191.266 58.008C192.716 58.008 193.442 56.9307 193.442 54.776C193.442 52.632 192.722 51.56 191.282 51.56ZM199.746 50.376C200.322 50.376 200.839 50.456 201.298 50.616C201.756 50.776 202.194 51.016 202.61 51.336L201.986 52.264C201.602 52.0187 201.234 51.8373 200.882 51.72C200.54 51.6027 200.178 51.544 199.794 51.544C199.314 51.544 198.935 51.6453 198.658 51.848C198.38 52.04 198.242 52.3067 198.242 52.648C198.242 52.9893 198.37 53.256 198.626 53.448C198.892 53.64 199.367 53.8267 200.049 54.008C200.988 54.2427 201.687 54.5627 202.146 54.968C202.615 55.3733 202.85 55.928 202.85 56.632C202.85 57.464 202.524 58.0987 201.874 58.536C201.234 58.9733 200.45 59.192 199.522 59.192C198.242 59.192 197.18 58.824 196.338 58.088L197.122 57.192C197.836 57.736 198.626 58.008 199.49 58.008C200.044 58.008 200.482 57.896 200.802 57.672C201.132 57.4373 201.298 57.1227 201.298 56.728C201.298 56.44 201.239 56.2107 201.122 56.04C201.004 55.8587 200.802 55.704 200.514 55.576C200.226 55.4373 199.804 55.2933 199.25 55.144C198.354 54.9093 197.703 54.5947 197.298 54.2C196.903 53.8053 196.706 53.304 196.706 52.696C196.706 52.2587 196.834 51.864 197.09 51.512C197.356 51.1493 197.719 50.872 198.178 50.68C198.647 50.4773 199.17 50.376 199.746 50.376ZM214.841 57.032C214.841 57.3733 214.899 57.6293 215.017 57.8C215.134 57.96 215.31 58.0827 215.545 58.168L215.209 59.192C214.771 59.1387 214.419 59.016 214.153 58.824C213.886 58.632 213.689 58.3333 213.561 57.928C212.995 58.7707 212.158 59.192 211.049 59.192C210.217 59.192 209.561 58.9573 209.081 58.488C208.601 58.0187 208.361 57.4053 208.361 56.648C208.361 55.752 208.681 55.064 209.321 54.584C209.971 54.104 210.889 53.864 212.073 53.864H213.369V53.24C213.369 52.6427 213.225 52.216 212.937 51.96C212.649 51.704 212.206 51.576 211.609 51.576C210.99 51.576 210.233 51.7253 209.337 52.024L208.969 50.952C210.014 50.568 210.985 50.376 211.881 50.376C212.873 50.376 213.614 50.6213 214.105 51.112C214.595 51.592 214.841 52.28 214.841 53.176V57.032ZM211.385 58.088C212.227 58.088 212.889 57.6507 213.369 56.776V54.84H212.265C210.707 54.84 209.929 55.416 209.929 56.568C209.929 57.0693 210.051 57.448 210.297 57.704C210.542 57.96 210.905 58.088 211.385 58.088ZM223.778 59.192C223.234 59.192 222.802 59.032 222.482 58.712C222.173 58.3813 222.018 57.9227 222.018 57.336V47.176L223.49 47V57.304C223.49 57.5387 223.527 57.7093 223.602 57.816C223.687 57.9227 223.826 57.976 224.018 57.976C224.221 57.976 224.402 57.944 224.562 57.88L224.946 58.904C224.594 59.096 224.205 59.192 223.778 59.192ZM232.388 57.032C232.388 57.3733 232.446 57.6293 232.564 57.8C232.681 57.96 232.857 58.0827 233.092 58.168L232.756 59.192C232.318 59.1387 231.966 59.016 231.7 58.824C231.433 58.632 231.236 58.3333 231.108 57.928C230.542 58.7707 229.705 59.192 228.596 59.192C227.764 59.192 227.108 58.9573 226.628 58.488C226.148 58.0187 225.908 57.4053 225.908 56.648C225.908 55.752 226.228 55.064 226.868 54.584C227.518 54.104 228.436 53.864 229.62 53.864H230.916V53.24C230.916 52.6427 230.772 52.216 230.484 51.96C230.196 51.704 229.753 51.576 229.156 51.576C228.537 51.576 227.78 51.7253 226.884 52.024L226.516 50.952C227.561 50.568 228.532 50.376 229.428 50.376C230.42 50.376 231.161 50.6213 231.652 51.112C232.142 51.592 232.388 52.28 232.388 53.176V57.032ZM228.932 58.088C229.774 58.088 230.436 57.6507 230.916 56.776V54.84H229.812C228.254 54.84 227.476 55.416 227.476 56.568C227.476 57.0693 227.598 57.448 227.844 57.704C228.089 57.96 228.452 58.088 228.932 58.088ZM245.837 50.568L242.973 59H241.197L238.285 50.568H239.885L242.093 57.688L244.285 50.568H245.837ZM253.826 54.536C253.826 54.7813 253.815 55.032 253.794 55.288H248.418C248.482 56.216 248.716 56.8987 249.122 57.336C249.527 57.7733 250.05 57.992 250.69 57.992C251.095 57.992 251.468 57.9333 251.81 57.816C252.151 57.6987 252.508 57.512 252.882 57.256L253.522 58.136C252.626 58.84 251.644 59.192 250.578 59.192C249.404 59.192 248.487 58.808 247.826 58.04C247.175 57.272 246.85 56.216 246.85 54.872C246.85 53.9973 246.988 53.224 247.266 52.552C247.554 51.8693 247.959 51.336 248.482 50.952C249.015 50.568 249.639 50.376 250.354 50.376C251.474 50.376 252.332 50.744 252.93 51.48C253.527 52.216 253.826 53.2347 253.826 54.536ZM252.37 54.104C252.37 53.272 252.204 52.6373 251.874 52.2C251.543 51.7627 251.047 51.544 250.386 51.544C249.18 51.544 248.524 52.4293 248.418 54.2H252.37V54.104ZM261.011 50.568V51.688L256.611 57.768H261.059L260.883 59H254.947V57.896L259.331 51.816H255.315V50.568H261.011ZM263.435 56.968C263.755 56.968 264.022 57.0747 264.235 57.288C264.449 57.5013 264.555 57.7627 264.555 58.072C264.555 58.4027 264.459 58.7813 264.267 59.208L263.195 61.656H262.139L262.779 59C262.641 58.8933 262.529 58.76 262.443 58.6C262.369 58.44 262.331 58.264 262.331 58.072C262.331 57.7627 262.438 57.5013 262.651 57.288C262.865 57.0747 263.126 56.968 263.435 56.968ZM273.417 50.376C273.993 50.376 274.511 50.456 274.969 50.616C275.428 50.776 275.865 51.016 276.281 51.336L275.657 52.264C275.273 52.0187 274.905 51.8373 274.553 51.72C274.212 51.6027 273.849 51.544 273.465 51.544C272.985 51.544 272.607 51.6453 272.329 51.848C272.052 52.04 271.913 52.3067 271.913 52.648C271.913 52.9893 272.041 53.256 272.297 53.448C272.564 53.64 273.039 53.8267 273.721 54.008C274.66 54.2427 275.359 54.5627 275.817 54.968C276.287 55.3733 276.521 55.928 276.521 56.632C276.521 57.464 276.196 58.0987 275.545 58.536C274.905 58.9733 274.121 59.192 273.193 59.192C271.913 59.192 270.852 58.824 270.009 58.088L270.793 57.192C271.508 57.736 272.297 58.008 273.161 58.008C273.716 58.008 274.153 57.896 274.473 57.672C274.804 57.4373 274.969 57.1227 274.969 56.728C274.969 56.44 274.911 56.2107 274.793 56.04C274.676 55.8587 274.473 55.704 274.185 55.576C273.897 55.4373 273.476 55.2933 272.921 55.144C272.025 54.9093 271.375 54.5947 270.969 54.2C270.575 53.8053 270.377 53.304 270.377 52.696C270.377 52.2587 270.505 51.864 270.761 51.512C271.028 51.1493 271.391 50.872 271.849 50.68C272.319 50.4773 272.841 50.376 273.417 50.376ZM284.966 54.536C284.966 54.7813 284.955 55.032 284.934 55.288H279.558C279.622 56.216 279.857 56.8987 280.262 57.336C280.667 57.7733 281.19 57.992 281.83 57.992C282.235 57.992 282.609 57.9333 282.95 57.816C283.291 57.6987 283.649 57.512 284.022 57.256L284.662 58.136C283.766 58.84 282.785 59.192 281.718 59.192C280.545 59.192 279.627 58.808 278.966 58.04C278.315 57.272 277.99 56.216 277.99 54.872C277.99 53.9973 278.129 53.224 278.406 52.552C278.694 51.8693 279.099 51.336 279.622 50.952C280.155 50.568 280.779 50.376 281.494 50.376C282.614 50.376 283.473 50.744 284.07 51.48C284.667 52.216 284.966 53.2347 284.966 54.536ZM283.51 54.104C283.51 53.272 283.345 52.6373 283.014 52.2C282.683 51.7627 282.187 51.544 281.526 51.544C280.321 51.544 279.665 52.4293 279.558 54.2H283.51V54.104ZM295.519 50.376C296.287 50.376 296.885 50.6053 297.311 51.064C297.749 51.5227 297.967 52.152 297.967 52.952V59H296.495V53.16C296.495 52.5627 296.378 52.1413 296.143 51.896C295.919 51.6507 295.589 51.528 295.151 51.528C294.714 51.528 294.325 51.656 293.983 51.912C293.642 52.168 293.322 52.5307 293.023 53V59H291.551V47.192L293.023 47.032V51.736C293.685 50.8293 294.517 50.376 295.519 50.376ZM306.606 57.032C306.606 57.3733 306.665 57.6293 306.782 57.8C306.9 57.96 307.076 58.0827 307.31 58.168L306.974 59.192C306.537 59.1387 306.185 59.016 305.918 58.824C305.652 58.632 305.454 58.3333 305.326 57.928C304.761 58.7707 303.924 59.192 302.814 59.192C301.982 59.192 301.326 58.9573 300.846 58.488C300.366 58.0187 300.126 57.4053 300.126 56.648C300.126 55.752 300.446 55.064 301.086 54.584C301.737 54.104 302.654 53.864 303.838 53.864H305.134V53.24C305.134 52.6427 304.99 52.216 304.702 51.96C304.414 51.704 303.972 51.576 303.374 51.576C302.756 51.576 301.998 51.7253 301.102 52.024L300.734 50.952C301.78 50.568 302.75 50.376 303.646 50.376C304.638 50.376 305.38 50.6213 305.87 51.112C306.361 51.592 306.606 52.28 306.606 53.176V57.032ZM303.15 58.088C303.993 58.088 304.654 57.6507 305.134 56.776V54.84H304.03C302.473 54.84 301.694 55.416 301.694 56.568C301.694 57.0693 301.817 57.448 302.062 57.704C302.308 57.96 302.67 58.088 303.15 58.088ZM312.701 50.376C313.203 50.376 313.661 50.4507 314.077 50.6C314.493 50.7387 314.893 50.968 315.277 51.288L314.573 52.216C314.275 52.0027 313.981 51.848 313.693 51.752C313.416 51.6453 313.107 51.592 312.765 51.592C312.083 51.592 311.549 51.864 311.165 52.408C310.792 52.952 310.605 53.7573 310.605 54.824C310.605 55.8907 310.792 56.68 311.165 57.192C311.539 57.6933 312.072 57.944 312.765 57.944C313.096 57.944 313.4 57.896 313.677 57.8C313.955 57.6933 314.264 57.528 314.605 57.304L315.277 58.264C314.509 58.8827 313.651 59.192 312.701 59.192C311.56 59.192 310.659 58.808 309.997 58.04C309.347 57.272 309.021 56.2107 309.021 54.856C309.021 53.96 309.171 53.176 309.469 52.504C309.768 51.832 310.189 51.3093 310.733 50.936C311.288 50.5627 311.944 50.376 312.701 50.376ZM323.326 54.536C323.326 54.7813 323.315 55.032 323.294 55.288H317.918C317.982 56.216 318.216 56.8987 318.622 57.336C319.027 57.7733 319.55 57.992 320.19 57.992C320.595 57.992 320.968 57.9333 321.31 57.816C321.651 57.6987 322.008 57.512 322.382 57.256L323.022 58.136C322.126 58.84 321.144 59.192 320.078 59.192C318.904 59.192 317.987 58.808 317.326 58.04C316.675 57.272 316.35 56.216 316.35 54.872C316.35 53.9973 316.488 53.224 316.766 52.552C317.054 51.8693 317.459 51.336 317.982 50.952C318.515 50.568 319.139 50.376 319.854 50.376C320.974 50.376 321.832 50.744 322.43 51.48C323.027 52.216 323.326 53.2347 323.326 54.536ZM321.87 54.104C321.87 53.272 321.704 52.6373 321.374 52.2C321.043 51.7627 320.547 51.544 319.886 51.544C318.68 51.544 318.024 52.4293 317.918 54.2H321.87V54.104ZM139.984 69.376C140.677 69.376 141.232 69.6107 141.648 70.08C142.064 70.5387 142.272 71.1627 142.272 71.952V78H140.8V72.16C140.8 71.072 140.405 70.528 139.616 70.528C139.2 70.528 138.848 70.6507 138.56 70.896C138.272 71.1307 137.963 71.504 137.632 72.016V78H136.16V72.16C136.16 71.072 135.765 70.528 134.976 70.528C134.549 70.528 134.192 70.6507 133.904 70.896C133.616 71.1413 133.312 71.5147 132.992 72.016V78H131.52V69.568H132.784L132.912 70.8C133.541 69.8507 134.352 69.376 135.344 69.376C135.867 69.376 136.309 69.5093 136.672 69.776C137.045 70.0427 137.312 70.416 137.472 70.896C137.803 70.4053 138.165 70.032 138.56 69.776C138.965 69.5093 139.44 69.376 139.984 69.376ZM151.607 73.536C151.607 73.7813 151.596 74.032 151.575 74.288H146.199C146.263 75.216 146.497 75.8987 146.903 76.336C147.308 76.7733 147.831 76.992 148.471 76.992C148.876 76.992 149.249 76.9333 149.591 76.816C149.932 76.6987 150.289 76.512 150.663 76.256L151.303 77.136C150.407 77.84 149.425 78.192 148.359 78.192C147.185 78.192 146.268 77.808 145.607 77.04C144.956 76.272 144.631 75.216 144.631 73.872C144.631 72.9973 144.769 72.224 145.047 71.552C145.335 70.8693 145.74 70.336 146.263 69.952C146.796 69.568 147.42 69.376 148.135 69.376C149.255 69.376 150.113 69.744 150.711 70.48C151.308 71.216 151.607 72.2347 151.607 73.536ZM150.151 73.104C150.151 72.272 149.985 71.6373 149.655 71.2C149.324 70.7627 148.828 70.544 148.167 70.544C146.961 70.544 146.305 71.4293 146.199 73.2H150.151V73.104ZM160.486 66.176V78H159.19L159.046 76.832C158.768 77.2587 158.422 77.5947 158.006 77.84C157.59 78.0747 157.126 78.192 156.614 78.192C155.611 78.192 154.827 77.7973 154.262 77.008C153.707 76.2187 153.43 75.1573 153.43 73.824C153.43 72.96 153.563 72.192 153.83 71.52C154.096 70.848 154.48 70.3253 154.982 69.952C155.483 69.568 156.07 69.376 156.742 69.376C157.606 69.376 158.363 69.7227 159.014 70.416V66L160.486 66.176ZM156.934 77.024C157.382 77.024 157.766 76.9227 158.086 76.72C158.406 76.5067 158.715 76.192 159.014 75.776V71.648C158.736 71.2853 158.438 71.0133 158.118 70.832C157.808 70.64 157.456 70.544 157.062 70.544C156.411 70.544 155.904 70.816 155.542 71.36C155.19 71.904 155.014 72.7147 155.014 73.792C155.014 74.88 155.179 75.6907 155.51 76.224C155.84 76.7573 156.315 77.024 156.934 77.024ZM164.992 69.568V78H163.52V69.568H164.992ZM164.24 65.52C164.549 65.52 164.8 65.616 164.992 65.808C165.184 66 165.28 66.24 165.28 66.528C165.28 66.816 165.184 67.056 164.992 67.248C164.8 67.4293 164.549 67.52 164.24 67.52C163.941 67.52 163.696 67.4293 163.504 67.248C163.312 67.056 163.216 66.816 163.216 66.528C163.216 66.24 163.312 66 163.504 65.808C163.696 65.616 163.941 65.52 164.24 65.52ZM173.716 76.032C173.716 76.3733 173.774 76.6293 173.892 76.8C174.009 76.96 174.185 77.0827 174.42 77.168L174.084 78.192C173.646 78.1387 173.294 78.016 173.028 77.824C172.761 77.632 172.564 77.3333 172.436 76.928C171.87 77.7707 171.033 78.192 169.924 78.192C169.092 78.192 168.436 77.9573 167.956 77.488C167.476 77.0187 167.236 76.4053 167.236 75.648C167.236 74.752 167.556 74.064 168.196 73.584C168.846 73.104 169.764 72.864 170.948 72.864H172.244V72.24C172.244 71.6427 172.1 71.216 171.812 70.96C171.524 70.704 171.081 70.576 170.484 70.576C169.865 70.576 169.108 70.7253 168.212 71.024L167.844 69.952C168.889 69.568 169.86 69.376 170.756 69.376C171.748 69.376 172.489 69.6213 172.98 70.112C173.47 70.592 173.716 71.28 173.716 72.176V76.032ZM170.26 77.088C171.102 77.088 171.764 76.6507 172.244 75.776V73.84H171.14C169.582 73.84 168.804 74.416 168.804 75.568C168.804 76.0693 168.926 76.448 169.172 76.704C169.417 76.96 169.78 77.088 170.26 77.088ZM180.707 69.376C181.475 69.376 182.072 69.6053 182.499 70.064C182.936 70.5227 183.155 71.152 183.155 71.952V78H181.683V72.16C181.683 71.5627 181.571 71.1413 181.347 70.896C181.123 70.6507 180.792 70.528 180.355 70.528C179.907 70.528 179.512 70.656 179.171 70.912C178.829 71.168 178.509 71.536 178.211 72.016V78H176.739V69.568H178.003L178.131 70.816C178.429 70.368 178.797 70.016 179.235 69.76C179.683 69.504 180.173 69.376 180.707 69.376ZM190.37 77.616C189.815 78 189.186 78.192 188.482 78.192C187.767 78.192 187.207 77.9893 186.802 77.584C186.407 77.168 186.21 76.5707 186.21 75.792V70.704H184.738V69.568H186.21V67.664L187.682 67.488V69.568H189.682L189.522 70.704H187.682V75.728C187.682 76.1653 187.756 76.4853 187.906 76.688C188.066 76.88 188.327 76.976 188.69 76.976C189.02 76.976 189.394 76.864 189.81 76.64L190.37 77.616ZM198.029 73.536C198.029 73.7813 198.018 74.032 197.997 74.288H192.621C192.685 75.216 192.919 75.8987 193.325 76.336C193.73 76.7733 194.253 76.992 194.893 76.992C195.298 76.992 195.671 76.9333 196.013 76.816C196.354 76.6987 196.711 76.512 197.085 76.256L197.725 77.136C196.829 77.84 195.847 78.192 194.781 78.192C193.607 78.192 192.69 77.808 192.029 77.04C191.378 76.272 191.053 75.216 191.053 73.872C191.053 72.9973 191.191 72.224 191.469 71.552C191.757 70.8693 192.162 70.336 192.685 69.952C193.218 69.568 193.842 69.376 194.557 69.376C195.677 69.376 196.535 69.744 197.133 70.48C197.73 71.216 198.029 72.2347 198.029 73.536ZM196.573 73.104C196.573 72.272 196.407 71.6373 196.077 71.2C195.746 70.7627 195.25 70.544 194.589 70.544C193.383 70.544 192.727 71.4293 192.621 73.2H196.573V73.104ZM210.886 78H209.622L209.51 76.688C209.19 77.2107 208.822 77.5947 208.406 77.84C207.99 78.0747 207.483 78.192 206.886 78.192C206.15 78.192 205.574 77.968 205.158 77.52C204.742 77.072 204.534 76.4373 204.534 75.616V69.568H206.006V75.456C206.006 76.032 206.107 76.4427 206.31 76.688C206.512 76.9227 206.843 77.04 207.302 77.04C208.123 77.04 208.827 76.5547 209.414 75.584V69.568H210.886V78ZM217.894 69.376C218.662 69.376 219.26 69.6053 219.686 70.064C220.124 70.5227 220.342 71.152 220.342 71.952V78H218.87V72.16C218.87 71.5627 218.758 71.1413 218.534 70.896C218.31 70.6507 217.98 70.528 217.542 70.528C217.094 70.528 216.7 70.656 216.358 70.912C216.017 71.168 215.697 71.536 215.398 72.016V78H213.926V69.568H215.19L215.318 70.816C215.617 70.368 215.985 70.016 216.422 69.76C216.87 69.504 217.361 69.376 217.894 69.376ZM233.216 76.032C233.216 76.3733 233.274 76.6293 233.392 76.8C233.509 76.96 233.685 77.0827 233.92 77.168L233.584 78.192C233.146 78.1387 232.794 78.016 232.528 77.824C232.261 77.632 232.064 77.3333 231.936 76.928C231.37 77.7707 230.533 78.192 229.424 78.192C228.592 78.192 227.936 77.9573 227.456 77.488C226.976 77.0187 226.736 76.4053 226.736 75.648C226.736 74.752 227.056 74.064 227.696 73.584C228.346 73.104 229.264 72.864 230.448 72.864H231.744V72.24C231.744 71.6427 231.6 71.216 231.312 70.96C231.024 70.704 230.581 70.576 229.984 70.576C229.365 70.576 228.608 70.7253 227.712 71.024L227.344 69.952C228.389 69.568 229.36 69.376 230.256 69.376C231.248 69.376 231.989 69.6213 232.48 70.112C232.97 70.592 233.216 71.28 233.216 72.176V76.032ZM229.76 77.088C230.602 77.088 231.264 76.6507 231.744 75.776V73.84H230.64C229.082 73.84 228.304 74.416 228.304 75.568C228.304 76.0693 228.426 76.448 228.672 76.704C228.917 76.96 229.28 77.088 229.76 77.088ZM239.903 69.376C240.201 69.376 240.479 69.408 240.735 69.472L240.463 70.912C240.207 70.848 239.961 70.816 239.727 70.816C239.204 70.816 238.783 71.008 238.463 71.392C238.143 71.776 237.892 72.3733 237.711 73.184V78H236.239V69.568H237.503L237.647 71.28C237.871 70.6507 238.175 70.176 238.559 69.856C238.943 69.536 239.391 69.376 239.903 69.376ZM244.998 69.376C245.5 69.376 245.958 69.4507 246.374 69.6C246.79 69.7387 247.19 69.968 247.574 70.288L246.87 71.216C246.572 71.0027 246.278 70.848 245.99 70.752C245.713 70.6453 245.404 70.592 245.062 70.592C244.38 70.592 243.846 70.864 243.462 71.408C243.089 71.952 242.902 72.7573 242.902 73.824C242.902 74.8907 243.089 75.68 243.462 76.192C243.836 76.6933 244.369 76.944 245.062 76.944C245.393 76.944 245.697 76.896 245.974 76.8C246.252 76.6933 246.561 76.528 246.902 76.304L247.574 77.264C246.806 77.8827 245.948 78.192 244.998 78.192C243.857 78.192 242.956 77.808 242.294 77.04C241.644 76.272 241.318 75.2107 241.318 73.856C241.318 72.96 241.468 72.176 241.766 71.504C242.065 70.832 242.486 70.3093 243.03 69.936C243.585 69.5627 244.241 69.376 244.998 69.376ZM253.535 69.376C254.303 69.376 254.9 69.6053 255.327 70.064C255.764 70.5227 255.983 71.152 255.983 71.952V78H254.511V72.16C254.511 71.5627 254.394 71.1413 254.159 70.896C253.935 70.6507 253.604 70.528 253.167 70.528C252.73 70.528 252.34 70.656 251.999 70.912C251.658 71.168 251.338 71.5307 251.039 72V78H249.567V66.192L251.039 66.032V70.736C251.7 69.8293 252.532 69.376 253.535 69.376ZM260.414 69.568V78H258.942V69.568H260.414ZM259.662 65.52C259.971 65.52 260.222 65.616 260.414 65.808C260.606 66 260.702 66.24 260.702 66.528C260.702 66.816 260.606 67.056 260.414 67.248C260.222 67.4293 259.971 67.52 259.662 67.52C259.363 67.52 259.118 67.4293 258.926 67.248C258.734 67.056 258.638 66.816 258.638 66.528C258.638 66.24 258.734 66 258.926 65.808C259.118 65.616 259.363 65.52 259.662 65.52ZM269.65 69.568L266.786 78H265.01L262.098 69.568H263.698L265.906 76.688L268.098 69.568H269.65ZM274.438 69.376C275.622 69.376 276.539 69.7707 277.19 70.56C277.851 71.3493 278.182 72.4213 278.182 73.776C278.182 74.6507 278.033 75.424 277.734 76.096C277.435 76.7573 277.003 77.2747 276.438 77.648C275.873 78.0107 275.201 78.192 274.422 78.192C273.238 78.192 272.315 77.7973 271.654 77.008C270.993 76.2187 270.662 75.1467 270.662 73.792C270.662 72.9173 270.811 72.1493 271.11 71.488C271.409 70.816 271.841 70.2987 272.406 69.936C272.971 69.5627 273.649 69.376 274.438 69.376ZM274.438 70.56C272.977 70.56 272.246 71.6373 272.246 73.792C272.246 75.936 272.971 77.008 274.422 77.008C275.873 77.008 276.598 75.9307 276.598 73.776C276.598 71.632 275.878 70.56 274.438 70.56ZM290.896 66.976L290.72 68.192H286.448V71.792H290.16V73.008H286.448V76.784H291.024V78H284.928V66.976H290.896ZM296.643 73.488L299.571 78H297.795L295.731 74.432L293.635 78H291.971L294.915 73.552L292.307 69.568H294.035L295.795 72.656L297.571 69.568H299.235L296.643 73.488ZM304.108 69.376C304.609 69.376 305.068 69.4507 305.484 69.6C305.9 69.7387 306.3 69.968 306.684 70.288L305.98 71.216C305.681 71.0027 305.388 70.848 305.1 70.752C304.822 70.6453 304.513 70.592 304.172 70.592C303.489 70.592 302.956 70.864 302.572 71.408C302.198 71.952 302.012 72.7573 302.012 73.824C302.012 74.8907 302.198 75.68 302.572 76.192C302.945 76.6933 303.478 76.944 304.172 76.944C304.502 76.944 304.806 76.896 305.084 76.8C305.361 76.6933 305.67 76.528 306.012 76.304L306.684 77.264C305.916 77.8827 305.057 78.192 304.108 78.192C302.966 78.192 302.065 77.808 301.404 77.04C300.753 76.272 300.428 75.2107 300.428 73.856C300.428 72.96 300.577 72.176 300.876 71.504C301.174 70.832 301.596 70.3093 302.14 69.936C302.694 69.5627 303.35 69.376 304.108 69.376ZM314.732 73.536C314.732 73.7813 314.721 74.032 314.7 74.288H309.324C309.388 75.216 309.622 75.8987 310.028 76.336C310.433 76.7733 310.956 76.992 311.596 76.992C312.001 76.992 312.374 76.9333 312.716 76.816C313.057 76.6987 313.414 76.512 313.788 76.256L314.428 77.136C313.532 77.84 312.55 78.192 311.484 78.192C310.31 78.192 309.393 77.808 308.732 77.04C308.081 76.272 307.756 75.216 307.756 73.872C307.756 72.9973 307.894 72.224 308.172 71.552C308.46 70.8693 308.865 70.336 309.388 69.952C309.921 69.568 310.545 69.376 311.26 69.376C312.38 69.376 313.238 69.744 313.836 70.48C314.433 71.216 314.732 72.2347 314.732 73.536ZM313.276 73.104C313.276 72.272 313.11 71.6373 312.78 71.2C312.449 70.7627 311.953 70.544 311.292 70.544C310.086 70.544 309.43 71.4293 309.324 73.2H313.276V73.104ZM318.763 78.192C318.219 78.192 317.787 78.032 317.467 77.712C317.157 77.3813 317.003 76.9227 317.003 76.336V66.176L318.475 66V76.304C318.475 76.5387 318.512 76.7093 318.587 76.816C318.672 76.9227 318.811 76.976 319.003 76.976C319.205 76.976 319.387 76.944 319.547 76.88L319.931 77.904C319.579 78.096 319.189 78.192 318.763 78.192ZM322.217 75.968C322.537 75.968 322.803 76.0747 323.017 76.288C323.23 76.5013 323.337 76.7627 323.337 77.072C323.337 77.3813 323.23 77.648 323.017 77.872C322.803 78.0853 322.537 78.192 322.217 78.192C321.907 78.192 321.646 78.0853 321.433 77.872C321.219 77.648 321.113 77.3813 321.113 77.072C321.113 76.7627 321.219 76.5013 321.433 76.288C321.646 76.0747 321.907 75.968 322.217 75.968Z" fill="white"/>
</svg>
