<svg width="372" height="106" viewBox="0 0 372 106" fill="none" xmlns="http://www.w3.org/2000/svg">
<circle cx="357" cy="35" r="15" fill="#11131C"/>
<circle cx="357" cy="81" r="15" fill="#11131C"/>
<path d="M356.646 41V29.48L357.906 30.74H354.126V28.4H359.562V41H356.646Z" fill="white"/>
<circle cx="15" cy="53" r="15" fill="#11131C"/>
<path d="M14.788 59.216C13.912 59.216 13.042 59.102 12.178 58.874C11.314 58.634 10.582 58.298 9.982 57.866L11.116 55.634C11.596 55.982 12.154 56.258 12.79 56.462C13.426 56.666 14.068 56.768 14.716 56.768C15.448 56.768 16.024 56.624 16.444 56.336C16.864 56.048 17.074 55.652 17.074 55.148C17.074 54.668 16.888 54.29 16.516 54.014C16.144 53.738 15.544 53.6 14.716 53.6H13.384V51.674L16.894 47.696L17.218 48.74H10.612V46.4H19.432V48.29L15.94 52.268L14.464 51.422H15.31C16.858 51.422 18.028 51.77 18.82 52.466C19.612 53.162 20.008 54.056 20.008 55.148C20.008 55.856 19.822 56.522 19.45 57.146C19.078 57.758 18.508 58.256 17.74 58.64C16.972 59.024 15.988 59.216 14.788 59.216Z" fill="white"/>
<path d="M352.594 87V85.11L357.454 80.52C357.838 80.172 358.12 79.86 358.3 79.584C358.48 79.308 358.6 79.056 358.66 78.828C358.732 78.6 358.768 78.39 358.768 78.198C358.768 77.694 358.594 77.31 358.246 77.046C357.91 76.77 357.412 76.632 356.752 76.632C356.224 76.632 355.732 76.734 355.276 76.938C354.832 77.142 354.454 77.46 354.142 77.892L352.018 76.524C352.498 75.804 353.17 75.234 354.034 74.814C354.898 74.394 355.894 74.184 357.022 74.184C357.958 74.184 358.774 74.34 359.47 74.652C360.178 74.952 360.724 75.378 361.108 75.93C361.504 76.482 361.702 77.142 361.702 77.91C361.702 78.318 361.648 78.726 361.54 79.134C361.444 79.53 361.24 79.95 360.928 80.394C360.628 80.838 360.184 81.336 359.596 81.888L355.564 85.686L355.006 84.624H362.116V87H352.594Z" fill="white"/>
<rect x="62" width="248" height="106" rx="7" fill="#114AD6"/>
<rect x="67" y="5" width="96" height="96" rx="3" fill="white"/>
<path d="M184.584 32H181.24L178.04 23.408C178.147 24.2507 178.227 24.9973 178.28 25.648C178.344 26.288 178.376 27.0507 178.376 27.936V32H176.04V20.912H179.304L182.584 29.52C182.349 28.0587 182.232 26.6827 182.232 25.392V20.912H184.584V32ZM190.281 23.232C191.583 23.232 192.601 23.632 193.337 24.432C194.073 25.2213 194.441 26.3307 194.441 27.76C194.441 28.6667 194.271 29.4613 193.929 30.144C193.599 30.816 193.119 31.3387 192.489 31.712C191.871 32.0853 191.135 32.272 190.281 32.272C188.991 32.272 187.972 31.8773 187.225 31.088C186.489 30.288 186.121 29.1733 186.121 27.744C186.121 26.8373 186.287 26.048 186.617 25.376C186.959 24.6933 187.439 24.1653 188.057 23.792C188.687 23.4187 189.428 23.232 190.281 23.232ZM190.281 25.088C189.769 25.088 189.385 25.3067 189.129 25.744C188.873 26.1707 188.745 26.8373 188.745 27.744C188.745 28.672 188.868 29.3493 189.113 29.776C189.369 30.2027 189.759 30.416 190.281 30.416C190.793 30.416 191.177 30.2027 191.433 29.776C191.689 29.3387 191.817 28.6667 191.817 27.76C191.817 26.832 191.689 26.1547 191.433 25.728C191.188 25.3013 190.804 25.088 190.281 25.088ZM205.337 23.232C206.009 23.232 206.548 23.4613 206.953 23.92C207.358 24.368 207.561 24.992 207.561 25.792V32H205.033V26.224C205.033 25.4667 204.793 25.088 204.313 25.088C204.046 25.088 203.812 25.1787 203.609 25.36C203.406 25.5413 203.209 25.8187 203.017 26.192V32H200.489V26.224C200.489 25.4667 200.249 25.088 199.769 25.088C199.513 25.088 199.278 25.184 199.065 25.376C198.862 25.5573 198.665 25.8293 198.473 26.192V32H195.945V23.504H198.153L198.329 24.496C198.66 24.0693 199.022 23.7547 199.417 23.552C199.822 23.3387 200.281 23.232 200.793 23.232C201.273 23.232 201.684 23.3493 202.025 23.584C202.377 23.8187 202.633 24.1493 202.793 24.576C203.134 24.1173 203.508 23.7813 203.913 23.568C204.329 23.344 204.804 23.232 205.337 23.232ZM214.277 23.232C215.29 23.232 216.069 23.632 216.613 24.432C217.157 25.2213 217.429 26.3307 217.429 27.76C217.429 28.6347 217.29 29.4133 217.013 30.096C216.746 30.7787 216.357 31.312 215.845 31.696C215.343 32.08 214.746 32.272 214.053 32.272C213.594 32.272 213.173 32.176 212.789 31.984C212.415 31.792 212.095 31.5253 211.829 31.184L211.701 32H209.461V20.128L211.989 19.856V24.368C212.245 24.016 212.57 23.7387 212.965 23.536C213.37 23.3333 213.807 23.232 214.277 23.232ZM213.317 30.432C214.309 30.432 214.805 29.5413 214.805 27.76C214.805 26.7467 214.687 26.048 214.453 25.664C214.218 25.28 213.877 25.088 213.429 25.088C212.863 25.088 212.383 25.4187 211.989 26.08V29.616C212.149 29.872 212.341 30.0747 212.565 30.224C212.799 30.3627 213.05 30.432 213.317 30.432ZM223.616 23.264C223.925 23.264 224.208 23.3013 224.464 23.376L224.064 25.824C223.744 25.7493 223.488 25.712 223.296 25.712C222.794 25.712 222.41 25.888 222.144 26.24C221.888 26.5813 221.685 27.0987 221.536 27.792V32H219.008V23.504H221.216L221.424 25.152C221.616 24.5653 221.904 24.1067 222.288 23.776C222.682 23.4347 223.125 23.264 223.616 23.264ZM232.353 27.584C232.353 27.936 232.337 28.24 232.305 28.496H227.041C227.126 29.2107 227.329 29.712 227.649 30C227.969 30.288 228.412 30.432 228.977 30.432C229.318 30.432 229.649 30.3733 229.969 30.256C230.289 30.128 230.636 29.936 231.009 29.68L232.049 31.088C231.057 31.8773 229.953 32.272 228.737 32.272C227.361 32.272 226.305 31.8667 225.569 31.056C224.833 30.2453 224.465 29.1573 224.465 27.792C224.465 26.928 224.62 26.1547 224.929 25.472C225.238 24.7787 225.692 24.2347 226.289 23.84C226.886 23.4347 227.601 23.232 228.433 23.232C229.66 23.232 230.62 23.616 231.313 24.384C232.006 25.152 232.353 26.2187 232.353 27.584ZM229.873 26.864C229.852 25.5627 229.393 24.912 228.497 24.912C228.06 24.912 227.718 25.072 227.473 25.392C227.238 25.712 227.094 26.24 227.041 26.976H229.873V26.864ZM245.186 20.128V32H242.946L242.818 31.008C242.221 31.8507 241.415 32.272 240.402 32.272C239.346 32.272 238.541 31.8667 237.986 31.056C237.442 30.2453 237.17 29.136 237.17 27.728C237.17 26.864 237.314 26.0907 237.602 25.408C237.89 24.7253 238.295 24.192 238.818 23.808C239.351 23.424 239.959 23.232 240.642 23.232C241.453 23.232 242.125 23.4987 242.658 24.032V19.856L245.186 20.128ZM241.186 30.416C241.773 30.416 242.263 30.096 242.658 29.456V25.792C242.455 25.5467 242.247 25.3653 242.034 25.248C241.831 25.1307 241.597 25.072 241.33 25.072C240.861 25.072 240.487 25.2907 240.21 25.728C239.933 26.1653 239.794 26.8373 239.794 27.744C239.794 28.736 239.911 29.4293 240.146 29.824C240.391 30.2187 240.738 30.416 241.186 30.416ZM254.572 27.584C254.572 27.936 254.556 28.24 254.524 28.496H249.26C249.345 29.2107 249.548 29.712 249.868 30C250.188 30.288 250.631 30.432 251.196 30.432C251.537 30.432 251.868 30.3733 252.188 30.256C252.508 30.128 252.855 29.936 253.228 29.68L254.268 31.088C253.276 31.8773 252.172 32.272 250.956 32.272C249.58 32.272 248.524 31.8667 247.788 31.056C247.052 30.2453 246.684 29.1573 246.684 27.792C246.684 26.928 246.839 26.1547 247.148 25.472C247.457 24.7787 247.911 24.2347 248.508 23.84C249.105 23.4347 249.82 23.232 250.652 23.232C251.879 23.232 252.839 23.616 253.532 24.384C254.225 25.152 254.572 26.2187 254.572 27.584ZM252.092 26.864C252.071 25.5627 251.612 24.912 250.716 24.912C250.279 24.912 249.937 25.072 249.692 25.392C249.457 25.712 249.313 26.24 249.26 26.976H252.092V26.864ZM258.248 32.272C257.512 32.272 256.936 32.064 256.52 31.648C256.115 31.2213 255.912 30.6187 255.912 29.84V20.128L258.44 19.856V29.744C258.44 30.096 258.584 30.272 258.872 30.272C259.021 30.272 259.16 30.2453 259.288 30.192L259.784 31.984C259.325 32.176 258.813 32.272 258.248 32.272ZM179.624 39.912C181.085 39.912 182.221 40.216 183.032 40.824C183.843 41.432 184.248 42.3333 184.248 43.528C184.248 44.776 183.848 45.72 183.048 46.36C182.259 46.9893 181.197 47.304 179.864 47.304H178.664V51H176.04V39.912H179.624ZM179.64 45.416C180.259 45.416 180.728 45.272 181.048 44.984C181.379 44.6853 181.544 44.2 181.544 43.528C181.544 42.3653 180.893 41.784 179.592 41.784H178.664V45.416H179.64ZM189.881 42.264C190.191 42.264 190.473 42.3013 190.729 42.376L190.329 44.824C190.009 44.7493 189.753 44.712 189.561 44.712C189.06 44.712 188.676 44.888 188.409 45.24C188.153 45.5813 187.951 46.0987 187.801 46.792V51H185.273V42.504H187.481L187.689 44.152C187.881 43.5653 188.169 43.1067 188.553 42.776C188.948 42.4347 189.391 42.264 189.881 42.264ZM194.891 42.232C196.192 42.232 197.211 42.632 197.947 43.432C198.683 44.2213 199.051 45.3307 199.051 46.76C199.051 47.6667 198.88 48.4613 198.539 49.144C198.208 49.816 197.728 50.3387 197.099 50.712C196.48 51.0853 195.744 51.272 194.891 51.272C193.6 51.272 192.581 50.8773 191.835 50.088C191.099 49.288 190.731 48.1733 190.731 46.744C190.731 45.8373 190.896 45.048 191.227 44.376C191.568 43.6933 192.048 43.1653 192.667 42.792C193.296 42.4187 194.037 42.232 194.891 42.232ZM194.891 44.088C194.379 44.088 193.995 44.3067 193.739 44.744C193.483 45.1707 193.355 45.8373 193.355 46.744C193.355 47.672 193.477 48.3493 193.723 48.776C193.979 49.2027 194.368 49.416 194.891 49.416C195.403 49.416 195.787 49.2027 196.043 48.776C196.299 48.3387 196.427 47.6667 196.427 46.76C196.427 45.832 196.299 45.1547 196.043 44.728C195.797 44.3013 195.413 44.088 194.891 44.088ZM208.171 39.128V51H205.931L205.803 50.008C205.205 50.8507 204.4 51.272 203.387 51.272C202.331 51.272 201.525 50.8667 200.971 50.056C200.427 49.2453 200.155 48.136 200.155 46.728C200.155 45.864 200.299 45.0907 200.587 44.408C200.875 43.7253 201.28 43.192 201.803 42.808C202.336 42.424 202.944 42.232 203.627 42.232C204.437 42.232 205.109 42.4987 205.643 43.032V38.856L208.171 39.128ZM204.171 49.416C204.757 49.416 205.248 49.096 205.643 48.456V44.792C205.44 44.5467 205.232 44.3653 205.019 44.248C204.816 44.1307 204.581 44.072 204.315 44.072C203.845 44.072 203.472 44.2907 203.195 44.728C202.917 45.1653 202.779 45.8373 202.779 46.744C202.779 47.736 202.896 48.4293 203.131 48.824C203.376 49.2187 203.723 49.416 204.171 49.416ZM217.316 51H215.124L215.012 49.928C214.394 50.824 213.535 51.272 212.436 51.272C211.658 51.272 211.066 51.0373 210.66 50.568C210.266 50.0987 210.068 49.4427 210.068 48.6V42.504H212.596V48.28C212.596 48.696 212.66 48.9893 212.788 49.16C212.927 49.32 213.135 49.4 213.412 49.4C213.946 49.4 214.404 49.0693 214.788 48.408V42.504H217.316V51ZM222.985 42.232C223.571 42.232 224.099 42.3173 224.569 42.488C225.038 42.6587 225.481 42.92 225.897 43.272L224.809 44.776C224.275 44.3707 223.737 44.168 223.193 44.168C222.627 44.168 222.201 44.376 221.913 44.792C221.625 45.208 221.481 45.88 221.481 46.808C221.481 47.704 221.625 48.3387 221.913 48.712C222.201 49.0853 222.617 49.272 223.161 49.272C223.449 49.272 223.71 49.2293 223.945 49.144C224.179 49.048 224.462 48.8987 224.793 48.696L225.897 50.264C225.054 50.936 224.099 51.272 223.033 51.272C222.169 51.272 221.422 51.0907 220.793 50.728C220.163 50.3547 219.678 49.8373 219.337 49.176C218.995 48.504 218.825 47.72 218.825 46.824C218.825 45.928 218.995 45.1333 219.337 44.44C219.678 43.7467 220.163 43.208 220.793 42.824C221.422 42.4293 222.153 42.232 222.985 42.232ZM232.289 50.6C231.979 50.8133 231.617 50.9787 231.201 51.096C230.795 51.2133 230.39 51.272 229.985 51.272C228.129 51.2613 227.201 50.2373 227.201 48.2V44.264H226.001V42.504H227.201V40.664L229.729 40.376V42.504H231.681L231.409 44.264H229.729V48.168C229.729 48.5627 229.793 48.8453 229.921 49.016C230.049 49.1867 230.251 49.272 230.529 49.272C230.817 49.272 231.121 49.1813 231.441 49L232.289 50.6ZM236.531 42.232C237.833 42.232 238.851 42.632 239.587 43.432C240.323 44.2213 240.691 45.3307 240.691 46.76C240.691 47.6667 240.521 48.4613 240.179 49.144C239.849 49.816 239.369 50.3387 238.739 50.712C238.121 51.0853 237.385 51.272 236.531 51.272C235.241 51.272 234.222 50.8773 233.475 50.088C232.739 49.288 232.371 48.1733 232.371 46.744C232.371 45.8373 232.537 45.048 232.867 44.376C233.209 43.6933 233.689 43.1653 234.307 42.792C234.937 42.4187 235.678 42.232 236.531 42.232ZM236.531 44.088C236.019 44.088 235.635 44.3067 235.379 44.744C235.123 45.1707 234.995 45.8373 234.995 46.744C234.995 47.672 235.118 48.3493 235.363 48.776C235.619 49.2027 236.009 49.416 236.531 49.416C237.043 49.416 237.427 49.2027 237.683 48.776C237.939 48.3387 238.067 47.6667 238.067 46.76C238.067 45.832 237.939 45.1547 237.683 44.728C237.438 44.3013 237.054 44.088 236.531 44.088Z" fill="white"/>
<path d="M179.496 73.976C180.861 73.976 181.917 74.264 182.664 74.84C183.411 75.4053 183.784 76.2533 183.784 77.384C183.784 78.5893 183.395 79.4853 182.616 80.072C181.837 80.6587 180.803 80.952 179.512 80.952H178.12V85H176.6V73.976H179.496ZM179.448 79.752C180.333 79.752 181.005 79.5813 181.464 79.24C181.933 78.8987 182.168 78.2853 182.168 77.4C182.168 76.6107 181.933 76.04 181.464 75.688C181.005 75.336 180.344 75.16 179.48 75.16H178.12V79.752H179.448ZM189.168 76.376C189.467 76.376 189.744 76.408 190 76.472L189.728 77.912C189.472 77.848 189.227 77.816 188.992 77.816C188.47 77.816 188.048 78.008 187.728 78.392C187.408 78.776 187.158 79.3733 186.976 80.184V85H185.504V76.568H186.768L186.912 78.28C187.136 77.6507 187.44 77.176 187.824 76.856C188.208 76.536 188.656 76.376 189.168 76.376ZM197.56 80.536C197.56 80.7813 197.549 81.032 197.528 81.288H192.152C192.216 82.216 192.451 82.8987 192.856 83.336C193.261 83.7733 193.784 83.992 194.424 83.992C194.829 83.992 195.203 83.9333 195.544 83.816C195.885 83.6987 196.243 83.512 196.616 83.256L197.256 84.136C196.36 84.84 195.379 85.192 194.312 85.192C193.139 85.192 192.221 84.808 191.56 84.04C190.909 83.272 190.584 82.216 190.584 80.872C190.584 79.9973 190.723 79.224 191 78.552C191.288 77.8693 191.693 77.336 192.216 76.952C192.749 76.568 193.373 76.376 194.088 76.376C195.208 76.376 196.067 76.744 196.664 77.48C197.261 78.216 197.56 79.2347 197.56 80.536ZM196.104 80.104C196.104 79.272 195.939 78.6373 195.608 78.2C195.277 77.7627 194.781 77.544 194.12 77.544C192.915 77.544 192.259 78.4293 192.152 80.2H196.104V80.104ZM202.983 76.376C203.484 76.376 203.943 76.4507 204.359 76.6C204.775 76.7387 205.175 76.968 205.559 77.288L204.855 78.216C204.556 78.0027 204.263 77.848 203.975 77.752C203.697 77.6453 203.388 77.592 203.047 77.592C202.364 77.592 201.831 77.864 201.447 78.408C201.073 78.952 200.887 79.7573 200.887 80.824C200.887 81.8907 201.073 82.68 201.447 83.192C201.82 83.6933 202.353 83.944 203.047 83.944C203.377 83.944 203.681 83.896 203.959 83.8C204.236 83.6933 204.545 83.528 204.887 83.304L205.559 84.264C204.791 84.8827 203.932 85.192 202.983 85.192C201.841 85.192 200.94 84.808 200.279 84.04C199.628 83.272 199.303 82.2107 199.303 80.856C199.303 79.96 199.452 79.176 199.751 78.504C200.049 77.832 200.471 77.3093 201.015 76.936C201.569 76.5627 202.225 76.376 202.983 76.376ZM209.023 76.568V85H207.551V76.568H209.023ZM208.271 72.52C208.581 72.52 208.831 72.616 209.023 72.808C209.215 73 209.311 73.24 209.311 73.528C209.311 73.816 209.215 74.056 209.023 74.248C208.831 74.4293 208.581 74.52 208.271 74.52C207.973 74.52 207.727 74.4293 207.535 74.248C207.343 74.056 207.247 73.816 207.247 73.528C207.247 73.24 207.343 73 207.535 72.808C207.727 72.616 207.973 72.52 208.271 72.52ZM215.235 76.376C216.419 76.376 217.336 76.7707 217.987 77.56C218.648 78.3493 218.979 79.4213 218.979 80.776C218.979 81.6507 218.83 82.424 218.531 83.096C218.232 83.7573 217.8 84.2747 217.235 84.648C216.67 85.0107 215.998 85.192 215.219 85.192C214.035 85.192 213.112 84.7973 212.451 84.008C211.79 83.2187 211.459 82.1467 211.459 80.792C211.459 79.9173 211.608 79.1493 211.907 78.488C212.206 77.816 212.638 77.2987 213.203 76.936C213.768 76.5627 214.446 76.376 215.235 76.376ZM215.235 77.56C213.774 77.56 213.043 78.6373 213.043 80.792C213.043 82.936 213.768 84.008 215.219 84.008C216.67 84.008 217.395 82.9307 217.395 80.776C217.395 78.632 216.675 77.56 215.235 77.56Z" fill="white"/>
<path d="M91.664 74.912V86H89.04V74.912H91.664ZM103.072 77.232C103.744 77.232 104.282 77.4613 104.688 77.92C105.093 78.368 105.296 78.992 105.296 79.792V86H102.768V80.224C102.768 79.4667 102.528 79.088 102.048 79.088C101.781 79.088 101.546 79.1787 101.344 79.36C101.141 79.5413 100.944 79.8187 100.752 80.192V86H98.2235V80.224C98.2235 79.4667 97.9835 79.088 97.5035 79.088C97.2475 79.088 97.0128 79.184 96.7995 79.376C96.5968 79.5573 96.3995 79.8293 96.2075 80.192V86H93.6795V77.504H95.8875L96.0635 78.496C96.3942 78.0693 96.7568 77.7547 97.1515 77.552C97.5568 77.3387 98.0155 77.232 98.5275 77.232C99.0075 77.232 99.4182 77.3493 99.7595 77.584C100.112 77.8187 100.368 78.1493 100.528 78.576C100.869 78.1173 101.242 77.7813 101.648 77.568C102.064 77.344 102.538 77.232 103.072 77.232ZM113.947 83.536C113.947 83.856 113.99 84.0907 114.075 84.24C114.171 84.3893 114.32 84.5013 114.523 84.576L113.995 86.224C113.472 86.1813 113.046 86.0693 112.715 85.888C112.384 85.696 112.128 85.3973 111.947 84.992C111.392 85.8453 110.539 86.272 109.387 86.272C108.544 86.272 107.872 86.0267 107.371 85.536C106.87 85.0453 106.619 84.4053 106.619 83.616C106.619 82.688 106.96 81.9787 107.643 81.488C108.326 80.9973 109.312 80.752 110.603 80.752H111.467V80.384C111.467 79.8827 111.36 79.5413 111.147 79.36C110.934 79.168 110.56 79.072 110.027 79.072C109.75 79.072 109.414 79.1147 109.019 79.2C108.624 79.2747 108.219 79.3813 107.803 79.52L107.227 77.856C107.76 77.6533 108.304 77.4987 108.859 77.392C109.424 77.2853 109.947 77.232 110.427 77.232C111.643 77.232 112.534 77.4827 113.099 77.984C113.664 78.4853 113.947 79.2373 113.947 80.24V83.536ZM110.123 84.464C110.699 84.464 111.147 84.192 111.467 83.648V82.144H110.843C110.267 82.144 109.835 82.2453 109.547 82.448C109.27 82.6507 109.131 82.9653 109.131 83.392C109.131 83.7333 109.216 84 109.387 84.192C109.568 84.3733 109.814 84.464 110.123 84.464ZM123.628 78C123.074 78.224 122.258 78.336 121.181 78.336C121.735 78.5707 122.141 78.8587 122.397 79.2C122.653 79.5413 122.781 79.984 122.781 80.528C122.781 81.072 122.637 81.5627 122.349 82C122.061 82.4267 121.645 82.7627 121.101 83.008C120.567 83.2533 119.938 83.376 119.213 83.376C118.871 83.376 118.546 83.344 118.237 83.28C118.151 83.3227 118.082 83.392 118.029 83.488C117.986 83.5733 117.965 83.664 117.965 83.76C117.965 83.92 118.023 84.048 118.141 84.144C118.269 84.2293 118.519 84.272 118.893 84.272H120.173C120.823 84.272 121.394 84.3787 121.885 84.592C122.375 84.8053 122.754 85.0987 123.021 85.472C123.287 85.8453 123.421 86.2667 123.421 86.736C123.421 87.6213 123.037 88.3093 122.269 88.8C121.511 89.3013 120.413 89.552 118.973 89.552C117.938 89.552 117.122 89.44 116.525 89.216C115.927 89.0027 115.506 88.6987 115.261 88.304C115.026 87.9093 114.909 87.4133 114.909 86.816H117.181C117.181 87.072 117.229 87.2747 117.325 87.424C117.431 87.5733 117.618 87.6853 117.885 87.76C118.151 87.8347 118.535 87.872 119.036 87.872C119.73 87.872 120.21 87.7867 120.477 87.616C120.743 87.456 120.877 87.2213 120.877 86.912C120.877 86.656 120.775 86.4533 120.573 86.304C120.37 86.1547 120.066 86.08 119.661 86.08H118.429C117.554 86.08 116.898 85.9253 116.461 85.616C116.034 85.296 115.821 84.8907 115.821 84.4C115.821 84.0907 115.911 83.792 116.093 83.504C116.274 83.2053 116.519 82.96 116.829 82.768C116.295 82.48 115.906 82.144 115.661 81.76C115.426 81.3653 115.309 80.8907 115.309 80.336C115.309 79.3867 115.65 78.6347 116.333 78.08C117.015 77.5147 117.917 77.232 119.036 77.232C119.89 77.2533 120.61 77.168 121.197 76.976C121.794 76.784 122.407 76.5013 123.036 76.128L123.628 78ZM119.101 78.896C118.706 78.896 118.391 79.024 118.157 79.28C117.933 79.5253 117.821 79.8667 117.821 80.304C117.821 80.7627 117.933 81.12 118.157 81.376C118.391 81.6213 118.706 81.744 119.101 81.744C119.517 81.744 119.831 81.6213 120.045 81.376C120.269 81.1307 120.381 80.7627 120.381 80.272C120.381 79.3547 119.954 78.896 119.101 78.896ZM131.666 81.584C131.666 81.936 131.65 82.24 131.618 82.496H126.354C126.439 83.2107 126.642 83.712 126.962 84C127.282 84.288 127.724 84.432 128.29 84.432C128.631 84.432 128.962 84.3733 129.282 84.256C129.602 84.128 129.948 83.936 130.322 83.68L131.362 85.088C130.37 85.8773 129.266 86.272 128.05 86.272C126.674 86.272 125.618 85.8667 124.882 85.056C124.146 84.2453 123.778 83.1573 123.778 81.792C123.778 80.928 123.932 80.1547 124.242 79.472C124.551 78.7787 125.004 78.2347 125.602 77.84C126.199 77.4347 126.914 77.232 127.746 77.232C128.972 77.232 129.932 77.616 130.626 78.384C131.319 79.152 131.666 80.2187 131.666 81.584ZM129.186 80.864C129.164 79.5627 128.706 78.912 127.81 78.912C127.372 78.912 127.031 79.072 126.786 79.392C126.551 79.712 126.407 80.24 126.354 80.976H129.186V80.864ZM138.062 77.232C138.798 77.232 139.374 77.456 139.79 77.904C140.206 78.352 140.414 78.9813 140.414 79.792V86H137.886V80.224C137.886 79.7973 137.816 79.504 137.678 79.344C137.55 79.1733 137.352 79.088 137.086 79.088C136.574 79.088 136.083 79.456 135.614 80.192V86H133.086V77.504H135.294L135.47 78.512C135.832 78.0853 136.222 77.7653 136.638 77.552C137.064 77.3387 137.539 77.232 138.062 77.232Z" fill="#11131C"/>
<path d="M127.818 36.7242L126.969 39.2522C126.005 42.1225 122.869 43.6832 119.997 42.7194L117.938 42.0276L103.55 37.1992C100.679 36.2354 99.1193 33.0978 100.082 30.2274L100.931 27.6995C101.515 25.9595 102.897 24.7014 104.534 24.1948C105.599 23.8641 106.771 23.8512 107.903 24.2311L124.351 29.7526C127.221 30.7163 128.782 33.8528 127.818 36.7242Z" fill="#78B9EB"/>
<path d="M119.066 41.0555L117.938 42.0276L103.55 37.1992C100.679 36.2354 99.1194 33.0978 100.082 30.2274L100.931 27.6995C101.515 25.9595 102.897 24.7014 104.534 24.1948L119.066 41.0555Z" fill="#5AAAE7"/>
<path d="M116.089 42.3982L106.492 50.6703L105.043 51.919L87.3566 31.401L88.8071 30.1511L98.4042 21.879L116.089 42.3982Z" fill="#C70024"/>
<path d="M116.089 42.3982L106.492 50.6703L88.8071 30.1511L98.4042 21.879L116.089 42.3982Z" fill="#FF0C38"/>
<path d="M99.4149 23.1335L88.4484 32.5853C87.8937 33.0625 87.0483 33.0003 86.5699 32.4457L86.3214 32.1573C85.843 31.6027 85.9063 30.7573 86.461 30.2789L87.3286 29.5308L97.4263 20.8271C97.9762 20.3534 98.8087 20.4097 99.2895 20.949C99.2954 20.9549 99.3013 20.9608 99.3059 20.9666L99.5533 21.255C100.032 21.8099 99.9695 22.6552 99.4149 23.1335Z" fill="#A5001E"/>
<path d="M99.2893 20.9491L89.1904 29.6528C88.6417 30.1265 87.8092 30.069 87.3284 29.5309L97.4262 20.8272C97.9762 20.3535 98.8087 20.4098 99.2893 20.9491Z" fill="#C70024"/>
<path d="M100.617 40.8175C103.467 40.8175 105.778 38.5067 105.778 35.6561C105.778 32.8055 103.467 30.4947 100.617 30.4947C97.766 30.4947 95.4551 32.8055 95.4551 35.6561C95.4551 38.5067 97.766 40.8175 100.617 40.8175Z" fill="#A5001E"/>
<path d="M104.258 35.3734L103.373 34.6776L103.665 33.4781C103.78 33.0062 103.491 32.5305 103.019 32.4156C102.547 32.3006 102.071 32.5902 101.956 33.062L101.759 33.8708C101.426 33.7905 101.032 33.729 100.603 33.729C99.472 33.729 97.9049 34.1531 96.8594 36.1738C96.6607 36.5579 96.7707 37.0298 97.1191 37.2862C97.2298 37.3677 98.2387 38.0821 99.555 38.0821C100.445 38.0821 101.638 37.7534 102.634 36.3338L103.17 36.7557C103.331 36.8826 103.523 36.944 103.713 36.944C103.974 36.944 104.231 36.8289 104.405 36.6084C104.705 36.2265 104.639 35.6736 104.258 35.3734ZM99.555 36.3231C99.3332 36.3231 99.1209 36.2836 98.9319 36.2278C99.3817 35.7312 99.934 35.4877 100.603 35.4877C100.756 35.4877 100.905 35.5007 101.044 35.5215C100.61 36.0542 100.112 36.3231 99.555 36.3231Z" fill="#FFCD00"/>
<path d="M139.679 23.7879L127.595 18.6996C126.561 18.2643 125.369 18.7497 124.934 19.7837L123.254 23.7743C123.242 23.7803 123.241 23.7805 123.254 23.7745L118.312 27.7221C118.144 27.8567 117.985 28.0036 117.84 28.1602C117.483 28.5419 117.194 28.9853 116.99 29.4703L112.953 39.0604C112.31 40.5878 113.026 42.3466 114.554 42.9897L117.4 44.1882L117.4 44.1884L131.391 50.0785C132.919 50.7215 134.678 50.0046 135.321 48.4772L139.362 38.8795C139.648 38.2006 139.76 37.4615 139.69 36.7283L139.083 30.4386L140.763 26.4486C141.198 25.4142 140.713 24.2231 139.679 23.7879Z" fill="#FF728B"/>
<path d="M131.391 50.0785L117.4 44.1885L122.602 31.8331C122.89 31.1492 123.344 30.5482 123.924 30.0849L128.866 26.137L139.083 30.4382L139.689 36.7282C139.76 37.4614 139.647 38.2006 139.361 38.8794L135.321 48.4771C134.678 50.0045 132.919 50.7216 131.391 50.0785Z" fill="#FF3F62"/>
<path d="M139.083 30.4384L134.23 34.453C134.072 34.5839 133.925 34.7243 133.788 34.8744C133.444 35.2483 133.166 35.6808 132.967 36.1527L127.75 48.5453L114.554 42.9896C113.026 42.3466 112.31 40.5877 112.953 39.0603L116.99 29.4702C117.194 28.9852 117.483 28.5418 117.84 28.1601C117.985 28.0034 118.144 27.8565 118.312 27.722L123.254 23.7744L139.083 30.4384Z" fill="#FF728B"/>
<path d="M133.788 34.8744C133.443 35.2483 133.166 35.6808 132.967 36.1527L130.491 42.0338L114.53 35.3141L116.99 29.4702C117.194 28.9852 117.483 28.5418 117.84 28.1601L133.788 34.8744Z" fill="#FFA5B5"/>
<path d="M139.69 36.7277L139.082 30.4384L134.23 34.4531C134.072 34.5843 133.925 34.7239 133.788 34.874C133.444 35.2481 133.166 35.6807 132.966 36.1532L127.75 48.5456L131.391 50.0781C132.918 50.7217 134.678 50.0042 135.321 48.4776L139.361 38.8794C139.647 38.2005 139.76 37.4618 139.69 36.7277Z" fill="#FF0C38"/>
<path d="M125.041 35.5973C125.082 36.6158 124.078 37.3784 123.122 37.0257C123.1 37.0176 123.078 37.009 123.057 36.9999C123.035 36.9907 123.013 36.9812 122.993 36.9711C122.072 36.5336 121.916 35.283 122.673 34.6001L124.354 33.0839C124.579 32.8807 124.939 33.0324 124.951 33.3354L125.041 35.5973Z" fill="#FF3F62"/>
<path d="M126.468 25.1268L126.417 25.2524L121.475 29.2002C121.306 29.335 121.148 29.4816 121.002 29.6387C120.646 30.0198 120.357 30.4642 120.153 30.9485L115.044 43.1954L114.553 42.989C113.027 42.3465 112.309 40.5877 112.953 39.0599L116.99 29.4698C117.194 28.9855 117.482 28.5424 117.84 28.1601C117.985 28.0029 118.144 27.8564 118.312 27.7215L123.253 23.7748C123.253 23.7737 123.254 23.7737 123.254 23.7737L126.468 25.1268Z" fill="#FF3F62"/>
<path d="M121.103 29.5344C121.068 29.5684 121.035 29.6036 121.002 29.6387C120.646 30.0198 120.357 30.4642 120.153 30.9485L117.765 36.6751L114.53 35.3138L116.99 29.4699C117.194 28.9857 117.482 28.5425 117.84 28.1602L121.103 29.5344Z" fill="#FF728B"/>
<path d="M139.083 30.4389L123.254 23.7742L124.934 19.7836C125.369 18.7496 126.561 18.2642 127.595 18.6995L139.679 23.7877C140.713 24.2231 141.198 25.4142 140.763 26.4483L139.083 30.4389Z" fill="#FF3F62"/>
<path d="M128.88 19.2409L126.468 25.127L123.255 23.7738L124.934 19.7837C125.37 18.7496 126.561 18.2642 127.595 18.6992L128.88 19.2409Z" fill="#FF0C38"/>
<path d="M140.863 42.975L132.483 68.7376C132.126 69.8362 131.102 70.5808 129.946 70.5808H100.191C99.0397 70.5808 98.0184 69.8421 97.6573 68.7493L89.1365 42.975H140.863Z" fill="#7ED63E"/>
<path d="M140.863 42.975L132.484 68.7376C132.126 69.8362 131.102 70.5808 129.946 70.5808H105.211C104.059 70.5808 103.038 69.8421 102.677 68.7493L94.1573 42.975H140.863Z" fill="#A4E276"/>
<path d="M141.574 42.4581C141.409 42.2304 141.144 42.0956 140.863 42.0956H94.2043C93.7186 42.0956 93.3249 42.4893 93.3249 42.975C93.3249 43.4606 93.7186 43.8544 94.2043 43.8544H139.652L136.482 53.5999H131.284L132.705 46.9225C132.806 46.4474 132.503 45.9803 132.028 45.8793C131.553 45.778 131.086 46.0812 130.985 46.5563L129.486 53.5999H123.562L124.162 46.8168C124.205 46.333 123.847 45.9061 123.364 45.8633C122.881 45.8203 122.453 46.1779 122.41 46.6618L121.796 53.5999H115.879V46.7393C115.879 46.2537 115.486 45.8599 115 45.8599C114.514 45.8599 114.12 46.2537 114.12 46.7393V53.5999H108.4L107.786 46.6618C107.743 46.178 107.315 45.8212 106.832 45.8633C106.348 45.9061 105.991 46.333 106.034 46.8168L106.634 53.5999H105.558C105.073 53.5999 104.679 53.9936 104.679 54.4793C104.679 54.9649 105.073 55.3587 105.558 55.3587H106.79L107.344 61.6148H102.416L101.084 55.3587H102.041C102.526 55.3587 102.92 54.9649 102.92 54.4793C102.92 53.9936 102.526 53.5999 102.041 53.5999H100.71L99.2105 46.5563C99.1094 46.0813 98.6428 45.7776 98.1673 45.8793C97.6923 45.9803 97.3892 46.4474 97.4903 46.9225L98.9116 53.5999H93.5753L90.3539 43.8544H90.6868C91.1724 43.8544 91.5662 43.4606 91.5662 42.975C91.5662 42.4893 91.1724 42.0956 90.6868 42.0956H89.1371C88.8548 42.0956 88.5897 42.2312 88.4243 42.4599C88.2591 42.6887 88.2135 42.9829 88.3021 43.2509L96.8221 69.0258C97.3034 70.4818 98.6571 71.4602 100.191 71.4602H103.422C103.423 71.4602 103.423 71.4603 103.424 71.4603C103.425 71.4603 103.426 71.4602 103.427 71.4602H109.018C109.018 71.4602 109.019 71.4602 109.019 71.4602C109.02 71.4602 109.02 71.4602 109.02 71.4602H121.175C121.176 71.4602 121.176 71.4602 121.176 71.4602C121.177 71.4602 121.177 71.4602 121.178 71.4602H126.768C126.769 71.4602 126.77 71.4603 126.771 71.4603C126.772 71.4603 126.773 71.4602 126.773 71.4602H129.946C131.487 71.4602 132.843 70.4755 133.32 69.0097L135.93 60.9833C136.081 60.5215 135.828 60.0253 135.366 59.8751C134.904 59.725 134.408 59.9776 134.258 60.4394L133.875 61.6151H129.578L130.91 55.3589H135.91L135.346 57.0944C135.196 57.5562 135.448 58.0524 135.91 58.2026C136.001 58.2319 136.092 58.246 136.182 58.246C136.553 58.246 136.898 58.0098 137.018 57.6383L141.699 43.2472C141.786 42.9792 141.74 42.686 141.574 42.4581ZM121.64 55.3587L121.086 61.6148H115.879V55.3587H121.64ZM122.136 69.7013L122.696 63.3737H127.406L126.059 69.7013H122.136ZM120.371 69.7013H115.879V63.3737H120.931L120.371 69.7013ZM109.825 69.7013L109.265 63.3737H114.121V69.7013H109.825ZM108.555 55.3587H114.121V61.6148H109.109L108.555 55.3587ZM107.499 63.3737L108.059 69.7013H104.137L102.79 63.3737H107.499ZM99.2859 55.3587L100.617 61.6148H96.2248L94.1568 55.3587H99.2859ZM98.492 68.4737L96.8061 63.3735H100.992L102.339 69.7012H100.191C99.4174 69.7013 98.7347 69.208 98.492 68.4737ZM133.303 63.3737L131.647 68.4655C131.407 69.2047 130.723 69.7012 129.946 69.7012H127.857L129.204 63.3735H133.303V63.3737ZM127.78 61.6148H122.852L123.406 55.3587H129.112L127.78 61.6148Z" fill="#5EAC24"/>
<path d="M144 42.975C144 44.0104 143.577 44.9519 142.894 45.6331C142.212 46.3155 141.27 46.7389 140.235 46.7389H89.765C87.6943 46.7389 86 45.0458 86 42.9751C86 41.9397 86.4233 40.9982 87.1057 40.3158C87.7881 39.6334 88.7296 39.2101 89.765 39.2101H140.235C142.235 39.2101 143.885 40.7918 143.994 42.7652C143.998 42.8343 144 42.9046 144 42.975Z" fill="#4E901E"/>
<path d="M143.994 42.7651H93.5241C91.5238 42.7651 89.8752 41.1833 89.7662 39.21H140.235C142.235 39.21 143.885 40.7917 143.994 42.7651Z" fill="#5EAC24"/>
<path d="M117.554 23.7316V41.6067C117.554 42.2691 117.298 42.8742 116.881 43.3291C116.413 43.8391 115.742 44.1605 115 44.1605C113.595 44.1605 112.446 43.0113 112.446 41.6068V23.7316C112.446 22.328 113.595 21.179 115 21.179C115.702 21.179 116.341 21.4663 116.803 21.9294C116.829 21.9552 116.855 21.9821 116.881 22.0102C117.298 22.464 117.554 23.0703 117.554 23.7316Z" fill="#47821C"/>
<path d="M117.554 23.7316V41.6067C117.554 42.2691 117.298 42.8742 116.881 43.3291C116.462 42.8742 116.206 42.2691 116.206 41.6067V23.7316C116.206 23.0702 116.462 22.4641 116.881 22.0103C117.298 22.4641 117.554 23.0703 117.554 23.7316Z" fill="#4E901E"/>
<path d="M115 42.4352C115.419 42.4352 115.758 42.0958 115.758 41.677C115.758 41.2583 115.419 40.9188 115 40.9188C114.581 40.9188 114.242 41.2583 114.242 41.677C114.242 42.0958 114.581 42.4352 115 42.4352Z" fill="#A4E276"/>
<rect x="176" y="62" width="16" height="2" rx="1" fill="white"/>
<rect x="236" y="80" width="111" height="2" rx="1" fill="#11131C"/>
<rect x="24" y="52" width="54" height="2" rx="1" fill="#11131C"/>
<rect x="267" y="34" width="78" height="2" rx="1" fill="#11131C"/>
</svg>
