<svg width="66" height="50" viewBox="0 0 66 50" fill="none" xmlns="http://www.w3.org/2000/svg">
<path d="M16.5996 14.8492C16.5866 31.2144 16.461 25.1465 16.5996 31.9263C16.5996 31.9263 18.8992 31.9263 23.5027 31.9263C23.5027 31.9263 23.5027 26.2353 23.5027 14.8492C23.3209 12.4079 22.6323 10.3392 21.437 8.64738C18.6004 3.05693 12.7106 -0.33084 0.588961 0.824939C0.498016 10.6742 0.498016 21.0385 0.588961 31.9221C1.00038 31.9221 3.31298 31.9221 7.52676 31.9221C7.52676 31.9221 7.52676 23.7144 7.52676 7.29479C12.1953 7.43298 16.6039 9.77385 16.5996 14.8492Z" fill="white"/>
<path d="M48.9371 0.598877C44.2729 0.598877 39.4052 3.11563 36.404 6.85935C33.6497 3.191 29.5528 1.07208 23.5028 0.657503C23.5028 1.0302 23.5028 3.26638 23.5028 7.36605C28.9075 7.84762 32.1902 10.8124 33.3465 16.2605C33.117 21.2815 33.117 26.4992 33.3465 31.9222C37.9024 31.9222 40.1804 31.9222 40.1804 31.9222C40.1804 31.0637 40.1804 30.2387 40.1804 29.4473C44.0347 31.6374 49.0107 32.3702 53.6359 31.516V24.1081C52.3973 24.7195 50.9941 25.0629 49.5087 25.0629C44.4808 25.0629 40.4056 21.1223 40.4056 16.2605C40.4056 11.3987 44.4808 7.45817 49.5087 7.45817C54.9611 7.45817 59.1619 12.0436 58.5512 17.2572V31.8593C58.5642 31.9389 58.5512 30.7957 58.5642 31.9389C65.476 31.8761 58.5642 31.9389 65.476 31.8761C65.0819 13.2622 65.0819 19.418 65.0819 13.2622C63.1678 4.68598 56.1737 0.598877 48.9371 0.598877Z" fill="white"/>
<path d="M49.474 18.9405C50.6532 18.9405 51.6091 18.0162 51.6091 16.876C51.6091 15.7358 50.6532 14.8115 49.474 14.8115C48.2949 14.8115 47.339 15.7358 47.339 16.876C47.339 18.0162 48.2949 18.9405 49.474 18.9405Z" fill="white"/>
<path d="M21.4846 40.8794C20.5276 40.8794 19.709 41.2102 19.0291 41.8677C18.3492 42.5251 18.0071 43.3166 18.0071 44.242C18.0071 45.1675 18.3492 45.9548 19.0291 46.6039C19.709 47.2529 20.5276 47.5796 21.4846 47.5796C22.2079 47.5796 22.8748 47.3702 23.4854 46.9556C24.0961 46.541 24.5205 46.0092 24.7587 45.3685H22.9744C22.7579 45.6156 22.5327 45.7873 22.2945 45.8878C22.0606 45.9883 21.7445 46.0385 21.3461 46.0385C21.0169 46.0385 20.7094 45.9506 20.4193 45.7747C20.1335 45.5988 19.9039 45.3434 19.7394 45.0084H24.8756C24.9059 44.8492 24.9276 44.7194 24.9449 44.6147C24.9579 44.51 24.9665 44.3844 24.9665 44.242C24.9665 43.3082 24.6244 42.5167 23.9402 41.8635C23.2602 41.206 22.4417 40.8794 21.4846 40.8794ZM19.722 43.505C19.8953 43.1449 20.1421 42.8685 20.4669 42.6759C20.7917 42.4832 21.1339 42.3869 21.4933 42.3869C21.8614 42.3869 22.1992 42.4832 22.5153 42.6759C22.8272 42.8685 23.074 43.1449 23.2429 43.505H19.722Z" fill="white"/>
<path d="M16.3398 41.1684C15.8461 40.9841 15.426 40.892 15.0709 40.892C14.6985 40.892 14.3347 40.9632 13.9882 41.1014C13.6418 41.2438 13.3343 41.4657 13.0745 41.7672C12.6933 41.3485 12.3556 41.0972 12.0611 41.0134C11.7666 40.9297 11.5284 40.8878 11.3508 40.8878C11.0823 40.8878 10.8052 40.9423 10.5193 41.0553C10.2335 41.1684 9.97799 41.3233 9.74414 41.5285V41.0386H8.21973V47.3912H9.82209V44.263V43.9825C9.82209 43.6349 9.85673 43.3501 9.9217 43.124C9.99099 42.8979 10.1252 42.7262 10.3288 42.6047C10.5323 42.4833 10.7402 42.4205 10.9524 42.4205C11.0737 42.4205 11.1819 42.433 11.2772 42.4582C11.3725 42.4833 11.4937 42.5377 11.6323 42.6215C11.7709 42.7052 11.8878 42.8602 11.9874 43.0947C12.0827 43.325 12.1347 43.6768 12.1347 44.1458V44.3719V47.3954H13.7284V44.2337V44.0076C13.7284 43.6893 13.763 43.4088 13.828 43.1659C13.8973 42.923 14.0315 42.7387 14.2437 42.6131C14.4516 42.4875 14.6725 42.4247 14.9063 42.4247C15.1012 42.4247 15.2961 42.4791 15.4953 42.5922C15.6945 42.7052 15.8288 42.8853 15.9024 43.1366C15.976 43.3878 16.015 43.7186 16.015 44.129V44.552V47.3995H17.6087V44.1458C17.6087 43.3711 17.5221 42.7304 17.3445 42.2153C17.167 41.7002 16.8335 41.3526 16.3398 41.1684Z" fill="white"/>
<path d="M26.9457 41.562V41.0427H25.5209V47.3953H27.1232V44.2839C27.1232 43.7186 27.2099 43.2831 27.3831 42.9648C27.5563 42.6508 27.9417 42.4623 28.548 42.4079V40.8794C28.2709 40.8794 27.9894 40.9422 27.7079 41.0678C27.4221 41.1977 27.1709 41.361 26.9457 41.562Z" fill="white"/>
<path d="M33.1386 45.8459C32.8571 45.9966 32.5539 46.072 32.2248 46.072C31.7008 46.072 31.2504 45.8878 30.8736 45.5234C30.4969 45.1591 30.3063 44.7194 30.3063 44.2127C30.3063 43.6977 30.4925 43.2621 30.8606 42.9146C31.2287 42.5628 31.6835 42.3869 32.2248 42.3869C32.8831 42.3869 33.3854 42.6173 33.7276 43.0821H35.4988C35.2606 42.4456 34.8319 41.9221 34.2213 41.5033C33.6063 41.0888 32.9437 40.8794 32.2248 40.8794C31.2591 40.8794 30.4406 41.2018 29.765 41.8509C29.0894 42.4958 28.7516 43.2831 28.7516 44.2085C28.7516 45.1424 29.0937 45.938 29.7736 46.5955C30.4536 47.2529 31.2721 47.5838 32.2291 47.5838C32.9827 47.5838 33.6713 47.3576 34.2862 46.9054C34.9012 46.4531 35.3213 45.8878 35.5465 45.2094H33.8315C33.6496 45.4858 33.4201 45.6993 33.1386 45.8459Z" fill="white"/>
<path d="M55.4245 40.8794C55.104 40.8794 54.7878 40.9464 54.4847 41.0762C54.1772 41.206 53.8957 41.3777 53.6315 41.5871V41.0469H52.0292V49.4054H53.6315V46.964C53.8654 47.165 54.1339 47.3199 54.437 47.4246C54.7445 47.5293 55.0737 47.5837 55.4245 47.5837C56.3815 47.5837 57.1957 47.2529 57.867 46.5955C58.5382 45.938 58.876 45.1508 58.876 44.2337C58.876 43.2998 58.5382 42.5084 57.867 41.8593C57.1957 41.206 56.3815 40.8794 55.4245 40.8794ZM56.702 45.4983C56.3426 45.8459 55.9095 46.0176 55.4028 46.0176C54.8874 46.0176 54.45 45.8459 54.0906 45.4983C53.7311 45.1507 53.5536 44.732 53.5536 44.242C53.5536 43.7437 53.7311 43.325 54.0906 42.9858C54.45 42.6466 54.8874 42.4749 55.4028 42.4749C55.9095 42.4749 56.3426 42.6466 56.702 42.9941C57.0615 43.3417 57.239 43.7563 57.239 44.242C57.239 44.732 57.0615 45.1507 56.702 45.4983Z" fill="white"/>
<path d="M47.9799 40.8794C47.6594 40.8794 47.3433 40.9464 47.0401 41.0762C46.7326 41.206 46.4511 41.3777 46.187 41.5871V41.0469H44.5846V49.4054H46.187V46.964C46.4208 47.165 46.6893 47.3199 46.9925 47.4246C47.2999 47.5293 47.6291 47.5837 47.9799 47.5837C48.937 47.5837 49.7511 47.2529 50.4224 46.5955C51.0937 45.938 51.4314 45.1508 51.4314 44.2337C51.4314 43.2998 51.0937 42.5084 50.4224 41.8593C49.7511 41.206 48.937 40.8794 47.9799 40.8794ZM49.2574 45.4983C48.898 45.8459 48.4649 46.0176 47.9582 46.0176C47.4429 46.0176 47.0055 45.8459 46.646 45.4983C46.2866 45.1507 46.109 44.732 46.109 44.242C46.109 43.7437 46.2866 43.325 46.646 42.9858C47.0055 42.6466 47.4429 42.4749 47.9582 42.4749C48.4649 42.4749 48.898 42.6466 49.2574 42.9941C49.6169 43.3417 49.7944 43.7563 49.7944 44.242C49.7944 44.732 49.6169 45.1507 49.2574 45.4983Z" fill="white"/>
<path d="M39.2536 38.8107L35.6764 47.3953H37.491L38.5433 44.8701H41.3366L42.402 47.3953H44.1862L40.5441 38.8107H39.2536ZM39.0977 43.3961L39.8945 41.3149L40.7347 43.3961H39.0977Z" fill="white"/>
</svg>
